<?xml version="1.0" encoding="utf-8"?>
<!-- Generator: Adobe Illustrator 24.3.0, SVG Export Plug-In . SVG Version: 6.00 Build 0)  -->
<svg version="1.1" id="Layer_1" xmlns="http://www.w3.org/2000/svg" xmlns:xlink="http://www.w3.org/1999/xlink" x="0px" y="0px"
	 viewBox="0 0 77 206" style="enable-background:new 0 0 77 206;" xml:space="preserve">
<style type="text/css">
	.st0{fill:#97D3FF;}
</style>
<path class="st0" d="M21.1,109.4c10.5,2.8,22.7,0.9,32.8-4.1c3.9,9,6,18.7,5.8,28.5C59.3,158.9,43,181,19.8,190c1.3-6.2,3-12,5.1-18
	c1.3-3.9-4.7-5.6-6.2-1.7c-2.8,7.7-4.9,15.6-6.4,23.8c-0.2,1.3,0.2,2.6,1.3,3.4c0.4,0.6,0.9,1.3,1.9,1.5c7.5,2.4,14.8,4.5,22.3,6.9
	c3.9,1.3,5.6-4.9,1.7-6.2c-4.9-1.5-9.9-3-14.8-4.5c22.5-9.9,38.8-31.1,41.2-56.2c1.1-11.4-1.1-24.7-6.2-36.7
	c0.6-0.4,1.3-0.9,1.9-1.3c11.1-8.1,15-20.4,14.4-33.7C74.1,30.7,44.7,2.8,8.7,0c-4.1-0.4-4.1,6,0,6.4c31.1,2.6,57,25.9,60.7,57.5
	c1.5,13.5-1.9,25.1-12.2,32.4c-7.1-13.3-18.2-24-33-26.6C13.6,68,1.2,72.1,0.1,84.1C-1.2,96.3,9.8,106.4,21.1,109.4z M33.1,79.8
	c6,3.6,11.1,9,15,14.8c1.1,1.5,1.9,3,2.8,4.7h-0.2c-13.1,6-40.7,8.6-43.7-10.9C4.2,71.2,24.5,74.8,33.1,79.8z"/>
</svg>
