<?xml version="1.0" encoding="utf-8"?>
<!-- Generator: Adobe Illustrator 24.3.0, SVG Export Plug-In . SVG Version: 6.00 Build 0)  -->
<svg version="1.1" id="Layer_1" xmlns="http://www.w3.org/2000/svg" xmlns:xlink="http://www.w3.org/1999/xlink" x="0px" y="0px"
	 viewBox="0 0 128.3 104.1" style="enable-background:new 0 0 128.3 104.1;" xml:space="preserve">
<style type="text/css">
	.st0{fill:none;stroke:#FFFFFF;stroke-width:3;stroke-linecap:round;stroke-miterlimit:10;}
	.st1{fill:#FFFFFF;}
	.st2{font-family:'Leafy';}
	.st3{font-size:14.6781px;}
</style>
<g>
	<path class="st0" d="M98,86.9H27.6c-9,0-16.2-7.3-16.2-16.2V27.2c0-9,7.3-16.2,16.2-16.2H98c9,0,16.2,7.3,16.2,16.2v43.4
		C114.2,79.6,106.9,86.9,98,86.9z"/>
	<line class="st0" x1="11.4" y1="69.7" x2="114.2" y2="69.7"/>
	<path class="st1" d="M65.5,77.8c0,1.5-1.2,2.7-2.7,2.7c-1.5,0-2.7-1.2-2.7-2.7c0-1.5,1.2-2.7,2.7-2.7
		C64.3,75.2,65.5,76.4,65.5,77.8z"/>
	<rect x="51.3" y="86.9" class="st0" width="23" height="10.4"/>
	<line class="st0" x1="42.9" y1="97.8" x2="82.7" y2="97.8"/>
</g>
<g>
	<g>
		<g>
			<path class="st1" d="M43.8,49.7c0.2,0.1,0.4,0.1,0.6,0.2c0.7,0.3,1.2-0.1,1.8-0.3c0.4-0.1,0.7-0.3,1.1-0.4c0.1,0,0.3,0,0.4,0
				c0,0.1,0,0.1,0,0.2c0,0,0,0.1,0.1,0.1c0,0.1-0.1,0.2-0.1,0.3c0.2,0.2,0.3,0.3,0.4,0.4c0.1,0.2,0.2,0.3,0.1,0.5c0,0.1,0,0.1,0,0.2
				c0,0.3-0.2,0.6-0.5,0.7c-0.5,0.2-0.9,0.3-1.4,0.4c-0.2,0-0.4,0-0.6,0.2c-0.1,0.1-0.3,0.1-0.5,0.1c-0.3,0-0.5,0-0.8-0.1
				c-0.6-0.1-1.1-0.2-1.6-0.6c-0.1-0.1-0.2-0.1-0.3-0.1c-0.1-0.1-0.2-0.1-0.3-0.2c-0.1-0.1-0.2-0.2-0.3-0.3c-0.1,0-0.1-0.1-0.2-0.2
				c-0.3-0.3-0.5-0.7-0.7-1c-0.2-0.3-0.3-0.8-0.3-1.1c-0.2-0.5-0.2-1-0.2-1.5c0-0.5,0.1-1,0.1-1.5c0-0.2,0-0.3,0-0.5
				c0-0.5,0-1,0-1.6c0-0.9,0-1.8,0.1-2.7c0-0.7,0.1-1.3,0.1-1.9c0.1-0.8,0.1-1.6,0.2-2.5c0-0.5,0.1-1.1,0.1-1.6
				c0.1-0.9,0.2-1.7,0.3-2.5c0-0.3,0.1-0.5,0.1-0.8c0.1-0.3,0.4-0.5,0.7-0.6c0.2,0,0.4,0,0.6-0.1c0.3,0,0.6-0.1,0.9-0.1
				c0.4,0,0.8,0,1.2,0c0.1,0,0.2,0,0.3,0c0.3,0,0.5,0,0.8,0c0.4,0,0.8,0.1,1.1,0.2c0.1,0,0.3,0.1,0.4,0.1c0.1,0,0.2,0.1,0.2,0.1
				c0.1,0.2,0.3,0.2,0.4,0.2c0.2,0,0.3,0.1,0.5,0.1c0,0.1,0,0.2-0.1,0.2c0,0,0,0,0,0c-0.1,0.1-0.2,0.2-0.3,0.3c0,0,0,0,0,0
				c-0.1,0-0.2,0.1-0.3,0.1c0,0-0.1,0-0.1,0c0,0,0,0,0,0.1c-0.1,0-0.2,0.1-0.3,0.1c-0.3,0-0.7,0.1-1.1,0.2c-0.2,0.1-0.3,0.1-0.5,0.1
				c-0.1,0-0.1,0-0.2,0c-0.4,0.1-0.8,0-1.1,0.1c-0.4,0.1-0.7,0.1-1,0.2c-0.2,0-0.2,0.1-0.2,0.3c0.1,0.4-0.1,0.8-0.1,1.2
				c0,0.2,0,0.4-0.1,0.6c0,0.2,0,0.3-0.1,0.5c0,0.1,0.1,0.2,0.1,0.3c0,0.2,0,0.4,0,0.6c0,0.3,0.1,0.6,0.1,1c0,0.2-0.1,0.3-0.1,0.5
				c0,0.2,0,0.4,0,0.7c0,0.1,0,0.1,0,0.2c0,0.4,0,0.9,0,1.4c0,0.1,0,0.3,0,0.3c-0.2,0.3-0.3,0-0.4,0c0,0.3,0.3,0.3,0.4,0.4
				c0.1,0,0.1,0,0.2,0c0.5-0.1,1-0.2,1.5-0.2c0.3,0,0.6,0,0.9,0c0.4,0,0.8,0.1,1.2,0.1c0.3,0.1,0.6,0.1,0.9,0.2
				c0.1,0.2,0,0.3-0.1,0.4c-0.1,0.1-0.2,0.2-0.2,0.3c-0.1,0.1-0.1,0.1-0.2,0.2c0,0,0,0.1,0,0.1v0c-0.2,0.2-0.3,0.4-0.7,0.5
				c-0.3,0.1-0.6,0-0.9,0.1c-0.7,0.2-1.4,0.1-2,0c-0.2,0-0.3,0-0.5,0c-0.1,0-0.2,0.1-0.2,0.2c0,0.1,0,0.1,0,0.1h0c0,0.3,0,0.5,0,0.7
				c0,0,0,0.1,0,0.1h0c0,0.9,0.1,1.8,0.1,2.8c0.2,0.1,0.1,0.3,0.1,0.6c0,0,0,0.1,0.1,0.1c0,0.3,0,0.6,0,0.9c0,0,0,0,0.1,0
				c0,0.1,0,0.1,0.1,0.2c0,0.3,0.1,0.6,0.1,0.9c0,0.2,0.1,0.3,0.2,0.5c0,0,0,0.1,0,0.1C43.8,49.7,43.8,49.7,43.8,49.7z M42.3,40.2
				c-0.1-0.1-0.1-0.2-0.2-0.3c0,0.1,0,0.1,0,0.1C42.2,40.2,42.2,40.2,42.3,40.2L42.3,40.2z M42.4,49.2c0,0,0.1,0.1,0.2,0.2l0,0
				c0.1,0,0.1,0.1,0.2,0.1c0,0,0-0.1,0-0.1c0,0-0.1,0-0.1,0c-0.1,0-0.1-0.1-0.1-0.1c0,0,0-0.1,0-0.1C42.6,49.2,42.5,49.2,42.4,49.2z
				 M43.6,49.6C43.6,49.5,43.6,49.5,43.6,49.6c-0.1-0.2-0.1-0.2-0.2-0.3c0,0.1-0.1,0.2-0.1,0.3C43.4,49.6,43.5,49.6,43.6,49.6z"/>
			<path class="st1" d="M52.4,37.4c0.1-0.1,0.2,0.2,0.3,0c0,0,0.1,0,0.1,0c0.2,0,0.3-0.1,0.4,0.2c0-0.1,0.1-0.1,0.1-0.1
				c0.2-0.1,0.3-0.2,0.5,0c0,0,0.1-0.1,0.2,0c0.1-0.2,0.1,0,0.2-0.1c0.2,0,0.3,0,0.5,0c0,0,0.1,0.1,0.1,0.1c0-0.2,0.1-0.2,0.2-0.2
				c0.2,0,0.4,0,0.6,0c0.3,0,0.6-0.1,0.9-0.1c0.3,0,0.7,0.1,1.1,0c0,0,0.1,0.1,0.1,0.1c0-0.1,0.1-0.1,0.1-0.1c0.5,0,1-0.1,1.5,0.4
				c0.1,0.1,0.1,0.3,0.1,0.4c0,0.2,0,0.4,0,0.6c0.1,0.6-0.2,0.6-0.4,0.6c-0.8,0.1-1.5,0.2-2.3,0.2c-0.1,0-0.2,0-0.3,0
				c-0.3,0-0.5,0-0.8,0.1c-0.2,0-0.3,0-0.4,0.1c-0.1,0-0.1,0-0.1-0.1c0,0-0.1,0-0.1-0.1c0,0,0,0.1,0,0.1c0,0,0,0.1-0.1,0.1
				c-0.5,0-0.9,0-1.5,0c0,0,0-0.1,0-0.1v0c0,0-0.1,0-0.1,0.1c0,0,0,0,0,0.1c-0.8,0-1.6,0.2-2.5,0.1c-0.3-0.1-0.7-0.1-1-0.2
				c-0.3-0.1-0.1-0.4-0.1-0.6c0-0.3,0.1-0.7,0.3-0.9c0.2-0.2,0.3-0.3,0.5-0.3c0.2,0,0.4,0,0.6-0.1c0.3,0,0.6,0,0.9,0
				C52.3,37.4,52.3,37.3,52.4,37.4z M52.4,41.9c0.1-0.2,0.2,0.2,0.3,0c0,0,0.1-0.1,0.1-0.1c0.2,0,0.3,0,0.4,0.2
				c0-0.1,0.1-0.1,0.1-0.1c0.2-0.1,0.3-0.2,0.5,0c0,0,0.1-0.1,0.2,0c0.1-0.2,0.1-0.1,0.2-0.1c0.2-0.1,0.3,0,0.5,0
				c0,0,0.1,0.1,0.1,0.2c0-0.2,0.1-0.2,0.2-0.2c0.2,0,0.4,0.1,0.6,0c0.3,0,0.6-0.1,0.9-0.1c0.3-0.1,0.7,0.1,1.1,0c0,0,0.1,0,0.1,0.1
				c0-0.1,0.1-0.1,0.1-0.1c0.5,0,1-0.2,1.5,0.3c0.1,0.1,0.1,0.3,0.1,0.4c0,0.2,0,0.4,0,0.7c0.1,0.6-0.2,0.6-0.4,0.6
				c-0.8,0.2-1.5,0.2-2.3,0.2c-0.1,0-0.2,0-0.3,0c-0.3,0-0.5,0-0.8,0c-0.2,0-0.3,0-0.4,0.1c-0.1,0-0.1,0-0.1-0.1c0,0-0.1,0-0.1-0.1
				c0,0,0,0.1,0,0.1c0,0,0,0.1-0.1,0.1c-0.5,0-0.9,0-1.5,0v0c0,0,0-0.1,0-0.1c0,0-0.1,0-0.1,0c0,0,0,0,0,0.1
				C52.7,44,51.9,44.1,51,44c-0.3,0-0.7-0.1-1-0.2c-0.3-0.1-0.1-0.4-0.1-0.6c0-0.3,0.1-0.7,0.3-0.9c0.2-0.2,0.3-0.4,0.5-0.4
				c0.2,0,0.4,0,0.6,0c0.3,0,0.6,0,0.9,0C52.3,41.8,52.3,41.8,52.4,41.9z M50.1,38.8C50.1,39,50.1,38.7,50.1,38.8l0.1-0.1
				c0,0,0-0.1,0-0.1C50.1,38.6,50.1,38.8,50.1,38.8z M50.1,43.2C50.1,43.4,50.1,43.1,50.1,43.2c0.1-0.1,0.1-0.1,0.1-0.1c0,0,0,0,0,0
				C50.1,43.1,50.1,43.2,50.1,43.2z M50.3,38.1C50.3,38.1,50.3,38.1,50.3,38.1C50.3,38.1,50.3,38.1,50.3,38.1
				C50.3,38,50.3,38.1,50.3,38.1z M50.3,42.5L50.3,42.5C50.3,42.5,50.3,42.5,50.3,42.5C50.3,42.5,50.3,42.5,50.3,42.5z M50.3,37.9
				L50.3,37.9C50.3,37.9,50.3,37.9,50.3,37.9z M50.4,38.2L50.4,38.2C50.4,38.2,50.4,38.2,50.4,38.2c-0.1,0.1-0.1,0.1-0.1,0.1
				c0,0,0,0,0,0C50.3,38.3,50.4,38.3,50.4,38.2C50.4,38.2,50.4,38.2,50.4,38.2z M50.4,42.6L50.4,42.6C50.4,42.6,50.4,42.6,50.4,42.6
				c-0.1,0.1-0.1,0.1-0.1,0.1v0C50.3,42.7,50.4,42.7,50.4,42.6C50.4,42.6,50.4,42.6,50.4,42.6z M50.5,38.3
				C50.5,38.2,50.5,38.2,50.5,38.3c0-0.1,0-0.1,0-0.1C50.5,38.1,50.5,38.1,50.5,38.3C50.5,38.2,50.5,38.2,50.5,38.3z M50.5,42.7
				L50.5,42.7c0-0.1,0-0.1,0-0.1C50.5,42.6,50.5,42.6,50.5,42.7C50.5,42.6,50.5,42.6,50.5,42.7z M50.6,37.8c0-0.1-0.1-0.1-0.1-0.2
				C50.6,37.7,50.5,37.7,50.6,37.8C50.5,37.7,50.6,37.8,50.6,37.8C50.6,37.8,50.6,37.8,50.6,37.8z M50.6,42.2c0,0-0.1-0.1-0.1-0.1
				L50.6,42.2C50.5,42.2,50.6,42.2,50.6,42.2C50.6,42.2,50.6,42.2,50.6,42.2z M50.8,37.9C50.9,37.9,50.8,37.9,50.8,37.9
				c0-0.1,0-0.2,0-0.2c0,0-0.1-0.1-0.1,0.1C50.7,38,50.7,37.9,50.8,37.9L50.8,37.9z M50.8,42.4C50.9,42.4,50.8,42.3,50.8,42.4
				c0-0.1,0-0.2,0-0.2c0,0-0.1-0.1-0.1,0.1C50.7,42.5,50.7,42.4,50.8,42.4L50.8,42.4z M50.7,37.6L50.7,37.6
				C50.7,37.6,50.7,37.6,50.7,37.6L50.7,37.6C50.7,37.7,50.7,37.6,50.7,37.6z M50.7,42L50.7,42L50.7,42C50.7,42,50.7,42.1,50.7,42
				C50.7,42.1,50.7,42.1,50.7,42z M50.8,38.8L50.8,38.8C50.8,38.9,50.8,38.9,50.8,38.8C50.8,38.9,50.8,38.9,50.8,38.8z M50.8,43.3
				C50.8,43.3,50.8,43.3,50.8,43.3L50.8,43.3z M50.9,38C50.9,38,50.9,38,50.9,38C50.9,38,50.9,38,50.9,38C50.9,38,50.9,38,50.9,38z
				 M50.9,42.5C50.9,42.5,50.9,42.5,50.9,42.5C50.9,42.5,50.9,42.5,50.9,42.5C50.9,42.4,50.9,42.4,50.9,42.5L50.9,42.5z M51,37.6
				C51,37.6,51,37.5,51,37.6l-0.1,0C50.9,37.7,51,37.7,51,37.6C51,37.6,51,37.6,51,37.6z M51,42C51,42,51,42,51,42
				c-0.1-0.1-0.1,0-0.1,0C50.9,42.1,51,42.1,51,42L51,42z M51.1,37.5C51.1,37.5,51.1,37.5,51.1,37.5C51.1,37.5,51.1,37.5,51.1,37.5
				C51.1,37.6,51.1,37.5,51.1,37.5C51.1,37.5,51.1,37.5,51.1,37.5z M51.1,37.7C51.1,37.7,51.1,37.7,51.1,37.7
				C51.1,37.7,51.1,37.7,51.1,37.7S51.1,37.7,51.1,37.7z M51.1,41.9C51.1,41.9,51.1,41.9,51.1,41.9C51.1,42,51.1,42,51.1,41.9
				C51.1,42,51.1,42,51.1,41.9C51.1,42,51.1,41.9,51.1,41.9z M51.1,42.2L51.1,42.2C51.1,42.1,51.1,42.1,51.1,42.2
				C51.1,42.1,51.1,42.1,51.1,42.2z M51.2,37.9C51.2,37.9,51.2,37.9,51.2,37.9C51.1,37.9,51.1,37.9,51.2,37.9
				C51.1,37.9,51.1,38,51.2,37.9C51.2,38,51.2,38,51.2,37.9z M51.2,42.4C51.2,42.4,51.2,42.4,51.2,42.4
				C51.1,42.4,51.1,42.4,51.2,42.4C51.2,42.4,51.2,42.4,51.2,42.4z M51.2,42.4C51.2,42.4,51.2,42.4,51.2,42.4L51.2,42.4z M51.3,37.7
				C51.3,37.7,51.3,37.7,51.3,37.7C51.3,37.6,51.3,37.6,51.3,37.7C51.3,37.6,51.3,37.6,51.3,37.7C51.3,37.7,51.3,37.7,51.3,37.7z
				 M51.3,38C51.3,38,51.3,38,51.3,38C51.3,38,51.3,38,51.3,38C51.3,38,51.3,38,51.3,38z M51.3,42.1C51.3,42.1,51.3,42.1,51.3,42.1
				L51.3,42.1C51.3,42,51.3,42,51.3,42.1C51.3,42.1,51.3,42.1,51.3,42.1z M51.3,42.5C51.3,42.5,51.3,42.5,51.3,42.5
				C51.3,42.5,51.3,42.5,51.3,42.5S51.3,42.4,51.3,42.5z M51.3,37.9C51.3,37.8,51.3,37.8,51.3,37.9C51.3,37.8,51.3,37.8,51.3,37.9
				L51.3,37.9L51.3,37.9z M51.3,38.3C51.3,38.3,51.3,38.3,51.3,38.3L51.3,38.3z M51.3,42.3C51.3,42.3,51.3,42.3,51.3,42.3
				C51.3,42.3,51.3,42.3,51.3,42.3C51.3,42.3,51.3,42.3,51.3,42.3C51.3,42.3,51.3,42.3,51.3,42.3z M51.4,37.5
				C51.3,37.5,51.3,37.5,51.4,37.5C51.3,37.5,51.3,37.5,51.4,37.5C51.3,37.5,51.3,37.5,51.4,37.5z M51.4,41.9
				C51.3,41.9,51.3,41.9,51.4,41.9C51.3,41.9,51.3,41.9,51.4,41.9z M51.3,42.6L51.3,42.6L51.3,42.6z M51.4,37.8
				C51.4,37.8,51.4,37.8,51.4,37.8c0.1-0.1,0-0.2,0-0.1C51.4,37.7,51.4,37.7,51.4,37.8C51.4,37.8,51.4,37.8,51.4,37.8z M51.4,42.3
				c0-0.1,0.1-0.1,0.1-0.1l0,0C51.4,42.1,51.4,42.1,51.4,42.3C51.4,42.2,51.4,42.2,51.4,42.3z M51.4,42C51.4,42,51.4,42,51.4,42
				L51.4,42z M51.5,37.8L51.5,37.8C51.5,37.8,51.5,37.8,51.5,37.8L51.5,37.8z M51.4,39.4C51.4,39.4,51.5,39.4,51.4,39.4
				C51.5,39.4,51.5,39.4,51.4,39.4z M51.5,42.3C51.5,42.3,51.5,42.3,51.5,42.3C51.5,42.2,51.5,42.2,51.5,42.3L51.5,42.3z M51.4,43.8
				L51.4,43.8C51.4,43.8,51.5,43.8,51.4,43.8C51.5,43.8,51.5,43.8,51.4,43.8z M51.5,43.9C51.5,43.9,51.5,43.9,51.5,43.9L51.5,43.9z
				 M51.6,37.8c0,0,0,0.1-0.1,0.1c0,0,0.1,0,0.1,0c0,0,0,0,0,0C51.6,37.9,51.6,37.8,51.6,37.8z M51.6,42.2c0,0,0,0.1-0.1,0.1
				c0,0,0.1,0,0.1,0c0,0,0,0,0,0C51.6,42.3,51.6,42.3,51.6,42.2z M51.6,38.9L51.6,38.9L51.6,38.9z M51.6,43.3L51.6,43.3
				C51.6,43.3,51.6,43.3,51.6,43.3L51.6,43.3z M51.7,37.8L51.7,37.8C51.6,37.8,51.6,37.8,51.7,37.8C51.7,37.8,51.7,37.8,51.7,37.8z
				 M51.7,42.2C51.7,42.2,51.6,42.2,51.7,42.2C51.6,42.2,51.6,42.2,51.7,42.2C51.7,42.3,51.7,42.2,51.7,42.2L51.7,42.2z M51.7,37.7
				C51.7,37.7,51.7,37.7,51.7,37.7C51.7,37.7,51.7,37.8,51.7,37.7C51.7,37.8,51.7,37.7,51.7,37.7C51.7,37.7,51.7,37.7,51.7,37.7z
				 M51.7,42.1C51.7,42.1,51.7,42.1,51.7,42.1C51.7,42.1,51.7,42.2,51.7,42.1C51.7,42.2,51.7,42.2,51.7,42.1
				C51.7,42.1,51.7,42.1,51.7,42.1z M51.8,37.5C51.8,37.5,51.8,37.5,51.8,37.5C51.8,37.5,51.8,37.6,51.8,37.5L51.8,37.5
				C51.8,37.5,51.8,37.5,51.8,37.5z M51.8,41.9C51.8,41.9,51.8,42,51.8,41.9C51.8,42,51.8,42,51.8,41.9C51.8,42,51.8,42,51.8,41.9
				L51.8,41.9z M51.8,42.4L51.8,42.4L51.8,42.4z M51.9,37.9L51.9,37.9L51.9,37.9C51.9,37.9,51.9,38,51.9,37.9
				C51.9,38,51.9,37.9,51.9,37.9z M51.9,42.4C51.9,42.4,51.9,42.4,51.9,42.4C51.9,42.4,51.9,42.4,51.9,42.4
				C51.9,42.4,51.9,42.4,51.9,42.4C51.9,42.4,51.9,42.4,51.9,42.4z M52,37.7L52,37.7C52,37.6,52,37.7,52,37.7
				C51.9,37.7,52,37.7,52,37.7C52,37.7,52,37.7,52,37.7z M52,42.1L52,42.1C52,42.1,52,42.1,52,42.1L52,42.1C52,42.1,52,42.1,52,42.1
				z M52.1,37.6L52.1,37.6C52,37.5,52,37.6,52.1,37.6C52,37.6,52,37.6,52.1,37.6C52.1,37.6,52.1,37.6,52.1,37.6z M52.1,38.2
				L52.1,38.2C52,38.2,52,38.2,52.1,38.2C52.1,38.2,52.1,38.2,52.1,38.2z M52.1,42C52,42,52,42,52.1,42C52,42,52,42,52.1,42
				C52.1,42,52.1,42,52.1,42z M52.1,42.6L52.1,42.6L52.1,42.6C52,42.6,52,42.6,52.1,42.6C52.1,42.6,52.1,42.6,52.1,42.6z M52.1,38.1
				C52.1,38.1,52.1,38.1,52.1,38.1c0-0.1,0-0.1,0-0.2c0,0,0,0,0,0C52.1,38,52.1,38.1,52.1,38.1z M52.1,42.6L52.1,42.6
				c0-0.1,0-0.1,0-0.2l0,0C52.1,42.5,52.1,42.5,52.1,42.6z M52.4,37.7c-0.1,0-0.2-0.1-0.2-0.2c0,0,0,0,0,0.1
				c0.1,0.1,0.1,0.1,0.2,0.2C52.3,37.7,52.3,37.7,52.4,37.7z M52.4,42.1C52.3,42,52.2,42,52.1,42l0,0C52.2,42,52.2,42.1,52.4,42.1
				C52.3,42.2,52.3,42.1,52.4,42.1z M52.2,38.3L52.2,38.3L52.2,38.3C52.1,38.3,52.1,38.3,52.2,38.3C52.2,38.3,52.2,38.3,52.2,38.3z
				 M52.2,42.7L52.2,42.7L52.2,42.7C52.2,42.8,52.2,42.8,52.2,42.7z M52.2,38.3L52.2,38.3C52.2,38.3,52.2,38.3,52.2,38.3
				C52.2,38.3,52.2,38.3,52.2,38.3C52.2,38.3,52.2,38.3,52.2,38.3z M52.2,42.7L52.2,42.7C52.2,42.8,52.2,42.8,52.2,42.7
				C52.2,42.7,52.2,42.7,52.2,42.7z M52.3,37.9C52.3,38,52.3,38,52.3,37.9L52.3,37.9C52.3,38,52.3,38,52.3,37.9
				C52.3,38,52.3,37.9,52.3,37.9z M52.3,42.4C52.3,42.4,52.3,42.4,52.3,42.4L52.3,42.4C52.3,42.4,52.3,42.4,52.3,42.4
				C52.3,42.4,52.3,42.4,52.3,42.4z M52.3,38.7C52.3,38.7,52.3,38.7,52.3,38.7S52.3,38.7,52.3,38.7z M52.4,37.8L52.4,37.8L52.4,37.8
				z M52.5,37.6C52.4,37.6,52.4,37.6,52.5,37.6L52.5,37.6c0,0.1,0,0.1,0.1,0.1C52.5,37.7,52.5,37.6,52.5,37.6
				C52.5,37.6,52.5,37.6,52.5,37.6z M52.5,42C52.4,42,52.4,42,52.5,42L52.5,42C52.4,42,52.5,42.1,52.5,42C52.5,42.1,52.5,42,52.5,42
				C52.5,42,52.5,42,52.5,42z M52.5,38.3L52.5,38.3L52.5,38.3C52.4,38.3,52.4,38.3,52.5,38.3L52.5,38.3z M52.5,42.7
				C52.5,42.7,52.5,42.7,52.5,42.7L52.5,42.7C52.4,42.7,52.4,42.7,52.5,42.7C52.5,42.7,52.5,42.7,52.5,42.7z M52.5,37.9
				C52.5,37.9,52.5,37.9,52.5,37.9S52.5,37.9,52.5,37.9z M52.5,38.4C52.5,38.4,52.5,38.4,52.5,38.4C52.5,38.4,52.5,38.4,52.5,38.4
				C52.5,38.4,52.5,38.4,52.5,38.4S52.5,38.4,52.5,38.4C52.5,38.3,52.5,38.3,52.5,38.4C52.5,38.3,52.5,38.3,52.5,38.4
				C52.5,38.4,52.5,38.4,52.5,38.4z M52.5,42.3C52.5,42.3,52.5,42.3,52.5,42.3S52.5,42.3,52.5,42.3z M52.5,42.8
				C52.5,42.8,52.5,42.8,52.5,42.8C52.5,42.8,52.5,42.9,52.5,42.8C52.5,42.8,52.5,42.8,52.5,42.8C52.5,42.8,52.5,42.8,52.5,42.8
				C52.5,42.8,52.5,42.8,52.5,42.8C52.5,42.8,52.5,42.8,52.5,42.8C52.5,42.8,52.5,42.8,52.5,42.8C52.5,42.8,52.5,42.8,52.5,42.8
				C52.5,42.8,52.5,42.8,52.5,42.8z M52.6,38.9L52.6,38.9C52.6,38.9,52.6,38.8,52.6,38.9C52.5,38.8,52.5,38.8,52.6,38.9
				C52.5,38.9,52.5,38.9,52.6,38.9z M52.6,43.3C52.6,43.3,52.6,43.3,52.6,43.3C52.6,43.3,52.6,43.2,52.6,43.3
				C52.5,43.2,52.5,43.2,52.6,43.3C52.5,43.3,52.5,43.3,52.6,43.3z M52.6,37.4C52.6,37.4,52.6,37.4,52.6,37.4
				C52.6,37.4,52.6,37.4,52.6,37.4C52.6,37.4,52.6,37.4,52.6,37.4z M52.6,41.8C52.6,41.9,52.6,41.9,52.6,41.8
				C52.6,41.9,52.6,41.9,52.6,41.8L52.6,41.8L52.6,41.8z M52.6,38.3C52.6,38.3,52.6,38.3,52.6,38.3L52.6,38.3
				C52.6,38.3,52.6,38.3,52.6,38.3C52.6,38.3,52.6,38.3,52.6,38.3z M52.6,42.7C52.6,42.7,52.6,42.7,52.6,42.7
				C52.6,42.7,52.6,42.7,52.6,42.7C52.6,42.8,52.6,42.7,52.6,42.7C52.6,42.7,52.6,42.7,52.6,42.7z M52.6,42.6L52.6,42.6L52.6,42.6z
				 M52.6,43.7L52.6,43.7L52.6,43.7z M52.8,37.5L52.8,37.5C52.7,37.5,52.7,37.5,52.8,37.5C52.7,37.5,52.8,37.5,52.8,37.5z M52.7,38
				C52.7,38,52.7,38,52.7,38C52.7,38.1,52.7,38,52.7,38C52.7,38,52.7,38,52.7,38z M52.8,41.9C52.8,41.9,52.7,41.9,52.8,41.9
				L52.8,41.9L52.8,41.9C52.7,41.9,52.8,41.9,52.8,41.9z M52.7,42.4L52.7,42.4L52.7,42.4C52.7,42.5,52.7,42.5,52.7,42.4
				C52.7,42.5,52.7,42.4,52.7,42.4z M52.8,39C52.8,39,52.8,39,52.8,39C52.8,39,52.8,39,52.8,39C52.8,39,52.8,39,52.8,39
				C52.8,39,52.8,39,52.8,39z M52.8,43.4C52.8,43.4,52.8,43.4,52.8,43.4C52.8,43.4,52.8,43.5,52.8,43.4
				C52.8,43.5,52.8,43.4,52.8,43.4C52.8,43.4,52.8,43.4,52.8,43.4z M52.9,37.9L52.9,37.9C52.9,37.8,52.9,37.9,52.9,37.9
				C52.9,37.9,52.9,37.9,52.9,37.9C52.9,37.9,52.9,37.9,52.9,37.9z M52.9,39C52.9,39,52.9,39,52.9,39L52.9,39L52.9,39z M52.9,42.3
				C52.9,42.3,52.9,42.3,52.9,42.3C52.9,42.3,52.9,42.3,52.9,42.3C52.9,42.3,52.9,42.4,52.9,42.3C52.9,42.4,52.9,42.3,52.9,42.3z
				 M52.9,43.4C52.9,43.4,52.9,43.4,52.9,43.4C52.9,43.4,52.9,43.4,52.9,43.4C52.9,43.4,52.9,43.4,52.9,43.4z M52.9,38.8
				C52.9,38.8,52.9,38.8,52.9,38.8C52.9,38.9,53,38.9,52.9,38.8c0,0.1,0,0.2,0,0.2C53,38.9,53,38.9,52.9,38.8
				C53,38.9,53,38.8,52.9,38.8C52.9,38.8,52.9,38.8,52.9,38.8C53,38.8,53,38.8,52.9,38.8C53,38.8,53,38.8,52.9,38.8z M52.9,43.2
				C52.9,43.2,52.9,43.2,52.9,43.2c0,0.1,0,0.1,0,0.1c0,0,0,0,0,0.1C53,43.4,53,43.3,52.9,43.2C53,43.3,53,43.3,52.9,43.2
				C52.9,43.2,52.9,43.2,52.9,43.2C53,43.2,53,43.2,52.9,43.2C53,43.2,53,43.2,52.9,43.2z M53,38.3L53,38.3C53,38.3,53,38.3,53,38.3
				C53,38.3,53,38.3,53,38.3S53,38.3,53,38.3z M53,38.9L53,38.9L53,38.9z M53,42.7C53,42.7,53,42.7,53,42.7C53,42.7,53,42.7,53,42.7
				L53,42.7L53,42.7z M53,43.3C53,43.3,53,43.3,53,43.3C53,43.3,53,43.3,53,43.3z M53.1,37.5L53.1,37.5C53,37.5,53,37.6,53.1,37.5
				C53,37.6,53,37.6,53.1,37.5z M53,37.8C53,37.8,53,37.9,53,37.8c0,0.1,0,0.2,0,0.3c0,0,0,0,0,0c0,0,0,0,0-0.1
				C53,37.9,53,37.9,53,37.8z M53.1,39.1C53,39.1,53,39.1,53.1,39.1c0,0.1,0,0.1,0,0.1C53.1,39.2,53.1,39.2,53.1,39.1
				C53.1,39.1,53.1,39.1,53.1,39.1z M53.1,42L53.1,42C53,42,53,42,53.1,42L53.1,42C53,42,53,42,53.1,42z M53,42.3
				C53,42.3,53,42.3,53,42.3c0,0.1,0,0.2,0,0.3c0,0,0,0,0,0c0,0,0-0.1,0-0.1C53,42.4,53,42.3,53,42.3z M53.1,43.6
				C53,43.6,53,43.6,53.1,43.6C53,43.6,53,43.7,53.1,43.6C53.1,43.7,53.1,43.6,53.1,43.6C53.1,43.6,53.1,43.6,53.1,43.6z M53.1,38.7
				L53.1,38.7C53.1,38.7,53,38.7,53.1,38.7C53,38.8,53,38.8,53.1,38.7C53.1,38.8,53.1,38.7,53.1,38.7z M53.1,43.2
				C53.1,43.1,53.1,43.1,53.1,43.2C53.1,43.1,53,43.2,53.1,43.2C53,43.2,53,43.2,53.1,43.2C53.1,43.2,53.1,43.2,53.1,43.2z
				 M53.1,43.8C53.1,43.8,53.1,43.8,53.1,43.8S53.1,43.8,53.1,43.8z M53.1,38.3C53.1,38.3,53.1,38.3,53.1,38.3L53.1,38.3z
				 M53.1,37.9C53.1,37.9,53.2,37.9,53.1,37.9c0.1-0.1,0.1-0.2,0-0.2C53.1,37.7,53.1,37.8,53.1,37.9C53.1,37.9,53.1,37.9,53.1,37.9
				C53.1,37.9,53.1,37.9,53.1,37.9z M53.1,42.4C53.1,42.3,53.2,42.3,53.1,42.4c0.1-0.2,0.1-0.3,0-0.3C53.1,42.1,53.1,42.3,53.1,42.4
				C53.1,42.4,53.1,42.4,53.1,42.4S53.1,42.4,53.1,42.4z M53.2,38.5C53.2,38.5,53.2,38.5,53.2,38.5C53.2,38.6,53.2,38.6,53.2,38.5
				C53.2,38.6,53.2,38.6,53.2,38.5z M53.2,43C53.2,43,53.2,43,53.2,43L53.2,43C53.2,43,53.2,43,53.2,43C53.2,43,53.2,43,53.2,43z
				 M53.3,37.7L53.3,37.7C53.3,37.6,53.3,37.7,53.3,37.7C53.2,37.7,53.3,37.7,53.3,37.7S53.3,37.7,53.3,37.7z M53.3,38.3
				c0.1,0,0.1,0,0.2-0.1c0.1-0.1,0.2-0.2,0.1-0.4c0,0,0,0,0-0.1c0,0.1,0,0.2,0,0.3c0,0-0.1,0-0.1,0.1c0-0.1,0-0.1,0-0.1
				c0.1-0.1,0-0.1,0-0.1c-0.1,0-0.2,0-0.2,0.2c0,0,0,0.1,0,0.1C53.2,38.2,53.2,38.3,53.3,38.3z M53.3,38.9
				C53.3,38.9,53.2,38.8,53.3,38.9L53.3,38.9C53.2,38.9,53.2,38.9,53.3,38.9C53.3,38.9,53.3,38.9,53.3,38.9z M53.4,39.4
				C53.4,39.3,53.4,39.3,53.4,39.4c0-0.1-0.1-0.1-0.1-0.1C53.3,39.3,53.3,39.3,53.4,39.4z M53.3,42.1C53.3,42.1,53.3,42.1,53.3,42.1
				L53.3,42.1C53.3,42.1,53.3,42.1,53.3,42.1z M53.3,42.7c0.1,0,0.1-0.1,0.2-0.1c0.1-0.1,0.2-0.2,0.1-0.4v0c0,0.1,0,0.2,0,0.3v0
				c0,0-0.1,0-0.1,0.1c0,0,0-0.1,0-0.1c0.1-0.1,0-0.1,0-0.1c-0.1,0-0.2,0-0.2,0.2c0,0.1,0,0.1,0,0.2C53.2,42.7,53.2,42.7,53.3,42.7z
				 M53.3,43.3C53.3,43.3,53.2,43.2,53.3,43.3C53.2,43.2,53.2,43.2,53.3,43.3C53.2,43.3,53.2,43.3,53.3,43.3L53.3,43.3z M53.2,43.7
				c0.1,0,0.1,0.1,0.1,0.1c0,0,0-0.1,0-0.1C53.3,43.7,53.3,43.7,53.2,43.7L53.2,43.7z M53.2,43.7L53.2,43.7L53.2,43.7z M53.3,37.5
				C53.3,37.5,53.3,37.5,53.3,37.5L53.3,37.5C53.3,37.5,53.3,37.5,53.3,37.5z M53.3,42L53.3,42C53.3,41.9,53.3,41.9,53.3,42L53.3,42
				z M53.3,37.6C53.3,37.6,53.3,37.6,53.3,37.6C53.3,37.6,53.3,37.6,53.3,37.6C53.4,37.6,53.4,37.6,53.3,37.6
				c0.1,0.1,0.1,0.1,0.2,0.1c0,0,0.1-0.1,0.1-0.1c-0.1-0.1-0.2-0.1-0.3-0.1C53.3,37.5,53.3,37.5,53.3,37.6
				C53.3,37.6,53.3,37.6,53.3,37.6z M53.3,38.1C53.3,38.2,53.3,38.2,53.3,38.1C53.4,38.2,53.4,38.2,53.3,38.1
				C53.4,38.1,53.4,38.1,53.3,38.1C53.3,38.1,53.3,38.1,53.3,38.1z M53.4,38.8C53.4,38.7,53.4,38.7,53.4,38.8L53.4,38.8
				C53.3,38.7,53.4,38.8,53.4,38.8C53.4,38.8,53.4,38.8,53.4,38.8z M53.3,42L53.3,42C53.3,42,53.3,42,53.3,42
				C53.4,42,53.4,42,53.3,42c0.1,0.1,0.1,0.1,0.2,0.1c0,0,0.1-0.1,0.1-0.1c-0.1-0.1-0.2-0.1-0.3-0.1C53.3,41.9,53.3,42,53.3,42
				C53.3,42,53.3,42,53.3,42z M53.4,42.6C53.4,42.6,53.4,42.6,53.4,42.6L53.4,42.6C53.3,42.6,53.3,42.6,53.4,42.6
				C53.4,42.6,53.4,42.6,53.4,42.6z M53.4,43.2C53.4,43.2,53.4,43.1,53.4,43.2L53.4,43.2C53.3,43.2,53.4,43.2,53.4,43.2
				C53.4,43.2,53.4,43.2,53.4,43.2z M53.5,38.4C53.5,38.4,53.5,38.4,53.5,38.4C53.5,38.5,53.5,38.5,53.5,38.4
				C53.5,38.5,53.5,38.5,53.5,38.4z M53.5,42.9C53.5,42.9,53.5,42.9,53.5,42.9C53.5,42.9,53.5,42.9,53.5,42.9L53.5,42.9L53.5,42.9
				C53.5,42.9,53.5,42.9,53.5,42.9z M53.6,37.5C53.6,37.4,53.6,37.4,53.6,37.5C53.6,37.4,53.6,37.4,53.6,37.5
				C53.6,37.4,53.6,37.5,53.6,37.5C53.6,37.5,53.7,37.5,53.6,37.5C53.7,37.5,53.6,37.5,53.6,37.5z M53.6,41.9
				C53.6,41.9,53.6,41.9,53.6,41.9C53.6,41.8,53.6,41.8,53.6,41.9C53.6,41.9,53.6,41.9,53.6,41.9L53.6,41.9L53.6,41.9z M53.6,42.4
				L53.6,42.4L53.6,42.4z M53.7,37.5L53.7,37.5C53.7,37.6,53.7,37.6,53.7,37.5L53.7,37.5z M53.8,38L53.8,38C53.7,38,53.7,38,53.8,38
				C53.7,38,53.7,38.1,53.8,38C53.7,38.1,53.8,38.1,53.8,38z M53.7,42L53.7,42C53.7,42,53.7,42,53.7,42z M53.8,42.5
				C53.8,42.5,53.7,42.4,53.8,42.5C53.7,42.5,53.7,42.5,53.8,42.5C53.7,42.5,53.7,42.5,53.8,42.5L53.8,42.5z M53.8,37.9
				c0.1-0.2-0.1,0-0.1-0.2h0C53.7,37.8,53.7,37.9,53.8,37.9C53.8,37.9,53.8,37.9,53.8,37.9z M53.8,42.4c0.1-0.2-0.1,0-0.1-0.2l0,0
				C53.7,42.2,53.7,42.3,53.8,42.4C53.8,42.4,53.8,42.4,53.8,42.4z M54,37.5C54,37.5,53.9,37.4,54,37.5c-0.1,0-0.1,0-0.1,0.1
				c0,0,0,0,0.1,0.1C53.9,37.6,53.9,37.5,54,37.5z M54,41.9L54,41.9c-0.1,0-0.1,0-0.1,0.1c0,0,0,0.1,0.1,0.1
				C53.9,42,53.9,42,54,41.9z M53.9,37.8C53.9,37.8,53.9,37.8,53.9,37.8c0.1,0,0.1,0,0.1,0c0,0,0,0,0-0.1C54,37.8,54,37.8,53.9,37.8
				C53.9,37.8,53.9,37.8,53.9,37.8z M53.9,38.5C53.9,38.5,53.9,38.5,53.9,38.5C53.9,38.5,53.9,38.5,53.9,38.5z M53.9,42.2
				C53.9,42.2,53.9,42.3,53.9,42.2c0.1,0.1,0.1,0,0.1,0c0,0,0,0,0-0.1C54,42.2,54,42.2,53.9,42.2C53.9,42.2,53.9,42.2,53.9,42.2z
				 M54.1,38.5C54.1,38.5,54,38.5,54.1,38.5C54,38.5,54,38.5,54.1,38.5C54,38.5,54,38.5,54.1,38.5L54.1,38.5z M54,42.6L54,42.6
				L54,42.6z M54.1,43C54.1,43,54,42.9,54.1,43L54.1,43C54,43,54,43,54.1,43C54,43,54.1,43,54.1,43z M54.1,37.6
				C54.1,37.5,54.1,37.5,54.1,37.6C54,37.5,54,37.5,54.1,37.6C54,37.6,54.1,37.6,54.1,37.6S54.1,37.6,54.1,37.6z M54.1,42
				C54.1,42,54.1,42,54.1,42C54,42,54,42,54.1,42C54,42,54.1,42,54.1,42L54.1,42z M54.2,37.7L54.2,37.7c-0.1,0,0,0.3-0.1,0.3
				c0,0,0.1,0,0.1,0.1C54.3,38,54.2,37.8,54.2,37.7z M54.2,42.1L54.2,42.1c-0.1,0,0,0.3-0.1,0.4c0,0,0.1,0,0.1,0
				C54.3,42.4,54.2,42.2,54.2,42.1z M54.2,39.1C54.2,39,54.2,39,54.2,39.1L54.2,39.1C54.1,39.1,54.1,39.1,54.2,39.1z M54.2,43.5
				C54.2,43.5,54.2,43.5,54.2,43.5C54.2,43.5,54.1,43.5,54.2,43.5C54.1,43.5,54.1,43.5,54.2,43.5z M54.3,38.4
				C54.2,38.4,54.2,38.4,54.3,38.4C54.2,38.4,54.2,38.4,54.3,38.4C54.2,38.4,54.2,38.4,54.3,38.4L54.3,38.4z M54.2,42.8L54.2,42.8
				C54.2,42.8,54.2,42.8,54.2,42.8C54.2,42.8,54.2,42.8,54.2,42.8z M54.2,39.1C54.2,39.1,54.2,39.1,54.2,39.1
				C54.2,39.1,54.2,39.1,54.2,39.1C54.2,39.1,54.2,39.1,54.2,39.1z M54.2,43.5L54.2,43.5C54.2,43.5,54.2,43.5,54.2,43.5
				C54.2,43.5,54.2,43.5,54.2,43.5C54.2,43.5,54.2,43.5,54.2,43.5z M54.3,37.8C54.3,37.8,54.3,37.7,54.3,37.8
				C54.3,37.7,54.3,37.8,54.3,37.8C54.3,37.8,54.3,37.8,54.3,37.8C54.3,37.8,54.3,37.8,54.3,37.8z M54.3,38.4L54.3,38.4L54.3,38.4z
				 M54.3,38.9C54.3,38.9,54.3,38.9,54.3,38.9L54.3,38.9C54.3,38.9,54.3,38.9,54.3,38.9S54.3,38.9,54.3,38.9z M54.3,42.2
				C54.3,42.2,54.3,42.1,54.3,42.2C54.3,42.2,54.3,42.2,54.3,42.2C54.3,42.2,54.3,42.2,54.3,42.2C54.3,42.2,54.3,42.2,54.3,42.2z
				 M54.3,42.8C54.3,42.8,54.3,42.8,54.3,42.8S54.3,42.8,54.3,42.8z M54.3,43.3L54.3,43.3L54.3,43.3z M54.3,39.1
				C54.3,39.1,54.3,39.1,54.3,39.1C54.3,39.1,54.3,39.1,54.3,39.1z M54.3,43.5C54.3,43.5,54.3,43.5,54.3,43.5
				C54.3,43.5,54.3,43.5,54.3,43.5z M54.4,38.6L54.4,38.6C54.3,38.6,54.3,38.6,54.4,38.6C54.3,38.6,54.3,38.6,54.4,38.6
				C54.4,38.6,54.4,38.6,54.4,38.6z M54.3,38.8L54.3,38.8L54.3,38.8L54.3,38.8C54.3,38.8,54.3,38.8,54.3,38.8z M54.4,43.1
				C54.4,43.1,54.4,43,54.4,43.1C54.3,43,54.3,43,54.4,43.1C54.3,43.1,54.3,43.1,54.4,43.1C54.4,43.1,54.4,43.1,54.4,43.1z
				 M54.3,43.2C54.3,43.2,54.3,43.2,54.3,43.2L54.3,43.2C54.3,43.2,54.3,43.2,54.3,43.2z M54.4,38.3L54.4,38.3
				C54.3,38.4,54.3,38.4,54.4,38.3C54.4,38.4,54.4,38.4,54.4,38.3z M54.4,42.8L54.4,42.8L54.4,42.8C54.3,42.8,54.3,42.8,54.4,42.8
				C54.4,42.8,54.4,42.8,54.4,42.8z M54.4,37.6C54.4,37.6,54.4,37.6,54.4,37.6L54.4,37.6C54.4,37.7,54.4,37.7,54.4,37.6
				C54.4,37.7,54.4,37.7,54.4,37.6z M54.4,42.1C54.4,42,54.4,42,54.4,42.1C54.4,42,54.4,42,54.4,42.1C54.4,42.1,54.4,42.1,54.4,42.1
				C54.4,42.1,54.4,42.1,54.4,42.1z M54.4,37.7C54.4,37.7,54.4,37.8,54.4,37.7C54.5,37.8,54.5,37.7,54.4,37.7
				C54.5,37.7,54.5,37.7,54.4,37.7L54.4,37.7z M54.4,38.8C54.4,38.8,54.4,38.8,54.4,38.8L54.4,38.8L54.4,38.8
				C54.4,38.8,54.4,38.8,54.4,38.8z M54.4,42.1C54.4,42.2,54.4,42.2,54.4,42.1C54.5,42.2,54.5,42.2,54.4,42.1
				C54.5,42.1,54.5,42.1,54.4,42.1C54.4,42.1,54.4,42.1,54.4,42.1z M54.4,43.2C54.4,43.2,54.4,43.2,54.4,43.2
				C54.4,43.2,54.4,43.2,54.4,43.2C54.4,43.2,54.4,43.2,54.4,43.2z M54.5,38.1C54.5,38.1,54.5,38.1,54.5,38.1
				C54.5,38.1,54.5,38.1,54.5,38.1L54.5,38.1z M54.5,38.6C54.5,38.6,54.5,38.6,54.5,38.6C54.5,38.6,54.5,38.6,54.5,38.6
				C54.5,38.6,54.5,38.6,54.5,38.6z M54.5,42.6C54.5,42.6,54.5,42.6,54.5,42.6C54.5,42.6,54.5,42.5,54.5,42.6
				C54.5,42.6,54.5,42.6,54.5,42.6z M54.5,43.1C54.5,43,54.5,43,54.5,43.1L54.5,43.1C54.5,43.1,54.5,43.1,54.5,43.1L54.5,43.1z
				 M54.5,37.6L54.5,37.6c0-0.1,0-0.1,0-0.1C54.5,37.5,54.5,37.6,54.5,37.6z M54.5,38.1L54.5,38.1C54.5,38.1,54.5,38.1,54.5,38.1z
				 M54.5,42L54.5,42c0,0,0-0.1,0-0.1C54.5,42,54.5,42,54.5,42z M54.5,42.2L54.5,42.2L54.5,42.2z M54.6,38.6L54.6,38.6L54.6,38.6z
				 M54.6,43C54.6,43,54.6,43,54.6,43L54.6,43z M54.7,37.5C54.7,37.5,54.7,37.5,54.7,37.5L54.7,37.5C54.6,37.5,54.7,37.5,54.7,37.5z
				 M54.7,38.2C54.7,38.2,54.7,38.2,54.7,38.2C54.7,38.2,54.6,38.2,54.7,38.2L54.7,38.2z M54.7,42C54.7,42,54.7,41.9,54.7,42
				C54.6,42,54.6,42,54.7,42L54.7,42z M54.7,42.6C54.7,42.6,54.7,42.6,54.7,42.6L54.7,42.6C54.6,42.6,54.7,42.6,54.7,42.6z
				 M54.7,37.8C54.7,37.9,54.7,37.9,54.7,37.8C54.7,37.9,54.7,37.8,54.7,37.8L54.7,37.8z M54.7,38.8C54.7,38.8,54.7,38.8,54.7,38.8
				C54.7,38.7,54.7,38.8,54.7,38.8C54.7,38.8,54.7,38.8,54.7,38.8C54.7,38.8,54.7,38.8,54.7,38.8z M54.7,42.3L54.7,42.3
				C54.7,42.3,54.7,42.3,54.7,42.3L54.7,42.3z M54.7,43.2C54.7,43.2,54.7,43.2,54.7,43.2C54.7,43.2,54.7,43.2,54.7,43.2
				C54.7,43.2,54.7,43.2,54.7,43.2C54.7,43.2,54.7,43.2,54.7,43.2z M54.7,37.6L54.7,37.6L54.7,37.6L54.7,37.6
				C54.7,37.7,54.7,37.6,54.7,37.6z M54.7,38.4L54.7,38.4C54.7,38.4,54.7,38.4,54.7,38.4C54.7,38.3,54.7,38.3,54.7,38.4
				C54.7,38.4,54.7,38.4,54.7,38.4z M54.7,39.2C54.7,39.2,54.7,39.2,54.7,39.2L54.7,39.2L54.7,39.2z M54.7,42.1
				C54.7,42,54.7,42,54.7,42.1C54.7,42,54.7,42,54.7,42.1C54.7,42.1,54.7,42.1,54.7,42.1C54.7,42.1,54.7,42.1,54.7,42.1z M54.7,42.8
				L54.7,42.8C54.7,42.8,54.7,42.8,54.7,42.8L54.7,42.8z M54.7,43.6L54.7,43.6L54.7,43.6C54.7,43.6,54.7,43.6,54.7,43.6z M54.8,38.6
				C54.8,38.7,54.8,38.7,54.8,38.6c0,0.1,0,0.1,0,0.1C54.8,38.7,54.8,38.7,54.8,38.6C54.8,38.7,54.8,38.7,54.8,38.6z M54.8,39.2
				C54.8,39.2,54.8,39.2,54.8,39.2C54.8,39.2,54.8,39.2,54.8,39.2C54.8,39.2,54.8,39.2,54.8,39.2z M54.8,39.4
				C54.8,39.4,54.8,39.4,54.8,39.4C54.8,39.3,54.8,39.4,54.8,39.4C54.8,39.4,54.8,39.4,54.8,39.4z M54.8,43.1
				C54.8,43.1,54.8,43.1,54.8,43.1c0,0.1,0,0.1,0,0.1C54.8,43.2,54.8,43.2,54.8,43.1L54.8,43.1z M54.8,43.7L54.8,43.7
				C54.8,43.6,54.8,43.6,54.8,43.7C54.8,43.7,54.8,43.7,54.8,43.7C54.8,43.7,54.8,43.7,54.8,43.7z M54.8,43.8
				C54.8,43.8,54.8,43.8,54.8,43.8C54.8,43.8,54.8,43.8,54.8,43.8z M54.9,38.2c0,0,0-0.1,0-0.1L54.9,38.2
				C54.8,38.1,54.8,38.2,54.9,38.2C54.9,38.2,54.9,38.2,54.9,38.2z M54.9,42.6c0,0,0-0.1,0-0.1C54.8,42.5,54.8,42.5,54.9,42.6
				C54.8,42.6,54.8,42.6,54.9,42.6C54.9,42.6,54.9,42.6,54.9,42.6z M54.8,37.9L54.8,37.9C54.8,38,54.8,37.9,54.8,37.9L54.8,37.9z
				 M54.8,42.4L54.8,42.4C54.8,42.4,54.8,42.4,54.8,42.4C54.9,42.4,54.8,42.4,54.8,42.4z M54.9,37.4c0,0.1,0.1,0.1,0.1,0.2l0,0
				C54.9,37.4,54.9,37.4,54.9,37.4C54.9,37.4,54.9,37.4,54.9,37.4z M54.9,37.6L54.9,37.6C54.9,37.6,54.9,37.6,54.9,37.6z M54.9,39.1
				C54.9,39.1,54.9,39.1,54.9,39.1C54.9,39.1,54.9,39.1,54.9,39.1C54.9,39.1,54.9,39.1,54.9,39.1z M54.9,41.8c0,0.1,0.1,0.1,0.1,0.2
				c0,0,0,0,0-0.1C54.9,41.9,54.9,41.8,54.9,41.8C54.9,41.8,54.9,41.8,54.9,41.8z M54.9,42C54.9,42,54.9,42,54.9,42
				C54.9,42,54.9,42,54.9,42z M54.9,43.6C54.9,43.6,54.9,43.5,54.9,43.6L54.9,43.6C54.9,43.6,54.9,43.6,54.9,43.6
				C54.9,43.6,54.9,43.6,54.9,43.6z M54.9,37.9L54.9,37.9L54.9,37.9z M54.9,42.4L54.9,42.4L54.9,42.4z M54.9,43.5
				C54.9,43.6,54.9,43.6,54.9,43.5L54.9,43.5z M55,38.4C55,38.4,55,38.4,55,38.4c-0.1,0.1,0,0.2,0,0.3c0,0,0,0,0,0
				C55,38.6,55,38.5,55,38.4C55,38.4,55,38.4,55,38.4z M55,42.8C55,42.8,55,42.8,55,42.8c-0.1,0.1,0,0.2,0,0.3c0,0,0,0,0,0
				C55,43,55,43,55,42.8C55,42.9,55,42.8,55,42.8z M55,38.3C55.1,38.3,55.1,38.2,55,38.3L55,38.3C55,38.2,55,38.3,55,38.3
				C55,38.3,55,38.3,55,38.3z M55,38.3C55,38.3,55,38.3,55,38.3S55,38.3,55,38.3z M55.1,39.2C55,39.2,55,39.2,55.1,39.2
				C55,39.2,55,39.2,55.1,39.2C55,39.2,55,39.2,55.1,39.2z M55,42.3L55,42.3L55,42.3z M55.1,42.6L55.1,42.6
				C55,42.6,55,42.7,55.1,42.6C55.1,42.7,55.1,42.6,55.1,42.6z M55,43.7C55,43.7,55,43.6,55,43.7C55,43.6,55,43.6,55,43.7L55,43.7
				L55,43.7z M55.1,38C55.1,38,55.1,38,55.1,38C55.1,38,55.1,38,55.1,38C55.1,38,55.1,38,55.1,38z M55.1,42.4
				C55.1,42.4,55.1,42.4,55.1,42.4C55.1,42.4,55.1,42.4,55.1,42.4L55.1,42.4L55.1,42.4L55.1,42.4z M55.1,38.5c0-0.1,0.1-0.1,0.1-0.2
				c0,0,0-0.1,0-0.1C55.1,38.3,55.1,38.3,55.1,38.5C55.1,38.4,55.1,38.4,55.1,38.5z M55.2,39C55.2,39,55.2,39,55.2,39
				C55.1,39,55.1,39,55.2,39C55.1,39,55.1,39,55.2,39C55.2,39,55.2,39,55.2,39z M55.1,42.9c0-0.1,0.1-0.1,0.1-0.2c0,0,0-0.1,0-0.1
				C55.1,42.7,55.1,42.8,55.1,42.9C55.1,42.9,55.1,42.9,55.1,42.9z M55.2,43.4C55.2,43.4,55.2,43.4,55.2,43.4
				C55.1,43.4,55.1,43.4,55.2,43.4C55.1,43.4,55.1,43.5,55.2,43.4C55.2,43.5,55.2,43.5,55.2,43.4z M55.2,37.4L55.2,37.4
				C55.1,37.4,55.1,37.4,55.2,37.4C55.1,37.4,55.2,37.4,55.2,37.4z M55.2,37.8C55.2,37.9,55.2,37.9,55.2,37.8
				C55.1,37.9,55.1,37.9,55.2,37.8L55.2,37.8C55.1,37.9,55.1,37.9,55.2,37.8C55.2,37.9,55.2,37.9,55.2,37.8z M55.2,38
				C55.2,38,55.2,38,55.2,38C55.1,38,55.1,38,55.2,38C55.1,38,55.1,38,55.2,38z M55.2,41.9C55.2,41.9,55.2,41.8,55.2,41.9
				C55.1,41.8,55.1,41.9,55.2,41.9C55.1,41.9,55.2,41.9,55.2,41.9z M55.1,42.2C55.1,42.2,55.1,42.2,55.1,42.2
				C55.1,42.2,55.1,42.2,55.1,42.2z M55.1,42.3C55.1,42.3,55.1,42.3,55.1,42.3C55.1,42.3,55.1,42.3,55.1,42.3
				C55.1,42.3,55.1,42.3,55.1,42.3z M55.2,42.5C55.2,42.5,55.2,42.4,55.2,42.5L55.2,42.5C55.1,42.5,55.1,42.5,55.2,42.5z M55.3,42.8
				C55.3,42.9,55.3,42.9,55.3,42.8C55.3,42.9,55.3,42.9,55.3,42.8z M55.3,39.3L55.3,39.3C55.3,39.3,55.3,39.3,55.3,39.3
				S55.3,39.3,55.3,39.3S55.3,39.3,55.3,39.3z M55.3,43.8C55.3,43.8,55.3,43.8,55.3,43.8C55.3,43.8,55.3,43.8,55.3,43.8z M55.4,37.6
				C55.4,37.5,55.4,37.5,55.4,37.6L55.4,37.6C55.4,37.5,55.4,37.6,55.4,37.6L55.4,37.6z M55.4,38.3L55.4,38.3
				C55.4,38.3,55.4,38.2,55.4,38.3C55.4,38.2,55.4,38.2,55.4,38.3C55.4,38.3,55.4,38.3,55.4,38.3z M55.4,42
				C55.4,42,55.4,41.9,55.4,42L55.4,42C55.4,42,55.4,42,55.4,42C55.4,42,55.4,42,55.4,42z M55.4,42.7C55.4,42.7,55.4,42.7,55.4,42.7
				L55.4,42.7C55.4,42.6,55.4,42.6,55.4,42.7C55.4,42.7,55.4,42.7,55.4,42.7z M55.5,38.6C55.5,38.6,55.5,38.6,55.5,38.6
				C55.5,38.7,55.5,38.7,55.5,38.6C55.5,38.7,55.5,38.6,55.5,38.6z M55.5,43.1C55.5,43.1,55.5,43.1,55.5,43.1
				C55.5,43.1,55.5,43.1,55.5,43.1C55.5,43.1,55.5,43.1,55.5,43.1z M55.5,38.3L55.5,38.3C55.5,38.3,55.5,38.3,55.5,38.3L55.5,38.3
				C55.5,38.3,55.5,38.3,55.5,38.3z M55.5,42.8C55.5,42.7,55.5,42.7,55.5,42.8C55.5,42.7,55.5,42.7,55.5,42.8L55.5,42.8L55.5,42.8
				C55.5,42.7,55.5,42.7,55.5,42.8z M55.5,38L55.5,38L55.5,38C55.5,38,55.5,38,55.5,38C55.5,38,55.5,38,55.5,38z M55.5,39.2
				L55.5,39.2L55.5,39.2z M55.5,42.4C55.5,42.4,55.5,42.4,55.5,42.4C55.5,42.4,55.5,42.4,55.5,42.4C55.5,42.4,55.5,42.4,55.5,42.4z
				 M55.5,42.2L55.5,42.2C55.5,42.2,55.5,42.2,55.5,42.2z M55.6,38.2C55.6,38.2,55.6,38.2,55.6,38.2c-0.1,0.2-0.1,0.4-0.1,0.4
				c0.1,0.1,0.1-0.1,0.1-0.2C55.7,38.4,55.6,38.3,55.6,38.2z M55.6,42.6C55.6,42.6,55.6,42.6,55.6,42.6c-0.1,0.2-0.1,0.4-0.1,0.4
				c0.1,0.1,0.1-0.1,0.1-0.2C55.7,42.8,55.6,42.7,55.6,42.6z M55.5,37.5C55.5,37.5,55.5,37.5,55.5,37.5L55.5,37.5z M55.6,37.6
				C55.6,37.6,55.6,37.6,55.6,37.6C55.6,37.6,55.6,37.6,55.6,37.6C55.6,37.6,55.6,37.6,55.6,37.6C55.6,37.6,55.6,37.6,55.6,37.6z
				 M55.6,42.1L55.6,42.1C55.6,42,55.6,42,55.6,42.1C55.6,42,55.6,42,55.6,42.1C55.6,42,55.6,42,55.6,42.1z M55.7,37.6
				C55.7,37.5,55.7,37.5,55.7,37.6C55.7,37.6,55.7,37.6,55.7,37.6c-0.1,0.1-0.1,0.1-0.1,0.2c0,0,0.1,0.1,0.1,0.1c0,0,0.1,0,0.1-0.1
				c0-0.1,0,0-0.1,0C55.7,37.8,55.7,37.7,55.7,37.6C55.7,37.6,55.7,37.6,55.7,37.6z M55.7,42L55.7,42c0,0,0,0.1,0,0.1
				c0,0-0.1,0-0.1,0c0,0.1,0.1,0.1,0.1,0.2l0.1-0.1c0-0.2,0,0-0.1,0c0,0,0-0.1,0-0.1C55.7,42.1,55.7,42,55.7,42z M55.9,38.6
				c0,0,0-0.1,0-0.1c0,0.1-0.1,0.2-0.2,0.3C55.7,38.7,55.8,38.7,55.9,38.6z M55.9,43c0,0,0-0.1,0-0.1C55.8,42.9,55.8,42.9,55.9,43
				c0-0.1,0-0.1,0-0.1c0,0.1-0.1,0.2-0.2,0.3C55.7,43.2,55.8,43.1,55.9,43z M55.8,38.4C55.7,38.4,55.7,38.4,55.8,38.4L55.8,38.4
				C55.7,38.4,55.7,38.4,55.8,38.4C55.7,38.4,55.7,38.4,55.8,38.4z M55.8,42.8C55.7,42.8,55.7,42.8,55.8,42.8L55.8,42.8
				C55.7,42.8,55.7,42.8,55.8,42.8C55.7,42.8,55.7,42.8,55.8,42.8z M55.7,39C55.7,39,55.7,39,55.7,39S55.7,39,55.7,39L55.7,39
				L55.7,39z M55.7,43.4C55.7,43.4,55.7,43.4,55.7,43.4S55.7,43.4,55.7,43.4z M56,37.6C56,37.6,56,37.6,56,37.6
				c-0.1-0.1-0.1-0.2-0.2-0.1c-0.1,0.1,0,0.2,0.1,0.2c0,0.1,0.1,0.2,0.2,0.2c0,0,0.1-0.2,0.2-0.1c0.1,0,0.1-0.1,0.1-0.1
				c0,0,0-0.1,0-0.1c0,0-0.1-0.1-0.1-0.1c0,0,0,0.1,0,0.1c0,0,0,0,0,0c-0.1,0.1,0-0.3-0.1-0.2c0,0,0,0,0-0.1c0,0,0,0,0,0l0,0
				C56.1,37.4,56,37.5,56,37.6z M56,42C56,42,56,42,56,42c-0.1-0.1-0.1-0.2-0.2-0.1c-0.1,0.1,0,0.1,0.1,0.2c0,0.1,0.1,0.2,0.2,0.2
				c0,0,0.1-0.2,0.2-0.2c0.1,0,0.1-0.1,0.1-0.1c0,0,0-0.1,0-0.1c0,0-0.1,0-0.1-0.1c0,0,0,0.1,0,0.1c0,0,0,0,0,0
				c-0.1,0.1,0-0.3-0.1-0.2l0,0c0,0,0,0,0,0C56.1,41.9,56,41.9,56,42z M55.8,38.1L55.8,38.1C55.8,38.1,55.9,38.1,55.8,38.1
				C55.9,38.1,55.8,38.1,55.8,38.1z M55.8,42.6C55.8,42.6,55.9,42.5,55.8,42.6C55.9,42.5,55.8,42.5,55.8,42.6z M55.9,38.9
				C55.9,38.9,55.9,38.9,55.9,38.9C55.9,38.9,55.9,38.9,55.9,38.9C55.9,38.9,55.9,38.9,55.9,38.9z M55.9,43.4L55.9,43.4
				C55.9,43.3,55.9,43.3,55.9,43.4L55.9,43.4C55.9,43.3,55.9,43.4,55.9,43.4z M56,38.5c0-0.1,0-0.1-0.1-0.2
				C55.9,38.4,55.9,38.5,56,38.5c0,0.1,0,0.1,0,0.2c0,0,0,0,0,0S56,38.6,56,38.5C56,38.6,56,38.5,56,38.5z M56,42.9
				c0-0.1,0-0.1-0.1-0.2c0,0.1-0.1,0.2,0,0.3v0c0,0,0,0,0,0C56,43,56,43,56,42.9z M55.9,37.8C55.9,37.7,55.9,37.7,55.9,37.8
				C55.9,37.7,55.9,37.7,55.9,37.8z M56,38.1C56,38.1,56,38.1,56,38.1L56,38.1c0,0.1,0,0.2,0,0.2C56,38.3,56.1,38.3,56,38.1
				C56.1,38.2,56,38.2,56,38.1C56,38.1,56,38.1,56,38.1z M55.9,42.1C55.9,42.2,55.9,42.2,55.9,42.1L55.9,42.1z M56,42.6
				C56,42.6,56,42.6,56,42.6C56,42.6,55.9,42.6,56,42.6c0,0.1,0,0.2,0,0.2C56,42.7,56.1,42.7,56,42.6C56.1,42.6,56,42.6,56,42.6
				C56,42.6,56,42.6,56,42.6z M56.1,38.4L56.1,38.4c-0.1,0-0.1,0-0.1,0c0.1,0.1,0.1,0.1,0.1,0.1C56.2,38.5,56.2,38.5,56.1,38.4
				C56.2,38.4,56.2,38.4,56.1,38.4C56.2,38.4,56.2,38.4,56.1,38.4z M56.1,42.8L56.1,42.8c-0.1,0-0.1,0-0.1,0c0.1,0,0.1,0.1,0.1,0.1
				C56.2,42.9,56.2,42.9,56.1,42.8C56.2,42.9,56.2,42.8,56.1,42.8C56.2,42.8,56.2,42.8,56.1,42.8z M56.1,37.9
				C56.1,37.9,56.1,37.9,56.1,37.9C56.1,37.8,56.1,37.8,56.1,37.9C56.1,37.8,56.1,37.8,56.1,37.9C56.1,37.9,56.1,37.9,56.1,37.9z
				 M56.1,42.3L56.1,42.3C56.1,42.3,56.1,42.2,56.1,42.3C56.1,42.2,56.1,42.3,56.1,42.3L56.1,42.3z M56.1,38.6
				C56.1,38.6,56.1,38.6,56.1,38.6L56.1,38.6z M56.1,43L56.1,43C56.1,43,56.1,43,56.1,43L56.1,43z M56.2,38.4
				C56.2,38.4,56.2,38.4,56.2,38.4S56.2,38.4,56.2,38.4z M56.2,42.8C56.2,42.8,56.2,42.8,56.2,42.8S56.2,42.8,56.2,42.8z M56.2,38.1
				L56.2,38.1C56.2,38,56.2,38,56.2,38.1C56.2,38,56.2,38,56.2,38.1C56.2,38,56.2,38.1,56.2,38.1z M56.2,38.3
				C56.2,38.3,56.2,38.3,56.2,38.3L56.2,38.3z M56.2,42.5C56.2,42.5,56.2,42.5,56.2,42.5C56.2,42.5,56.2,42.4,56.2,42.5
				C56.2,42.4,56.2,42.4,56.2,42.5C56.2,42.5,56.2,42.5,56.2,42.5z M56.2,42.7L56.2,42.7C56.2,42.7,56.2,42.7,56.2,42.7L56.2,42.7z
				 M56.3,38.7C56.2,38.6,56.2,38.6,56.3,38.7C56.2,38.7,56.2,38.7,56.3,38.7C56.3,38.7,56.3,38.7,56.3,38.7z M56.3,43.1
				C56.2,43.1,56.2,43.1,56.3,43.1C56.2,43.1,56.2,43.1,56.3,43.1C56.3,43.2,56.3,43.1,56.3,43.1z M56.2,42.6L56.2,42.6L56.2,42.6z
				 M56.3,38.2c0.1,0,0.1,0.1,0.2,0.1v0v0C56.4,38.1,56.4,38,56.3,38.2z M56.3,42.6c0.1,0,0.1,0.1,0.2,0.1
				C56.4,42.6,56.4,42.5,56.3,42.6z M56.3,37.4C56.3,37.4,56.3,37.4,56.3,37.4C56.3,37.4,56.3,37.4,56.3,37.4
				C56.3,37.4,56.3,37.4,56.3,37.4z M56.3,38.4C56.3,38.4,56.3,38.4,56.3,38.4C56.3,38.4,56.3,38.4,56.3,38.4L56.3,38.4
				C56.3,38.4,56.3,38.4,56.3,38.4z M56.3,41.9L56.3,41.9C56.3,41.8,56.3,41.8,56.3,41.9C56.3,41.9,56.3,41.9,56.3,41.9L56.3,41.9z
				 M56.3,42.8C56.3,42.8,56.3,42.8,56.3,42.8C56.3,42.8,56.3,42.8,56.3,42.8C56.3,42.8,56.3,42.8,56.3,42.8z M56.4,37.6
				C56.4,37.7,56.4,37.6,56.4,37.6c0.1,0.1,0.1,0.1,0.1,0C56.5,37.6,56.4,37.5,56.4,37.6C56.4,37.5,56.3,37.6,56.4,37.6z M56.4,42
				C56.4,42.1,56.4,42,56.4,42c0.1,0.1,0.1,0.1,0.1,0.1C56.5,42,56.4,42,56.4,42C56.4,42,56.3,42,56.4,42z M56.5,37.3
				C56.5,37.3,56.5,37.3,56.5,37.3L56.5,37.3C56.5,37.3,56.5,37.3,56.5,37.3C56.5,37.3,56.5,37.3,56.5,37.3z M56.7,38
				C56.7,38,56.7,37.9,56.7,38C56.7,37.9,56.7,37.9,56.7,38c0.3-0.1,0.3,0.2,0.4,0.2c0,0,0,0,0.1,0c0-0.1,0-0.1,0-0.2h0
				c0,0,0,0.1,0,0.1v0h0c-0.1-0.3-0.3-0.2-0.4-0.3c0,0,0,0-0.1,0c0,0-0.1,0-0.1,0.1C56.5,37.9,56.6,37.9,56.7,38
				C56.6,37.9,56.7,38,56.7,38z M56.5,38.4C56.5,38.4,56.5,38.4,56.5,38.4C56.5,38.4,56.5,38.4,56.5,38.4z M56.5,38.9
				C56.5,38.9,56.5,38.9,56.5,38.9L56.5,38.9z M56.5,41.8C56.5,41.7,56.5,41.7,56.5,41.8C56.5,41.8,56.5,41.8,56.5,41.8L56.5,41.8z
				 M56.7,42.4C56.7,42.4,56.7,42.4,56.7,42.4C56.7,42.4,56.7,42.4,56.7,42.4c0.3-0.1,0.3,0.2,0.4,0.2c0,0,0,0,0.1,0
				c0-0.1,0-0.2,0-0.2h0c0,0.1,0,0.1,0,0.1c0,0,0,0,0,0.1c0,0,0,0,0,0c-0.1-0.3-0.3-0.1-0.4-0.3c0,0,0,0-0.1,0c0,0-0.1,0-0.1,0.1
				C56.5,42.3,56.6,42.3,56.7,42.4C56.6,42.4,56.7,42.4,56.7,42.4z M56.5,42.8L56.5,42.8C56.5,42.8,56.5,42.8,56.5,42.8z M56.5,43.3
				L56.5,43.3C56.5,43.3,56.5,43.3,56.5,43.3L56.5,43.3z M56.6,37.4C56.6,37.5,56.6,37.5,56.6,37.4C56.7,37.5,56.7,37.5,56.6,37.4
				C56.7,37.4,56.7,37.4,56.6,37.4C56.6,37.4,56.6,37.4,56.6,37.4z M56.6,37.6C56.6,37.6,56.6,37.6,56.6,37.6
				C56.6,37.6,56.6,37.6,56.6,37.6C56.6,37.6,56.6,37.6,56.6,37.6C56.6,37.6,56.7,37.6,56.6,37.6C56.7,37.6,56.6,37.6,56.6,37.6z
				 M56.6,37.9L56.6,37.9C56.6,37.9,56.6,37.9,56.6,37.9z M56.6,41.9C56.6,41.9,56.6,41.9,56.6,41.9C56.7,42,56.7,41.9,56.6,41.9
				C56.7,41.9,56.7,41.8,56.6,41.9C56.6,41.9,56.6,41.9,56.6,41.9z M56.6,42C56.6,42,56.6,42,56.6,42C56.6,42,56.6,42,56.6,42
				C56.6,42,56.6,42,56.6,42L56.6,42L56.6,42z M56.6,42.3C56.6,42.3,56.6,42.3,56.6,42.3L56.6,42.3z M56.6,38.1L56.6,38.1
				C56.6,38.1,56.6,38.1,56.6,38.1z M56.7,37.8L56.7,37.8C56.7,37.9,56.7,37.9,56.7,37.8C56.7,37.9,56.7,37.9,56.7,37.8z M56.7,42.3
				L56.7,42.3C56.7,42.3,56.7,42.3,56.7,42.3C56.7,42.3,56.7,42.3,56.7,42.3z M56.7,37.5C56.7,37.5,56.7,37.5,56.7,37.5
				C56.7,37.4,56.7,37.4,56.7,37.5C56.7,37.4,56.7,37.4,56.7,37.5z M56.8,37.7C56.8,37.7,56.7,37.7,56.8,37.7L56.8,37.7
				C56.7,37.7,56.7,37.7,56.8,37.7C56.8,37.7,56.8,37.7,56.8,37.7z M56.7,38.4L56.7,38.4C56.7,38.4,56.7,38.4,56.7,38.4z M56.7,41.9
				C56.7,41.9,56.7,41.9,56.7,41.9L56.7,41.9z M56.8,42.1C56.8,42.1,56.7,42.1,56.8,42.1L56.8,42.1C56.7,42.1,56.7,42.1,56.8,42.1
				C56.8,42.2,56.8,42.1,56.8,42.1z M56.7,42.8L56.7,42.8C56.7,42.8,56.7,42.8,56.7,42.8z M56.8,38.4c0-0.1,0.1-0.2,0-0.2
				C56.8,38.3,56.8,38.3,56.8,38.4L56.8,38.4L56.8,38.4z M56.8,42.6c0,0.1,0,0.1-0.1,0.2c0,0,0,0,0,0.1
				C56.8,42.8,56.9,42.7,56.8,42.6z M56.8,37.5C56.8,37.5,56.8,37.5,56.8,37.5C56.8,37.5,56.8,37.5,56.8,37.5z M56.8,38.4L56.8,38.4
				L56.8,38.4z M56.8,41.9C56.8,41.9,56.8,42,56.8,41.9C56.8,42,56.8,41.9,56.8,41.9z M56.9,43.6C56.9,43.6,56.9,43.6,56.9,43.6
				C56.9,43.6,56.9,43.6,56.9,43.6z M57,37.8C57,37.8,57,37.8,57,37.8C57,37.8,57,37.8,57,37.8C57,37.8,57,37.8,57,37.8z M57,42.2
				L57,42.2L57,42.2C57,42.2,57,42.2,57,42.2C57,42.2,57,42.2,57,42.2z M57.1,37.8c0.1,0,0.1-0.1,0.1-0.1c0-0.1,0-0.1-0.1-0.1
				c0,0.1-0.1,0.2-0.2,0.1C57.1,37.8,57.1,37.8,57.1,37.8z M57.1,42.3c0.1,0,0.1-0.1,0.1-0.1c0,0,0-0.1-0.1-0.1
				c0,0.1-0.1,0.2-0.2,0.1C57.1,42.2,57.1,42.3,57.1,42.3z M57.2,37.5C57.2,37.5,57.2,37.5,57.2,37.5C57.2,37.5,57.2,37.5,57.2,37.5
				C57.2,37.5,57.2,37.4,57.2,37.5z M57.2,38.3C57.2,38.4,57.2,38.4,57.2,38.3C57.2,38.4,57.2,38.4,57.2,38.3
				C57.2,38.4,57.2,38.4,57.2,38.3z M57.3,38.5C57.3,38.5,57.3,38.5,57.3,38.5C57.2,38.5,57.2,38.5,57.3,38.5
				C57.2,38.5,57.2,38.5,57.3,38.5C57.2,38.6,57.2,38.6,57.3,38.5C57.2,38.6,57.2,38.5,57.3,38.5L57.3,38.5z M57.2,41.9
				C57.2,41.9,57.2,41.9,57.2,41.9C57.2,41.9,57.2,41.9,57.2,41.9C57.2,41.9,57.2,41.8,57.2,41.9z M57.2,42.8
				C57.2,42.8,57.2,42.8,57.2,42.8L57.2,42.8z M57.3,43L57.3,43C57.2,42.9,57.2,43,57.3,43C57.2,43,57.2,43,57.3,43L57.3,43
				C57.2,43,57.2,43,57.3,43L57.3,43z M57.2,37.9C57.2,37.9,57.2,37.9,57.2,37.9C57.2,37.9,57.2,37.9,57.2,37.9z M57.3,38.1
				C57.3,38.1,57.3,38.1,57.3,38.1C57.2,38,57.2,38.1,57.3,38.1C57.2,38.1,57.2,38.1,57.3,38.1L57.3,38.1z M57.2,42.4
				C57.2,42.3,57.2,42.3,57.2,42.4C57.2,42.3,57.2,42.3,57.2,42.4z M57.3,42.5C57.2,42.5,57.2,42.5,57.3,42.5
				C57.2,42.5,57.2,42.5,57.3,42.5C57.3,42.5,57.3,42.5,57.3,42.5z M57.4,37.6L57.4,37.6C57.4,37.6,57.4,37.6,57.4,37.6
				C57.4,37.6,57.4,37.6,57.4,37.6C57.4,37.6,57.4,37.6,57.4,37.6z M57.4,42.1L57.4,42.1C57.4,42,57.4,42,57.4,42.1
				C57.4,42,57.4,42,57.4,42.1L57.4,42.1z M57.5,37.6C57.5,37.6,57.5,37.6,57.5,37.6C57.5,37.6,57.5,37.6,57.5,37.6
				C57.5,37.6,57.5,37.6,57.5,37.6C57.5,37.6,57.5,37.6,57.5,37.6z M57.5,42L57.5,42C57.5,42,57.5,42,57.5,42
				C57.5,42,57.5,42,57.5,42C57.5,42,57.5,42,57.5,42z M57.5,37.2L57.5,37.2L57.5,37.2z M57.5,41.7L57.5,41.7L57.5,41.7z M57.7,37.5
				C57.7,37.5,57.7,37.5,57.7,37.5C57.6,37.5,57.6,37.5,57.7,37.5C57.6,37.5,57.6,37.5,57.7,37.5C57.7,37.6,57.7,37.5,57.7,37.5z
				 M57.7,42C57.7,42,57.7,41.9,57.7,42C57.6,41.9,57.6,41.9,57.7,42C57.6,42,57.6,42,57.7,42C57.7,42,57.7,42,57.7,42z M57.7,38.7
				L57.7,38.7C57.6,38.7,57.6,38.7,57.7,38.7L57.7,38.7L57.7,38.7z M57.7,43.1L57.7,43.1C57.6,43.1,57.6,43.1,57.7,43.1
				C57.6,43.1,57.6,43.1,57.7,43.1L57.7,43.1z M57.9,37.5L57.9,37.5L57.9,37.5z M57.9,38C57.9,38,57.9,38,57.9,38S57.9,38,57.9,38z
				 M57.9,42L57.9,42L57.9,42z M58,37.3C58,37.3,58,37.3,58,37.3S58,37.3,58,37.3z M58,38.5C58,38.5,58,38.5,58,38.5
				C58,38.5,58,38.5,58,38.5C58,38.5,58,38.5,58,38.5L58,38.5z M58,41.7L58,41.7C58,41.8,58,41.8,58,41.7z M58,43L58,43
				C58,42.9,58,42.9,58,43C58,43,58,43,58,43C58,43,58,43,58,43z M58.1,37.4C58.1,37.4,58.1,37.3,58.1,37.4L58.1,37.4
				C58,37.4,58,37.4,58.1,37.4C58.1,37.4,58.1,37.4,58.1,37.4z M58,38.1C58,38.1,58.1,38.1,58,38.1L58,38.1C58,38.1,58,38.1,58,38.1
				z M58.1,41.8C58.1,41.8,58.1,41.8,58.1,41.8L58.1,41.8C58.1,41.8,58.1,41.8,58.1,41.8z M58,42.6L58,42.6
				C58.1,42.6,58.1,42.6,58,42.6C58,42.6,58,42.6,58,42.6z M58.1,38.1L58.1,38.1C58.1,38.1,58.1,38.1,58.1,38.1L58.1,38.1z
				 M58.1,38.5C58.1,38.5,58.1,38.5,58.1,38.5C58.1,38.5,58.1,38.5,58.1,38.5L58.1,38.5C58.1,38.5,58.1,38.5,58.1,38.5z M58.1,42.5
				C58.1,42.5,58.1,42.5,58.1,42.5L58.1,42.5C58.1,42.5,58.1,42.5,58.1,42.5z M58.1,42.9C58.1,42.9,58.1,42.9,58.1,42.9
				C58.1,42.9,58.1,42.9,58.1,42.9C58.1,42.9,58.1,42.9,58.1,42.9z M58.1,38.7L58.1,38.7L58.1,38.7C58.1,38.7,58.1,38.7,58.1,38.7
				C58.1,38.7,58.1,38.7,58.1,38.7z M58.1,43.1L58.1,43.1L58.1,43.1C58.1,43.1,58.1,43.1,58.1,43.1L58.1,43.1
				C58.1,43.1,58.1,43.1,58.1,43.1z M58.3,38.7C58.3,38.7,58.3,38.7,58.3,38.7C58.3,38.7,58.2,38.7,58.3,38.7c-0.1,0-0.1,0-0.1,0
				C58.2,38.7,58.3,38.7,58.3,38.7C58.3,38.7,58.3,38.7,58.3,38.7C58.3,38.8,58.3,38.8,58.3,38.7z M58.2,41.8L58.2,41.8L58.2,41.8z
				 M58.3,43.2L58.3,43.2C58.3,43.2,58.2,43.1,58.3,43.2c-0.1-0.1-0.1,0-0.1,0C58.2,43.2,58.3,43.2,58.3,43.2
				C58.3,43.2,58.3,43.2,58.3,43.2S58.3,43.2,58.3,43.2z M58.3,37.2C58.3,37.2,58.3,37.2,58.3,37.2C58.3,37.2,58.3,37.2,58.3,37.2
				C58.3,37.2,58.3,37.2,58.3,37.2C58.3,37.2,58.3,37.2,58.3,37.2z M58.3,41.6C58.3,41.6,58.3,41.6,58.3,41.6L58.3,41.6
				C58.3,41.6,58.3,41.6,58.3,41.6L58.3,41.6z M58.4,37.6C58.4,37.5,58.4,37.5,58.4,37.6L58.4,37.6C58.4,37.6,58.4,37.6,58.4,37.6
				C58.4,37.6,58.4,37.6,58.4,37.6z M58.4,42C58.4,42,58.4,42,58.4,42L58.4,42C58.4,42,58.4,42,58.4,42C58.4,42,58.4,42,58.4,42z
				 M58.5,37.8C58.5,37.8,58.5,37.8,58.5,37.8C58.4,37.8,58.4,37.8,58.5,37.8L58.5,37.8L58.5,37.8z M58.5,38
				C58.5,37.9,58.4,37.9,58.5,38C58.4,38,58.4,38,58.5,38z M58.5,42.2L58.5,42.2C58.4,42.2,58.4,42.2,58.5,42.2L58.5,42.2z
				 M58.5,42.4C58.5,42.4,58.5,42.4,58.5,42.4L58.5,42.4C58.4,42.4,58.4,42.4,58.5,42.4z M58.5,43.4C58.5,43.4,58.5,43.4,58.5,43.4
				L58.5,43.4z M58.6,37.7C58.6,37.7,58.6,37.7,58.6,37.7c0-0.1,0-0.1,0-0.1C58.5,37.6,58.5,37.6,58.6,37.7
				C58.5,37.6,58.6,37.7,58.6,37.7z M58.6,42.1C58.6,42.1,58.6,42.1,58.6,42.1C58.6,42.1,58.6,42,58.6,42.1
				C58.5,42,58.5,42,58.6,42.1C58.5,42.1,58.6,42.1,58.6,42.1z M58.7,38L58.7,38C58.7,38.1,58.7,38.1,58.7,38L58.7,38L58.7,38
				L58.7,38z M58.7,42.5C58.7,42.5,58.7,42.5,58.7,42.5C58.7,42.5,58.7,42.5,58.7,42.5C58.7,42.5,58.7,42.5,58.7,42.5z M58.7,37.4
				L58.7,37.4C58.7,37.5,58.7,37.5,58.7,37.4C58.7,37.5,58.8,37.5,58.7,37.4C58.8,37.5,58.7,37.4,58.7,37.4z M58.7,41.9
				C58.7,41.9,58.7,41.9,58.7,41.9c0,0.1,0,0.1,0,0.1C58.7,42,58.8,42,58.7,41.9C58.8,41.9,58.7,41.9,58.7,41.9z M58.8,39.1
				C58.8,39.1,58.8,39.1,58.8,39.1C58.8,39.1,58.8,39.1,58.8,39.1z M58.8,43.5C58.8,43.5,58.8,43.5,58.8,43.5
				C58.8,43.5,58.8,43.5,58.8,43.5C58.8,43.6,58.8,43.6,58.8,43.5C58.8,43.5,58.8,43.5,58.8,43.5z M58.9,38.6
				C58.9,38.6,58.9,38.6,58.9,38.6C58.9,38.6,58.9,38.6,58.9,38.6C58.9,38.6,58.9,38.7,58.9,38.6L58.9,38.6z M58.9,43.1
				C58.9,43.1,58.9,43,58.9,43.1C58.9,43,58.9,43.1,58.9,43.1C58.9,43.1,58.9,43.1,58.9,43.1C58.9,43.1,58.9,43.1,58.9,43.1z
				 M58.9,37.3L58.9,37.3C58.9,37.3,58.9,37.3,58.9,37.3z M58.9,37.7C58.9,37.7,58.9,37.7,58.9,37.7S58.9,37.7,58.9,37.7
				S58.9,37.7,58.9,37.7z M59,38.2C58.9,38.2,58.9,38.2,59,38.2C58.9,38.2,58.9,38.2,59,38.2L59,38.2C58.9,38.3,58.9,38.2,59,38.2z
				 M58.9,39.1C58.9,39.1,58.9,39.1,58.9,39.1C58.9,39.1,58.9,39.1,58.9,39.1C58.9,39.1,58.9,39.1,58.9,39.1z M58.9,41.7
				C58.9,41.7,58.9,41.7,58.9,41.7S58.9,41.7,58.9,41.7z M58.9,42.1C58.9,42.1,58.9,42.1,58.9,42.1C58.9,42.2,58.9,42.2,58.9,42.1
				C58.9,42.1,58.9,42.1,58.9,42.1z M59,42.6C58.9,42.6,58.9,42.6,59,42.6L59,42.6C58.9,42.7,58.9,42.7,59,42.6
				C58.9,42.7,58.9,42.7,59,42.6z M58.9,43.5C58.9,43.5,58.9,43.5,58.9,43.5C58.9,43.5,58.9,43.5,58.9,43.5
				C58.9,43.6,58.9,43.6,58.9,43.5C58.9,43.6,58.9,43.6,58.9,43.5z M58.9,37.9C58.9,37.9,58.9,37.9,58.9,37.9L58.9,37.9z M59,37.8
				L59,37.8C59,37.8,59,37.8,59,37.8z M59,42.2C59,42.2,59,42.2,59,42.2L59,42.2z M59,37.4L59,37.4C59,37.5,59,37.5,59,37.4
				C59,37.5,59.1,37.5,59,37.4C59.1,37.5,59,37.4,59,37.4z M59,41.9L59,41.9L59,41.9C59,41.9,59.1,41.9,59,41.9
				C59.1,41.9,59,41.9,59,41.9z M59.1,38C59.2,38,59.2,37.9,59.1,38C59.2,37.9,59.2,37.9,59.1,38C59.1,37.9,59.1,37.9,59.1,38
				C59.1,37.9,59.1,38,59.1,38z M59.1,42.4C59.2,42.4,59.2,42.4,59.1,42.4C59.2,42.4,59.2,42.3,59.1,42.4
				C59.1,42.3,59.1,42.3,59.1,42.4C59.1,42.4,59.1,42.4,59.1,42.4z M59.2,38.5L59.2,38.5L59.2,38.5z M59.2,42.9
				C59.2,42.9,59.2,42.9,59.2,42.9C59.2,42.9,59.2,42.9,59.2,42.9z M59.4,38.3C59.4,38.3,59.4,38.3,59.4,38.3L59.4,38.3
				c-0.1,0-0.1,0.1-0.1,0.1c0,0,0,0,0,0.1c0,0,0.1,0,0.1,0C59.4,38.4,59.4,38.4,59.4,38.3C59.4,38.4,59.4,38.3,59.4,38.3z
				 M59.4,42.7C59.4,42.7,59.4,42.7,59.4,42.7C59.4,42.8,59.4,42.8,59.4,42.7c-0.1,0.1-0.1,0.1-0.1,0.1c0,0,0,0.1,0,0.1
				c0,0,0.1,0,0.1,0C59.4,42.9,59.4,42.8,59.4,42.7C59.4,42.8,59.4,42.8,59.4,42.7z M59.3,43L59.3,43L59.3,43z M59.4,37.8L59.4,37.8
				C59.4,37.7,59.4,37.7,59.4,37.8C59.4,37.8,59.4,37.8,59.4,37.8C59.4,37.8,59.4,37.8,59.4,37.8z M59.3,38.1L59.3,38.1
				C59.4,38.1,59.4,38.1,59.3,38.1C59.3,38.1,59.3,38.1,59.3,38.1z M59.4,42.2C59.4,42.2,59.4,42.2,59.4,42.2
				C59.4,42.1,59.4,42.2,59.4,42.2C59.4,42.2,59.4,42.2,59.4,42.2C59.4,42.2,59.4,42.2,59.4,42.2z M59.3,42.5L59.3,42.5L59.3,42.5
				C59.4,42.5,59.4,42.5,59.3,42.5L59.3,42.5z"/>
			<path class="st1" d="M62.3,30.2c0.2-0.1,0.4,0.2,0.6,0.3c0.1,0.1,0.1,0.2,0.2,0.3c0.1,0.1,0.2,0.3,0.3,0.4c0,0,0,0,0,0
				c0.2,0.4,0.5,0.9,0.7,1.3c0.1,0.2,0.1,0.3,0.2,0.5c0.1,0.2,0.2,0.3,0.2,0.5c0,0.1,0.1,0.2,0.1,0.2c0.1,0.2,0.2,0.3,0.2,0.4
				c0.1,0.3,0.3,0.6,0.4,0.9c0.1,0.3,0.2,0.5,0.3,0.8c0,0.1,0.1,0.1,0.1,0.2c0.2,0.4,0.4,0.9,0.6,1.4c0.4,0.6,0.5,1.4,0.9,2.2
				c0,0,0,0,0.1,0c0.1-0.3,0.2-0.7,0.3-1c0-0.2,0.1-0.4,0.2-0.7c0.2-0.5,0.3-1,0.4-1.5c0.1-0.3,0.2-0.5,0.3-0.8
				c0.1-0.3,0.2-0.6,0.3-0.9c0.2-0.6,0.3-1.2,0.5-1.8c0.1-0.3,0.1-0.5,0.1-0.8c0-0.3,0.1-0.5,0.3-0.8c0.1-0.3,0.2-0.6,0.3-0.9
				c0.1-0.2,0.1-0.4,0.3-0.6c0.1,0,0.2,0.1,0.2,0.1c0.1-0.1,0.1-0.1,0.2-0.2h0c0.2,0.1,0.3,0.2,0.5,0.2c0.1,0.1,0.2,0.1,0.3,0.2
				c0.2,0.1,0.3,0.3,0.4,0.5c0.1,0.1,0.2,0.3,0.3,0.4c0.1,0.3,0.2,0.6,0.2,0.9c0,0.1,0.1,0.2,0.1,0.3c0,0.4,0.1,0.8,0.1,1.1
				c0,0.1,0,0.3,0,0.4c0,0.5,0,0.9,0,1.4c0,0.4,0.1,0.8,0.1,1.3c0,0.3,0,0.7,0,1c0,0.2,0,0.3,0.1,0.4c0,0.1,0,0.1,0,0.2
				c0.1,0.3,0.1,0.5,0.1,0.8c0,0.2,0,0.4,0,0.6c0,0.4,0,0.9,0,1.3c0,0.2,0,0.4,0,0.7c0,0.2,0,0.3,0,0.5c0,0.1,0,0.1,0,0.2
				c0,0.1,0,0.2,0,0.2c0,0.3,0,0.7,0,1c0,0,0,0,0.1,0c0,0.1,0,0.3,0,0.4c0,0.2,0,0.3,0,0.5c0,0.1,0,0.2,0,0.3c0,0.2,0,0.3,0,0.5
				c0,0.2,0,0.4,0,0.7c0,0.3,0,0.5,0,0.8c0,0.3,0,0.6,0,0.9c0,0.3,0,0.5,0,0.7c0,0.2,0,0.3,0,0.4c0,0.5,0.1,0.9,0.1,1.4
				c0,0.4,0.1,0.8,0.1,1.1c0,0.3,0,0.6,0,0.9c0,0.2,0,0.4-0.1,0.6c0,0.2-0.1,0.4-0.2,0.6c-0.1,0.1-0.2,0.2-0.3,0.2
				c-0.2,0-0.3,0-0.4-0.1c-0.2,0-0.3-0.2-0.4-0.3c-0.1-0.2-0.2-0.3-0.3-0.5c-0.2-0.2-0.3-0.5-0.3-0.8c0-0.5,0-0.9-0.1-1.4
				c0-0.3-0.1-0.7-0.1-1.1c0-0.3,0-0.6,0-0.9c0-0.3-0.1-0.5-0.1-0.8c0-0.4,0.1-0.7,0.1-1.1c0-0.3-0.1-0.6-0.1-0.9c0-0.2,0-0.4,0-0.6
				c0-0.4,0-0.8,0-1.2c0-0.4,0-0.9,0-1.4c0-0.5,0-1-0.1-1.5c0-0.2-0.1-0.4-0.1-0.6c0-0.2,0-0.4,0-0.6c0-0.2,0-0.4,0-0.6
				c0-0.2,0-0.4,0-0.6c0-0.3,0-0.6,0-0.8c0-0.2,0-0.4,0-0.7c0-0.7,0-1.3,0-1.9c0-0.4,0-0.9,0.1-1.3c0-0.1,0-0.1-0.1-0.2
				c0,0,0,0,0,0.1c-0.1,0.3-0.2,0.6-0.3,0.9c0,0.2-0.1,0.4-0.1,0.6c-0.1,0.3-0.1,0.5-0.2,0.8c0,0.1,0,0.2,0,0.3
				c-0.1,0.3-0.2,0.5-0.2,0.7c-0.1,0.3-0.1,0.5-0.2,0.7c0,0,0,0.1,0,0.1c-0.1,0.3-0.1,0.5-0.2,0.8c0,0.1-0.1,0.3-0.1,0.4
				c-0.1,0.3-0.1,0.7-0.2,1c-0.1,0.2-0.1,0.3-0.2,0.5C69,40.5,69,40.7,69,40.9c0,0.3-0.1,0.5-0.1,0.7c0,0.1-0.1,0.2-0.1,0.3
				c-0.1,0.2-0.1,0.4-0.2,0.6c-0.1,0.2-0.1,0.4-0.2,0.7c-0.1,0.2-0.2,0.3-0.3,0.4c-0.2,0.2-0.3,0.4-0.5,0.4c-0.1,0-0.3-0.1-0.4-0.2
				c-0.2-0.1-0.3-0.3-0.4-0.4c-0.2-0.3-0.4-0.7-0.6-1c-0.1-0.3-0.2-0.6-0.4-0.9c-0.3-0.4-0.4-0.9-0.7-1.4c-0.2-0.3-0.3-0.7-0.5-1.1
				c-0.1-0.3-0.3-0.7-0.4-1.1c-0.1-0.3-0.3-0.7-0.4-1c-0.2-0.4-0.3-0.9-0.4-1.3c-0.1-0.2-0.2-0.4-0.2-0.6c-0.1-0.2-0.2-0.4-0.2-0.6
				c0-0.1,0-0.1,0-0.1c-0.1-0.2-0.2-0.4-0.3-0.6c0,0,0,0-0.1,0c0,0.1,0,0.2,0,0.3c0,0.2,0.1,0.4,0.1,0.6c0,0.5,0,1,0.1,1.5
				c0,0.2,0,0.4,0,0.6c0,0.3,0.1,0.6,0.1,0.8c0,0.2,0,0.4,0,0.5c0,0.2,0,0.4,0,0.6c0,0,0,0,0,0.1h0c0,0.1-0.1,0.3-0.1,0.3
				s0,0.2,0.1,0.3l0,0c0.1,0.3,0.1,0.6,0.2,0.9c0,0,0,0,0,0c0.1,0.3,0,0.6,0,0.9c0,0.4,0,0.8,0,1.1c0,0,0,0,0.1,0c0,0,0,0.1,0,0.1h0
				c0,0.7,0.1,1.4,0.1,2.1c0.1,0.2,0.1,0.5,0.1,0.7c0,0.2,0,0.3,0,0.5c0,0.4,0.1,0.8,0.1,1.2c0,0.3,0,0.6,0,0.9c0,0.3,0,0.5,0,0.7
				c0,0.3,0,0.6,0,0.9c0,0.3,0,0.5,0,0.8c0,0.2-0.1,0.3,0,0.5c0.1,0.4,0,0.9,0,1.3c0,0.2,0,0.2-0.2,0.3c0,0-0.1,0-0.1,0.1
				c0.2,0.1,0.3,0.2,0.2,0.4c-0.2,0.1-0.4,0.2-0.6,0.4c-0.1,0-0.2,0-0.3,0c-0.1,0-0.2,0.1-0.3,0.1c0,0,0-0.1-0.1-0.1
				c0-0.1-0.1-0.2-0.2-0.2c-0.2-0.1-0.3-0.3-0.3-0.5c0-0.3,0-0.6,0-0.9c0-0.1,0-0.2,0-0.3c0-0.2,0-0.3,0-0.4c0-0.3-0.1-0.6-0.1-0.9
				c0-0.6,0-1.1,0-1.6c0-0.5,0-0.9,0-1.4c0-0.2,0-0.4-0.1-0.6c-0.1-0.5-0.1-0.9-0.1-1.4c0-0.6,0-1.2,0-1.8c0-0.4-0.1-0.9-0.1-1.3
				c0-0.5,0-1,0-1.5c0-0.4,0.1-0.8,0.1-1.2c0-0.3-0.1-0.7-0.1-1.1c0-0.6,0-1.1-0.1-1.7c0-0.2,0-0.3,0-0.5c0-0.3,0-0.5,0-0.7
				c0-0.3,0-0.7-0.1-1c0-0.2,0.1-0.5,0.1-0.7c0-0.4,0-0.7,0-1.1c0-0.3,0-0.5,0-0.7c0-0.3,0-0.6-0.1-0.9c0-0.2,0-0.3,0.1-0.5
				C61.5,30,61.9,30.1,62.3,30.2z M63,32.8c0-0.1,0-0.1-0.1-0.2c0,0,0,0,0,0c0,0.1,0,0.3,0,0.4h0C62.9,33,62.9,32.9,63,32.8
				C62.9,32.9,62.9,32.9,63,32.8C62.9,32.8,62.9,32.8,63,32.8z"/>
			<path class="st1" d="M84.5,51.1c0,0.2-0.1,0.3-0.4,0.4c-0.2,0.1-0.3,0.2-0.2,0.4c-0.1,0.1-0.1,0.2-0.2,0.3
				c-0.2,0.1-0.4,0.3-0.8,0.4c-0.3,0.1-0.6,0.2-0.9,0.3c-0.1,0-0.2,0-0.3,0c-0.6-0.1-1.3-0.2-1.9-0.3c-0.3-0.1-0.6-0.3-0.9-0.5
				c-0.2-0.1-0.4-0.3-0.6-0.4c-0.3-0.2-0.6-0.4-0.8-0.7c-0.5-0.5-0.9-1-1.4-1.6c-0.4-0.5-0.7-1.1-0.9-1.7c-0.2-0.7-0.4-1.4-0.5-2.1
				c-0.1-0.6-0.2-1.2-0.2-1.8c0-0.4,0-0.8,0-1.2c0-0.7,0.2-1.3,0.3-2c0.1-0.4,0.2-0.8,0.3-1.2c0.2-0.7,0.4-1.3,0.6-2
				c0.2-0.6,0.5-1.1,0.8-1.7c0.2-0.4,0.3-0.7,0.5-1.1c0-0.1,0.1-0.1,0.1-0.2c0.1-0.3,0.2-0.5,0.3-0.7c0.3-0.4,0.5-0.8,0.8-1.2
				c0.4-0.6,1-1.1,1.7-1.5c0.3-0.2,0.6-0.3,0.9-0.4c0.2-0.1,0.4-0.1,0.5-0.2c0.3-0.1,0.5-0.1,0.7-0.1c0.4,0,0.8,0.2,1.1,0.4
				c0.2,0.1,0.3,0.2,0.5,0.4c0.1,0.1,0,0.2,0,0.3c0,0-0.1,0-0.2,0.1c-0.1,0-0.1,0.1-0.2,0.1c-0.2,0.1-0.3,0.2-0.5,0.2
				c-0.2,0-0.4,0.1-0.6,0.2c-0.4,0.2-0.8,0.3-1.2,0.6c-0.3,0.2-0.5,0.4-0.8,0.7c-0.1,0.2-0.3,0.3-0.4,0.4c-0.3,0.3-0.5,0.7-0.7,1
				c0,0.1-0.1,0.1-0.1,0.2c-0.2,0.3-0.3,0.7-0.5,1c-0.2,0.3-0.3,0.6-0.4,0.9c-0.3,0.5-0.4,1-0.5,1.6c-0.2,0.6-0.3,1.1-0.5,1.7
				c-0.1,0.3-0.1,0.5-0.2,0.7c0,0.2-0.1,0.4-0.1,0.7c0,0,0,0,0,0c0.1,0.3-0.1,0.6-0.1,0.9c0,0.3-0.1,0.5-0.1,0.6c0,0.5,0,1,0,1.5
				c0,0.3,0.1,0.5,0.2,0.8c0,0.1,0,0.2,0.1,0.3c0.1,0.3,0.1,0.7,0.2,1c0,0.2,0.1,0.4,0.1,0.6c0.1,0.1,0.2,0.3,0.3,0.6
				c0.1,0.3,0.2,0.5,0.3,0.7c0.1,0.1,0.1,0.2,0.1,0.3c0.2,0.3,0.4,0.5,0.7,0.8c0,0,0,0,0,0c0,0.1,0,0.1,0,0.2c0,0,0,0,0-0.1
				c0.3,0.3,0.5,0.5,0.8,0.8c0.3,0.3,0.7,0.7,1.2,0.7c0.3,0.1,0.6,0.1,0.9,0c0.4-0.2,0.7-0.3,1.1-0.5c0.2-0.1,0.4-0.3,0.6-0.3
				c0.2-0.1,0.4,0,0.6,0c0.1,0,0.3,0,0.4,0.1c0.1,0,0.1,0,0.2,0.1C84.1,50.8,84.3,51,84.5,51.1z"/>
		</g>
	</g>
	<g>
		<text transform="matrix(1 0 0 1 85.3825 33.936)" class="st1 st2 st3">2</text>
	</g>
</g>
<g>
	<path class="st0" d="M98,86.9H27.6c-9,0-16.2-7.3-16.2-16.2V27.2c0-9,7.3-16.2,16.2-16.2H98c9,0,16.2,7.3,16.2,16.2v43.4
		C114.2,79.6,106.9,86.9,98,86.9z"/>
	<line class="st0" x1="11.4" y1="69.7" x2="114.2" y2="69.7"/>
	<path class="st1" d="M65.5,77.8c0,1.5-1.2,2.7-2.7,2.7c-1.5,0-2.7-1.2-2.7-2.7c0-1.5,1.2-2.7,2.7-2.7
		C64.3,75.2,65.5,76.4,65.5,77.8z"/>
	<rect x="51.3" y="86.9" class="st0" width="23" height="10.4"/>
	<line class="st0" x1="42.9" y1="97.8" x2="82.7" y2="97.8"/>
</g>
</svg>
