<?xml version="1.0" encoding="utf-8"?>
<!-- Generator: Adobe Illustrator 24.3.0, SVG Export Plug-In . SVG Version: 6.00 Build 0)  -->
<svg version="1.1" id="Layer_1" xmlns="http://www.w3.org/2000/svg" xmlns:xlink="http://www.w3.org/1999/xlink" x="0px" y="0px"
	 viewBox="0 0 173.9 118.3" style="enable-background:new 0 0 173.9 118.3;" xml:space="preserve">
<style type="text/css">
	.st0{display:none;}
	.st1{display:inline;}
	.st2{fill:#FFFFFF;stroke:#0072B8;stroke-width:3;stroke-miterlimit:10;}
	.st3{fill:#FFFFFF;stroke:#0072B8;stroke-width:3;stroke-linecap:round;stroke-miterlimit:10;}
	.st4{display:none;fill:#FFFFFF;stroke:#0072B8;stroke-width:3;stroke-linecap:round;stroke-linejoin:round;stroke-miterlimit:10;}
	.st5{fill:#F26325;}
	.st6{fill:none;stroke:#0072B8;stroke-width:3;stroke-linecap:round;stroke-linejoin:round;stroke-miterlimit:10;}
	.st7{fill:none;stroke:#F9F9FA;stroke-width:3;stroke-linecap:round;stroke-linejoin:round;stroke-miterlimit:10;}
	.st8{fill:none;stroke:#FFFFFF;stroke-width:3;stroke-linecap:round;stroke-linejoin:round;stroke-miterlimit:10;}
	.st9{fill:none;stroke:#FFFFFF;stroke-width:3;stroke-linecap:round;stroke-miterlimit:10;}
</style>
<g class="st0">
	<g class="st1">
		<path class="st2" d="M67.1,96.6l-24.4-0.2c-2.6,0-4.6-2.1-4.6-4.7l0,0c0-2.6,2.1-4.6,4.7-4.6l24.4,0.2c2.6,0,4.6,2.1,4.6,4.7l0,0
			C71.8,94.6,69.7,96.6,67.1,96.6z"/>
		<path class="st2" d="M67,106l-24.4-0.2c-2.6,0-4.6-2.1-4.6-4.7l0,0c0-2.6,2.1-4.6,4.7-4.6l24.4,0.2c2.6,0,4.6,2.1,4.6,4.7l0,0
			C71.7,104,69.6,106.1,67,106z"/>
		<path class="st2" d="M32,65.3L32,65.3L32,65.3c0,0.1,0.1,0.1,0.1,0.2c1,1.4,7.2,10.4,9.6,21.7h26.1c2.4-11.4,8.6-20.3,9.6-21.7
			c0-0.1,0.1-0.1,0.1-0.2l0,0h0c0.5-0.7,1-1.4,1.4-2.1c2.5-4.2,4-9.2,4-14.4c0-15.5-12.6-28.1-28.1-28.1
			c-15.5,0-28.1,12.6-28.1,28.1c0,5.3,1.5,10.2,4,14.4C31,63.9,31.5,64.6,32,65.3z"/>
		<path class="st2" d="M44,105.9c1.3,4.7,5.6,8.2,10.7,8.2c5.1,0,9.3-3.4,10.7-8L44,105.9z"/>
		<path class="st2" d="M49.8,87.1V63.6c0-2.3-1.9-4.2-4.2-4.2c-2.3,0-4.2,1.9-4.2,4.2c0,2.3,1.9,4.2,4.2,4.2h9.3"/>
		<path class="st2" d="M60,87.1V63.6c0-2.3,1.9-4.2,4.2-4.2c2.3,0,4.2,1.9,4.2,4.2c0,2.3-1.9,4.2-4.2,4.2h-9.3"/>
	</g>
	<g class="st1">
		<line class="st3" x1="90.2" y1="54.4" x2="98.1" y2="54.4"/>
		<line class="st3" x1="90.5" y1="44.4" x2="97.5" y2="40.9"/>
		<line class="st3" x1="87.8" y1="63.7" x2="94.8" y2="67.2"/>
	</g>
	<g class="st1">
		<line class="st3" x1="17.3" y1="54.4" x2="9.5" y2="54.4"/>
		<line class="st3" x1="17" y1="44.4" x2="10" y2="40.9"/>
		<line class="st3" x1="19.8" y1="63.7" x2="12.8" y2="67.2"/>
	</g>
</g>
<path class="st4" d="M125.1,5.3c0,7.8-6.4,14.2-14.2,14.2c7.8,0,14.2,6.4,14.2,14.2c0-7.8,6.4-14.2,14.2-14.2
	C131.4,19.4,125.1,13.1,125.1,5.3"/>
<g class="st0">
	<g class="st1">
		<path class="st5" d="M111.2,103c-0.1,1.2-0.3,2.5-0.5,3.7c-0.1,1-0.4,1.9-0.8,2.8c-0.3,0.7-0.5,1.3-0.8,1.9
			c-0.2,0.5-0.5,0.9-0.9,1.1c-0.2,0.2-0.4,0.4-0.6,0.5c-0.4,0.3-0.8,0.6-1.3,0.7c-0.5,0-1.1,0.1-1.6-0.1c-0.7-0.2-1.4-0.4-1.9-0.8
			c-0.3-0.2-0.7-0.4-0.9-0.7c-0.3-0.4-0.6-1-0.9-1.4c-0.2-0.3-0.3-0.7-0.5-1c0,0,0,0,0,0c-0.2-0.7-0.4-1.3-0.6-2
			c-0.1-0.2-0.1-0.3-0.2-0.5c-0.2-0.4-0.3-0.9-0.4-1.3c0-0.2-0.2-0.4-0.2-0.6c-0.2-0.5-0.3-1-0.5-1.5c0-0.1-0.1-0.2-0.1-0.3
			c0,0,0.1,0,0.1-0.1c-0.1-0.4-0.4-0.8-0.2-1.4c0,0,0-0.1-0.1-0.1c0.1,0,0.1,0,0.2-0.1c-0.1,0-0.2-0.1-0.3-0.2c0-0.7,0-1.4,0.1-2.1
			c0-0.3-0.3-0.6,0-0.9c0,0,0,0-0.1-0.1c0,0,0,0,0-0.1l0,0c0,0,0.1,0,0.2,0c-0.1-0.1-0.1-0.1-0.2-0.2c0,0,0-0.1,0-0.2
			c0,0-0.1,0-0.1-0.1c0-0.1,0-0.2,0-0.3c0.1,0,0.1,0,0.2,0c0,0.1,0,0.2,0,0.2c0.1,0,0.2,0,0.3-0.1c-0.1-0.1-0.1-0.1-0.2-0.2
			c0,0,0.1-0.1,0.1-0.2c0-0.2,0-0.4,0.3-0.5c0,0,0-0.1,0-0.2c0,0,0,0,0,0c0-0.2,0-0.4,0.1-0.7c-0.2,0-0.3-0.1-0.4-0.1
			c0,0,0,0.1-0.1,0.1c0.1,0.1,0.2,0.2,0.2,0.3c-0.1,0-0.2,0-0.2,0c-0.3-0.2-0.1-0.5-0.1-0.7c0-0.3,0-0.6,0.1-0.9
			c0-0.2,0.2-0.5,0.2-0.7c0.1-0.2,0.1-0.4,0.2-0.7c0.1-0.4,0.2-0.9,0.4-1.3c0.1-0.2,0.2-0.4,0.3-0.7c0.2-0.3,0.3-0.7,0.6-1
			c0.2-0.3,0.5-0.6,0.7-0.9c0.2-0.2,0.4-0.5,0.6-0.6c0.3-0.2,0.7-0.3,1.1-0.2c0.3,0,0.5,0,0.8-0.1c0.7-0.1,1.4-0.2,2.1,0
			c0.7,0.2,1.5,0.4,2.2,0.8c1.2,0.7,1.9,1.7,2.3,3c0.3,1,0.6,2,0.9,2.9c0.2,0.7,0.3,1.5,0.4,2.2c0.1,0.9,0.2,1.7,0.2,2.6
			C111.4,101.3,111.3,102.2,111.2,103z M98.2,97.9c0-0.3,0.1-0.5,0.1-0.7c0,0,0,0.1,0,0.2c0,0,0.1,0,0.1,0c0,0.1,0,0.2,0,0.3
			C98.4,97.7,98.4,97.8,98.2,97.9z M98.6,97.3c-0.1,0-0.2,0-0.3-0.1c0,0,0-0.1,0-0.2c0.1,0,0.1,0,0.2,0
			C98.5,97.1,98.6,97.2,98.6,97.3z M98.3,97.2C98.3,97.2,98.3,97.2,98.3,97.2L98.3,97.2z M98.9,96.2c-0.1,0.1-0.2,0.1-0.3,0.2
			c0,0,0,0,0,0c0,0,0.1,0,0.1-0.1c0,0,0.1,0,0.2,0.1C98.9,96.3,98.9,96.2,98.9,96.2z M108.8,100.4c0-0.4,0-0.8,0-1.2
			c-0.1-0.1-0.2-0.6-0.1-1c0-0.3,0-0.6,0-0.9c0-0.1,0-0.3,0-0.4c0-0.2,0-0.3-0.1-0.4c0-0.6-0.2-1.2-0.4-1.7c-0.2-0.3-0.3-0.7-0.4-1
			c-0.2-0.5-0.4-1-0.5-1.5c0-0.1-0.1-0.2-0.1-0.2l0,0c-0.2-0.3-0.4-0.6-0.7-0.9c-0.4-0.6-1-1-1.7-1c-0.1,0-0.2,0-0.2,0.1
			c-0.3,0.4-0.6,0.7-0.9,1.2c-0.4,0.7-0.6,1.4-0.7,2.2c-0.2,1-0.4,1.9-0.6,2.9c-0.3,1.3-0.4,2.6-0.3,3.9c0,0.4,0,0.7,0,1.1
			c0,0.5,0,1,0,1.5c0.1,0.7,0.2,1.4,0.4,2.1c0.2,0.8,0.4,1.6,0.7,2.4c0.2,0.6,0.4,1.2,0.8,1.7c0.4,0.5,0.8,1,1.2,1.6
			c0.1,0.2,0.2,0.3,0.4,0.1c0,0.1,0,0.2,0,0.3c0.1,0,0.2,0,0.3,0c0.3-0.2,0.6-0.5,0.9-0.8c0.1-0.1,0.2-0.2,0.3-0.3c0,0,0,0,0.1,0
			c0-0.2,0.1-0.4,0.1-0.7c0.5-0.4,0.5-1.1,0.8-1.7c0-0.1,0.1-0.2,0.1-0.3c0.1-0.3,0.2-0.6,0.3-0.9c0,0,0,0,0.1-0.1c0-0.3,0-0.7,0-1
			c0-0.2,0-0.4,0-0.7c0-0.4,0-0.8,0-1.2c0-0.2,0-0.4,0-0.7c0-0.5-0.1-0.9,0.1-1.4c0.1-0.2,0.1-0.3,0.2-0.5
			C108.8,100.7,108.8,100.6,108.8,100.4L108.8,100.4z M109.2,98.8c0-0.2,0-0.4-0.1-0.6h0c0,0.1,0,0.1,0,0.1
			c-0.1,0.2-0.1,0.3-0.2,0.5c0.1,0,0.1,0.1,0.2,0.1C109.1,98.8,109.2,98.8,109.2,98.8z"/>
		<path class="st5" d="M113.9,86.9c0.3-0.1,0.5,0,0.8,0.2c0.2,0.2,0.5,0.2,0.7,0.4c0.5,0.3,0.7,0.8,0.8,1.4c0,0.2,0.2,0.5,0.2,0.7
			c0,0.1,0.1,0.1,0.1,0.2c0,0.3,0,0.6,0.1,1c0.2,0.3,0.3,0.8,0.3,1.2c0.1,0.6,0.4,1.2,0.4,1.8c0,0.4,0.2,0.8,0.3,1.2
			c0.1,0.3,0.1,0.6,0.2,0.9c0.2,0.4,0.3,0.9,0.5,1.3c0.1,0.4,0.3,0.8,0.4,1.2c0.1,0.4,0.2,0.8,0.3,1.2c0.1,0.2,0.1,0.3,0.2,0.5
			c0.1,0.4,0.2,0.9,0.4,1.3c0.1,0.3,0.2,0.7,0.3,1c0.3,0.9,0.6,1.9,0.9,2.9c0,0,0,0.1,0.1,0.1c0-0.1,0.1-0.3,0.1-0.4
			c-0.1-0.7,0-1.4,0-2.1c0.1-0.8,0.1-1.5,0.2-2.3c0-0.4,0.1-0.8,0.1-1.2c0-0.7,0-1.3,0-1.9c0-0.9,0.1-1.7,0.1-2.5
			c0-1.2,0-2.4,0.1-3.6c0-1.3,0-2.6,0.1-3.8c0-0.2,0-0.3,0.1-0.5c0-0.1,0.1-0.2,0.1-0.3c0.4,0,0.7,0.2,1,0.4
			c0.2,0.2,0.3,0.4,0.5,0.6c0,0,0,0,0,0.1c0.1,0.5,0.2,1,0.2,1.5c0,0.3,0.1,0.5,0.1,0.8c0,0.5,0,1,0,1.6c0,0.5,0,1,0,1.5
			c0,0.3,0,0.6,0.1,0.9c0,0.4,0,0.8,0.1,1.1c0,0.2,0,0.3,0,0.5c0,0.1,0,0.2,0,0.3c0,0.7-0.1,1.3-0.1,1.9c0,0.5,0,1,0,1.5
			c0,0.1,0,0.2,0,0.4c0,0-0.1,0.1-0.2,0.1c0.2,0.2,0.2,0.4,0.1,0.6c0,0.4,0,0.9,0,1.3c0,0.8,0,1.5,0,2.3c0,0.4,0,0.9,0,1.2
			c0,0.2,0,0.4,0,0.6c0,0.6,0,1.2,0,1.9c0,0.3,0,0.5,0,0.8c0,0.4,0.1,0.8,0.1,1.2c0,0.6,0,1.1,0,1.7c0,0.1-0.1,0.2-0.1,0.3
			c0,0.3-0.1,0.6-0.1,0.9c0,0.3-0.1,0.6-0.1,0.9c-0.3,0.1-0.5,0.2-0.7,0.3c-0.1,0-0.2,0-0.3,0c-0.3-0.2-0.6-0.3-0.7-0.6
			c0,0,0-0.1-0.1-0.1c-0.2-0.2-0.4-0.4-0.5-0.7c-0.2-0.4-0.5-0.8-0.7-1.2c-0.1-0.2-0.2-0.5-0.3-0.8c-0.2-0.5-0.4-1.1-0.6-1.6
			c-0.2-0.7-0.5-1.4-0.7-2.2c-0.3-1.2-0.6-2.3-0.9-3.5c-0.3-1-0.7-2.1-0.9-3.1c-0.1-0.5-0.2-1-0.3-1.5c-0.1-0.4-0.1-0.8-0.3-1.1
			c-0.3-0.9-0.3-1.9-0.7-2.8c-0.1-0.2-0.2-0.4-0.2-0.7c0,0-0.1,0-0.1,0c0,0.2,0,0.4,0.1,0.6c0,0.4,0,0.8,0.1,1.1
			c0.1,0.5,0.1,1.1,0.2,1.6c0,0.7,0,1.3,0.1,2c0,0.7,0.1,1.5,0.1,2.2c0,0.2,0,0.5,0,0.7c0,0.2,0,0.4,0,0.6c0,0.8,0,1.5,0.1,2.2
			c0,0.4,0,0.9,0,1.3c0,0.3,0,0.5,0,0.8c0,0.5,0,0.9,0,1.4c0,0.5,0,1.1,0,1.7c0,0.6,0,1.2-0.1,1.9c0,0,0.1,0.1,0.2,0.2
			c0,0.1-0.1,0.1-0.2,0.1c0,0.2,0,0.4-0.1,0.6c0,0.3-0.4,0.6-0.7,0.6c-0.5,0-0.9-0.1-1.2-0.6c-0.2-0.3-0.3-0.6-0.4-1
			c-0.1-0.9-0.2-1.9-0.1-2.8c0-0.3,0-0.7,0-1c0-0.5,0-1.1,0-1.7c0-0.4,0-0.8,0-1.2c0-0.5,0-1,0-1.6c0-0.6,0-1.2,0-1.9
			c0-0.6,0.1-1.2,0.1-1.8c0-0.8,0-1.6,0-2.4c0-0.5,0-1.1,0-1.7c0-0.7-0.1-1.4-0.1-2.1c0-0.9,0-1.8,0-2.7c0-1,0-2-0.1-3
			c0-0.3,0-0.6,0-0.9c0-0.1,0.1-0.2,0.2-0.3C113.5,86.7,113.7,86.8,113.9,86.9z M113.8,112.1C113.8,112.2,113.8,112.2,113.8,112.1
			c0,0.2,0,0.3,0.3,0.3C113.9,112.3,113.9,112.3,113.8,112.1z M114.6,96.4c0,0.2,0,0.3,0,0.4c-0.1,0.2-0.1,0.3,0,0.4c0,0,0,0,0.1,0
			c0-0.2,0-0.3,0-0.4C114.7,96.6,114.7,96.5,114.6,96.4z M115,92.9c0,0.1,0,0.2-0.1,0.2c0.1,0,0.2,0,0.3,0
			C115.1,93,115.1,92.9,115,92.9z M115,101.2c0,0,0-0.1,0.1-0.2c0,0-0.1,0-0.1,0C115,101.1,115,101.1,115,101.2
			C115,101.2,115,101.2,115,101.2z M115.1,93.9c-0.1,0-0.2,0.1-0.2,0.3C115,94.1,115.1,94,115.1,93.9
			C115.1,93.9,115.1,93.9,115.1,93.9z M115.2,97.4c-0.2,0-0.2,0-0.1,0.2C115.1,97.5,115.1,97.4,115.2,97.4z"/>
		<path class="st5" d="M137.7,112.6C137.6,112.6,137.6,112.6,137.7,112.6c-0.2,0.1-0.3,0.3-0.5,0.3c-0.4,0.2-0.9,0.3-1.3,0.5
			c-0.5,0.2-1.1,0.3-1.7,0.3c-0.3,0-0.7,0.1-1,0.2c-0.2,0-0.4,0-0.5-0.1c-0.2-0.1-0.4,0-0.6,0c-0.1,0-0.2,0-0.2,0
			c-0.3,0-0.7,0-0.9,0c-0.3,0-0.6,0-0.9,0c-0.2,0-0.3,0-0.5-0.1c0,0,0,0,0,0.1c-0.1,0-0.3,0-0.4,0c-0.3-0.1-0.6-0.3-0.9-0.4
			c-0.6-0.2-1-0.5-1.5-0.8c-0.4-0.3-0.9-1.1-0.7-1.7c0-0.1,0-0.2,0-0.3c0-0.1,0.1-0.2,0.1-0.3c0-0.4,0-0.7,0-1.2c0-0.6,0-1.3-0.1-2
			c0-0.2,0-0.5,0-0.7c0-0.2,0-0.3,0-0.5c0-0.4,0.1-0.8,0-1.2c-0.1-0.6,0-1.2,0-1.8c0-0.4-0.1-0.8-0.1-1.2c0-0.5,0-1.1,0-1.7
			c0-0.5,0-0.9,0.1-1.4c0-0.5,0.1-1,0.1-1.5c0-0.3-0.1-0.6,0-1c0-0.5,0.1-1,0.2-1.5c0-0.3,0-0.7,0-1.1c0-0.5,0-0.9,0-1.4
			c0-0.6,0-1.2,0.1-1.8c0-0.4,0-0.7,0.3-1c0.2-0.2,0.5-0.3,0.7-0.1c0,0,0.1,0,0.2,0.1c0.1,0.2,0.2,0.5,0.3,0.8c0.1,0.3,0,0.7,0.1,1
			c0,0.2,0.1,0.4,0.2,0.6c0,0.2,0.1,0.3,0.1,0.5c0,0.2,0.1,0.5,0.1,0.7c0,0.3,0,0.6,0,0.9c0,0.3,0,0.5,0,0.8c0,0.3,0,0.7,0,1.1
			c0,0.3-0.1,0.6,0,0.9c0,0.2,0,0.3,0,0.5c0,0.3,0,0.7,0.1,1.1c0,0.5,0,1,0,1.5c0,0.4,0,0.9,0,1.3c0,0.6-0.1,1.3-0.2,1.9
			c0,0.3,0,0.5,0.1,0.8c0,0.4,0,0.8,0,1.2c0,0.2,0,0.3,0,0.6c0,0.1,0,0.2,0,0.3c0.3,0.2,0.2,0.5,0.2,0.7c0,0.4,0,0.8,0,1.2
			c0,0.2,0,0.5,0,0.7c0,0.1,0,0.1,0,0.2c0.1,0.4,0.2,0.8,0.3,1.2c0.1,0.3,0.3,0.6,0.4,0.9c0.1,0.1,0.2,0.2,0.3,0.4
			c0.1,0.2,0.3,0.3,0.6,0.3c0.3,0,0.5,0.2,0.9,0.2c0.7,0,1.4,0,2.1,0c0.3,0,0.5,0,0.7,0c0.3,0,0.6-0.1,0.9-0.1c0.3,0,0.5,0,0.7,0
			c0.1,0,0.1,0,0.2,0c0.5-0.2,0.9-0.2,1.4,0c0.3,0.1,0.7,0.4,0.7,0.7C137.6,112.3,137.6,112.5,137.7,112.6z M128.1,111.2
			c-0.1-0.1-0.2-0.2-0.3-0.3c0,0.2,0,0.2,0,0.3c0.1,0,0.2,0,0.2,0.1C128.1,111.3,128.1,111.2,128.1,111.2z"/>
		<path class="st5" d="M141.1,113.7C141.1,113.6,141.1,113.6,141.1,113.7c-0.4-0.2-0.9-0.3-1.3-0.4c-0.6-0.2-1-0.4-1-1
			c0-0.5-0.1-1-0.1-1.6c0-0.3,0.1-0.5,0.1-0.9c0-0.2,0-0.3-0.1-0.4c0-0.7,0-1.3,0-2c0-0.9,0-1.9,0-2.8c0-0.5,0-0.9,0-1.4
			c0-0.4,0-0.8,0-1.2c0-0.5,0.1-1.1,0.1-1.6c0-0.5,0-1.1,0-1.7c0-0.5,0-1-0.1-1.5c0-0.6,0-1.2,0-1.8c0.1,0,0.1,0,0.2-0.1
			c0-0.1,0-0.2,0-0.2c0,0,0,0-0.1,0c0-1.7-0.2-3.5,0-5.2c0-0.9-0.1-1.7-0.1-2.6c0.3-0.1,0.7-0.1,1.1,0.1c0.3,0.2,0.6,0.3,0.9,0.5
			c0.2,0.1,0.4,0.4,0.3,0.7c0,0.2,0,0.5,0,0.7c0,0.2,0,0.3,0,0.5c0,0.2,0.1,0.4,0.1,0.6c0,0.4,0.1,0.8,0.1,1.2
			c0,0.4-0.1,0.8-0.1,1.1c0,0.4,0,0.8,0.1,1.1c0.1,0.5,0.2,1,0.2,1.5c0,0.3,0,0.5,0,0.8c0,0.2,0,0.5,0.1,0.7
			c0.2,0.4,0.1,0.9,0.1,1.3c0,0.3,0.1,0.6,0.2,0.9c0,0,0,0-0.1,0c0,0.2,0.1,0.4,0.1,0.6c0,0.5,0.1,1,0.1,1.5c0,0.3,0,0.7,0,1
			c0,0.5,0,0.9,0,1.4c0,0.3,0,0.6,0,0.9c0,0.4,0,0.8-0.1,1.2c0,0.6,0,1.2,0,1.8c0,0,0,0,0,0.1c0,0.1,0,0.2,0,0.3c0,0.4,0,0.9,0,1.3
			c0,0.6,0,1.2,0,1.7c0,0.3,0,0.6-0.2,0.8c-0.1,0.2-0.1,0.3-0.1,0.5c0,0.2,0,0.3,0,0.4c0,0.3-0.1,0.6-0.1,0.9
			C141.3,113.6,141.2,113.6,141.1,113.7z M138.9,101.5c0,0.1,0,0.2,0,0.2c0,0,0.1,0,0.2,0c0,0,0,0,0,0
			C139.1,101.6,139.1,101.5,138.9,101.5C139,101.5,139,101.5,138.9,101.5z M139,100.3c0.2,0.1,0.2,0.2,0.3,0.2c0,0,0.1,0,0.2,0
			c0,0,0.1,0.1,0.2,0.1c0-0.2-0.1-0.5-0.2-0.7c0,0.1-0.1,0.2-0.1,0.2C139.2,100.3,139.1,100.3,139,100.3z M139.4,106.7
			c0-0.1-0.1-0.2-0.1-0.3c0,0.1-0.1,0.2-0.2,0.2c0,0,0.1,0,0.1,0.1C139.3,106.7,139.4,106.7,139.4,106.7z M139.3,96
			c0,0.2,0,0.3,0.1,0.5c0.1-0.1,0.1-0.1,0.2-0.1C139.5,96.3,139.4,96.2,139.3,96C139.4,96,139.4,96,139.3,96z M139.8,107.3
			c0-0.1,0-0.1,0-0.2c0,0-0.1-0.1-0.2-0.2c0,0,0,0-0.1,0C139.6,107.1,139.7,107.2,139.8,107.3C139.7,107.3,139.7,107.3,139.8,107.3z
			 M139.8,94c0,0.1,0,0.2,0,0.3c0.1,0,0.2,0,0.2-0.1c0-0.1,0-0.2,0-0.2C139.9,94,139.8,94,139.8,94z M139.8,92.5c0,0.1,0,0.2,0,0.2
			c0.1,0,0.1,0,0.1,0.1c0,0,0,0.1,0,0.1c0.1,0,0.2-0.1,0.3-0.2c0-0.1,0-0.2,0-0.2C140,92.6,139.9,92.6,139.8,92.5z M140,112
			c0,0.1-0.1,0.2-0.1,0.3c0,0,0.1,0,0.2,0c0,0.1,0,0.2,0,0.3c0.1,0,0.2,0,0.2,0c0,0.1,0.1,0.2,0.1,0.2c0,0,0.1,0.1,0.2,0.1
			c0,0,0-0.1,0.1-0.1c0-0.1-0.1-0.2-0.1-0.4c0,0,0-0.1,0-0.1c0,0,0-0.1-0.1-0.1c-0.1,0.1-0.2,0.2-0.3,0.3c0,0,0,0,0-0.1
			c0,0,0-0.1,0.1-0.1C140.1,112.1,140.1,112.1,140,112z"/>
		<path class="st5" d="M145,86.9c0.3-0.1,0.5,0,0.8,0.2c0.2,0.2,0.5,0.2,0.7,0.4c0.5,0.3,0.7,0.8,0.8,1.4c0,0.2,0.2,0.5,0.2,0.7
			c0,0.1,0.1,0.1,0.1,0.2c0,0.3,0,0.6,0.1,1c0.2,0.3,0.3,0.8,0.3,1.2c0.1,0.6,0.4,1.2,0.4,1.8c0,0.4,0.2,0.8,0.3,1.2
			c0.1,0.3,0.1,0.6,0.2,0.9c0.2,0.4,0.3,0.9,0.5,1.3c0.1,0.4,0.3,0.8,0.4,1.2c0.1,0.4,0.2,0.8,0.3,1.2c0.1,0.2,0.1,0.3,0.2,0.5
			c0.1,0.4,0.2,0.9,0.4,1.3c0.1,0.3,0.2,0.7,0.3,1c0.3,0.9,0.6,1.9,0.9,2.9c0,0,0,0.1,0.1,0.1c0-0.1,0.1-0.3,0.1-0.4
			c-0.1-0.7,0-1.4,0-2.1c0.1-0.8,0.1-1.5,0.2-2.3c0-0.4,0.1-0.8,0.1-1.2c0-0.7,0-1.3,0-1.9c0-0.9,0.1-1.7,0.1-2.5
			c0-1.2,0-2.4,0.1-3.6c0-1.3,0-2.6,0.1-3.8c0-0.2,0-0.3,0.1-0.5c0-0.1,0.1-0.2,0.1-0.3c0.4,0,0.7,0.2,1,0.4
			c0.2,0.2,0.3,0.4,0.5,0.6c0,0,0,0,0,0.1c0.1,0.5,0.2,1,0.2,1.5c0,0.3,0.1,0.5,0.1,0.8c0,0.5,0,1,0,1.6c0,0.5,0,1,0,1.5
			c0,0.3,0,0.6,0.1,0.9c0,0.4,0,0.8,0.1,1.1c0,0.2,0,0.3,0,0.5c0,0.1,0,0.2,0,0.3c0,0.7-0.1,1.3-0.1,1.9c0,0.5,0,1,0,1.5
			c0,0.1,0,0.2,0,0.4c0,0-0.1,0.1-0.2,0.1c0.2,0.2,0.2,0.4,0.1,0.6c0,0.4,0,0.9,0,1.3c0,0.8,0,1.5,0,2.3c0,0.4,0,0.9,0,1.2
			c0,0.2,0,0.4,0,0.6c0,0.6,0,1.2,0,1.9c0,0.3,0,0.5,0,0.8c0,0.4,0.1,0.8,0.1,1.2c0,0.6,0,1.1,0,1.7c0,0.1-0.1,0.2-0.1,0.3
			c0,0.3-0.1,0.6-0.1,0.9c0,0.3-0.1,0.6-0.1,0.9c-0.3,0.1-0.5,0.2-0.7,0.3c-0.1,0-0.2,0-0.3,0c-0.3-0.2-0.6-0.3-0.7-0.6
			c0,0,0-0.1-0.1-0.1c-0.2-0.2-0.4-0.4-0.5-0.7c-0.2-0.4-0.5-0.8-0.7-1.2c-0.1-0.2-0.2-0.5-0.3-0.8c-0.2-0.5-0.4-1.1-0.6-1.6
			c-0.2-0.7-0.5-1.4-0.7-2.2c-0.3-1.2-0.6-2.3-0.9-3.5c-0.3-1-0.7-2.1-0.9-3.1c-0.1-0.5-0.2-1-0.3-1.5c-0.1-0.4-0.1-0.8-0.3-1.1
			c-0.3-0.9-0.3-1.9-0.7-2.8c-0.1-0.2-0.2-0.4-0.2-0.7c0,0-0.1,0-0.1,0c0,0.2,0,0.4,0.1,0.6c0,0.4,0,0.8,0.1,1.1
			c0.1,0.5,0.1,1.1,0.2,1.6c0,0.7,0,1.3,0.1,2c0,0.7,0.1,1.5,0.1,2.2c0,0.2,0,0.5,0,0.7c0,0.2,0,0.4,0,0.6c0,0.8,0,1.5,0.1,2.2
			c0,0.4,0,0.9,0,1.3c0,0.3,0,0.5,0,0.8c0,0.5,0,0.9,0,1.4c0,0.5,0,1.1,0,1.7c0,0.6,0,1.2-0.1,1.9c0,0,0.1,0.1,0.2,0.2
			c0,0.1-0.1,0.1-0.2,0.1c0,0.2,0,0.4-0.1,0.6c0,0.3-0.4,0.6-0.7,0.6c-0.5,0-0.9-0.1-1.2-0.6c-0.2-0.3-0.3-0.6-0.4-1
			c-0.1-0.9-0.2-1.9-0.1-2.8c0-0.3,0-0.7,0-1c0-0.5,0-1.1,0-1.7c0-0.4,0-0.8,0-1.2c0-0.5,0-1,0-1.6c0-0.6,0-1.2,0-1.9
			c0-0.6,0.1-1.2,0.1-1.8c0-0.8,0-1.6,0-2.4c0-0.5,0-1.1,0-1.7c0-0.7-0.1-1.4-0.1-2.1c0-0.9,0-1.8,0-2.7c0-1,0-2-0.1-3
			c0-0.3,0-0.6,0-0.9c0-0.1,0.1-0.2,0.2-0.3C144.6,86.7,144.7,86.8,145,86.9z M144.8,112.1C144.8,112.2,144.8,112.2,144.8,112.1
			c0,0.2,0,0.3,0.3,0.3C145,112.3,144.9,112.3,144.8,112.1z M145.6,96.4c0,0.2,0,0.3,0,0.4c-0.1,0.2-0.1,0.3,0,0.4c0,0,0,0,0.1,0
			c0-0.2,0-0.3,0-0.4C145.8,96.6,145.7,96.5,145.6,96.4z M146,92.9c0,0.1,0,0.2-0.1,0.2c0.1,0,0.2,0,0.3,0
			C146.1,93,146.1,92.9,146,92.9z M146,101.2c0,0,0-0.1,0.1-0.2c0,0-0.1,0-0.1,0C146,101.1,146,101.1,146,101.2
			C146,101.2,146,101.2,146,101.2z M146.1,93.9c-0.1,0-0.2,0.1-0.2,0.3C146.1,94.1,146.1,94,146.1,93.9
			C146.1,93.9,146.1,93.9,146.1,93.9z M146.2,97.4c-0.2,0-0.2,0-0.1,0.2C146.2,97.5,146.2,97.4,146.2,97.4z"/>
		<path class="st5" d="M161.2,110.5c0.2,0.1,0.5,0.2,0.7,0.3c0.8,0.3,1.5-0.1,2.2-0.3c0.5-0.2,0.9-0.3,1.3-0.5c0.2,0,0.3,0,0.5,0
			c0,0.1,0,0.2,0,0.2c0,0,0,0.1,0.1,0.1c0,0.2-0.1,0.3-0.1,0.3c0.2,0.2,0.3,0.4,0.5,0.5c0.2,0.2,0.2,0.4,0.1,0.6c0,0.1,0,0.2,0,0.2
			c0,0.4-0.2,0.7-0.6,0.9c-0.6,0.2-1.1,0.4-1.7,0.5c-0.3,0-0.5,0-0.8,0.2c-0.2,0.1-0.4,0.1-0.6,0.1c-0.3,0-0.6,0-0.9-0.1
			c-0.7-0.2-1.4-0.3-2-0.7c-0.1-0.1-0.2-0.1-0.3-0.2c-0.1-0.1-0.2-0.1-0.3-0.2c-0.1-0.1-0.2-0.2-0.3-0.4c-0.1,0-0.1-0.2-0.2-0.2
			c-0.3-0.4-0.6-0.8-0.9-1.3c-0.3-0.4-0.3-0.9-0.4-1.4c-0.2-0.6-0.2-1.2-0.2-1.9c0-0.6,0.1-1.3,0.1-1.9c0-0.2,0-0.4,0-0.6
			c0-0.7,0-1.3,0-1.9c0-1.1,0-2.2,0.1-3.3c0-0.8,0.1-1.6,0.1-2.4c0.1-1,0.2-2,0.2-3c0-0.7,0.1-1.3,0.2-2c0.1-1,0.2-2.1,0.4-3.1
			c0-0.3,0.1-0.6,0.2-1c0.1-0.4,0.5-0.7,0.9-0.7c0.2,0,0.5,0,0.7-0.1c0.3,0,0.7-0.1,1-0.1c0.5,0,1,0,1.5,0c0.1,0,0.3,0,0.4,0
			c0.3,0,0.7,0,1,0c0.5,0,0.9,0.2,1.4,0.2c0.2,0,0.3,0.1,0.5,0.1c0.1,0,0.2,0.1,0.2,0.2c0.1,0.3,0.3,0.2,0.5,0.3
			c0.2,0,0.3,0.1,0.6,0.1c0,0.1,0,0.2-0.1,0.3c0,0,0,0,0,0c-0.1,0.1-0.2,0.2-0.3,0.3c0,0,0,0,0,0c-0.1,0-0.2,0.1-0.3,0.1
			c0,0-0.1,0-0.2,0c0,0,0,0,0,0.1c-0.2,0-0.3,0.1-0.4,0.1c-0.4,0-0.9,0.1-1.3,0.2c-0.2,0.1-0.4,0.1-0.7,0.2c-0.1,0-0.2,0-0.2,0
			c-0.5,0.2-1,0-1.4,0.1c-0.5,0.1-0.9,0.2-1.2,0.2c-0.2,0-0.3,0.2-0.2,0.3c0.1,0.5-0.1,1-0.2,1.5c0,0.2,0,0.5-0.1,0.7
			c0,0.2,0,0.4-0.1,0.7c0,0.1,0.1,0.2,0.1,0.3c0,0.3,0,0.5,0,0.8c0,0.4,0.1,0.8,0.1,1.2c0,0.2-0.1,0.4-0.1,0.6c0,0.3,0,0.5,0,0.8
			c0,0.1,0,0.2,0,0.2c0,0.5,0,1.1,0,1.7c0,0.2,0,0.3,0,0.4c-0.2,0.3-0.3,0-0.5,0c0,0.3,0.3,0.4,0.5,0.5c0.1,0,0.2,0,0.2,0
			c0.6-0.1,1.2-0.2,1.8-0.3c0.4,0,0.8,0,1.1,0c0.5,0,1,0.1,1.4,0.2c0.3,0.1,0.7,0.2,1.1,0.2c0.1,0.2,0,0.3-0.2,0.5
			c-0.1,0.1-0.2,0.3-0.3,0.4c-0.1,0.1-0.2,0.2-0.2,0.2c0,0,0,0.1,0,0.2v0c-0.3,0.2-0.4,0.5-0.8,0.6c-0.4,0.1-0.7,0-1.1,0.1
			c-0.8,0.2-1.7,0.1-2.5,0c-0.2,0-0.4,0-0.7,0c-0.1,0-0.2,0.2-0.3,0.2c0,0.1,0,0.1,0,0.2h0c0,0.3,0,0.6,0,0.9c0,0,0,0.1,0,0.1h0
			c0,1.1,0.1,2.2,0.1,3.4c0.2,0.2,0.1,0.4,0.1,0.7c0,0,0,0.1,0.1,0.1c0,0.4,0,0.7,0,1.1c0,0,0,0,0.1,0c0,0.1,0,0.2,0.1,0.2
			c0,0.4,0.1,0.8,0.2,1.2c0,0.2,0.1,0.4,0.2,0.6c0,0,0,0.1,0,0.1C161.1,110.4,161.2,110.5,161.2,110.5z M159.4,98.9
			c-0.1-0.1-0.2-0.2-0.2-0.4c0,0.1,0,0.1,0,0.2C159.2,98.8,159.3,98.8,159.4,98.9L159.4,98.9z M159.4,109.9c0,0,0.1,0.1,0.2,0.2l0,0
			c0.1,0,0.2,0.1,0.3,0.1c0,0,0-0.1,0-0.1c0,0-0.1,0-0.1,0c-0.1,0-0.1-0.1-0.1-0.2c0,0,0-0.1,0-0.1
			C159.7,109.8,159.6,109.9,159.4,109.9z M160.9,110.3c0-0.1,0-0.1,0-0.1c-0.1-0.1-0.2-0.1-0.2-0.2c0,0.1-0.1,0.2-0.1,0.4
			C160.6,110.4,160.8,110.4,160.9,110.3z"/>
	</g>
</g>
<g>
	<path class="st5" d="M98,106.7c-0.7-0.3-1.2-0.7-1.6-1.4c-0.2-0.3-0.2-0.6-0.2-0.9c0-0.2,0-0.5,0.1-0.7c0-0.1,0.1-0.3,0.2-0.4
		c0.1-0.3,0.3-0.6,0.5-0.8c0.4-0.4,0.9-0.8,1.5-0.9c0.2,0,0.4-0.1,0.7-0.1c0.4,0.1,0.8,0.1,1.2,0.2c0,0,0.1,0,0.2,0
		c0.1,0,0.2,0.1,0.3,0.1c0.1,0,0.1,0.1,0.2,0.1c0.1,0.1,0.2,0.1,0.3,0.2c0,0.1,0,0.2,0,0.2c-0.1,0.1-0.1,0.2-0.2,0.3
		c-0.1,0.1-0.2,0.2-0.3,0.2c-0.1,0-0.3,0-0.4,0c-0.3,0-0.5,0.1-0.8,0.1c-0.2,0-0.4,0.1-0.6,0.2c-0.2,0.1-0.3,0.1-0.5,0.1
		c-0.4,0.2-0.6,0.7-0.9,1c0,0.1-0.1,0.2-0.1,0.4c0,0.2,0.1,0.4,0.2,0.5c0,0.1,0.1,0.2,0.2,0.4c0.4,0.4,0.8,0.7,1.4,1
		c0.3,0.2,0.6,0.3,0.9,0.4c0,0,0.1,0.1,0.2,0.1c0.4,0.2,0.8,0.4,1.1,0.7c0,0,0.1,0,0.1,0c0.1,0.1,0.3,0.2,0.5,0.4
		c0.2,0.2,0.4,0.5,0.7,0.7c0.1,0.1,0.1,0.2,0.2,0.3c0.1,0.1,0.1,0.2,0.2,0.3c0.1,0.2,0.1,0.3,0.1,0.5c0,0.3,0.1,0.5,0.1,0.8
		c0,0.2-0.1,0.4-0.2,0.6c0,0.1-0.1,0.1-0.1,0.2c0,0.3-0.2,0.6-0.4,0.8c0,0.1-0.1,0.2-0.1,0.3c-0.1,0.2-0.2,0.5-0.3,0.7
		c-0.1,0.2-0.2,0.3-0.4,0.5c-0.1,0.2-0.5,0.5-0.8,0.4c0,0,0,0.1-0.1,0.1c-0.3,0.1-0.5,0.1-0.8,0.2c-0.3,0.1-0.6,0.1-0.8,0.1
		c-0.3,0-0.6,0-0.9-0.2c-0.2-0.1-0.4,0-0.5-0.1c-0.3-0.1-0.7-0.3-1-0.5c0,0,0,0-0.1-0.1c-0.1-0.1-0.2-0.2-0.4-0.3
		c-0.2-0.1-0.3-0.2-0.5-0.3c-0.1-0.1-0.2-0.3-0.2-0.4c0-0.2,0.1-0.3,0.1-0.5c0-0.1,0.1-0.2,0.2-0.2c0.2,0,0.4-0.1,0.6,0.1
		c0.4,0.1,0.7,0.2,0.9,0.3c0.3,0.1,0.6,0.1,0.8,0.1c0.6-0.1,1.1-0.1,1.6-0.2c0.2,0,0.4-0.1,0.5-0.3c0.5-0.5,0.7-1.1,0.8-1.8
		c0-0.3,0-0.7-0.1-1c0-0.1-0.1-0.2-0.2-0.4c-0.1-0.1-0.2-0.3-0.3-0.4c-0.2-0.3-0.4-0.5-0.8-0.6c-0.2-0.1-0.3-0.2-0.5-0.3
		c-0.4-0.2-0.7-0.4-1.1-0.6c-0.2-0.1-0.4-0.2-0.5-0.3c0,0-0.1-0.1-0.1-0.1C98.1,106.7,98,106.7,98,106.7z M102,110
		c0.1,0.1,0.1,0.1,0.2,0.2c0.1-0.1,0.1-0.1,0.1-0.1C102.2,110,102.1,109.9,102,110z M102.5,110.3c0-0.1,0-0.2,0.1-0.4
		c0,0-0.1,0-0.1,0C102.4,110,102.4,110.1,102.5,110.3C102.5,110.2,102.5,110.2,102.5,110.3z M102.7,109.4
		C102.7,109.4,102.7,109.4,102.7,109.4c-0.1,0-0.2,0-0.3,0c0.1,0.1,0.1,0.1,0.1,0.2C102.7,109.5,102.7,109.5,102.7,109.4z"/>
	<path class="st5" d="M110.1,114.1c0,0.1,0,0.2-0.2,0.2c-0.1,0-0.2,0.1-0.1,0.3c0,0.1-0.1,0.1-0.1,0.2c-0.1,0.1-0.2,0.2-0.5,0.3
		c-0.2,0-0.4,0.1-0.6,0.2c-0.1,0-0.1,0-0.2,0c-0.4-0.1-0.8-0.1-1.2-0.2c-0.2-0.1-0.4-0.2-0.6-0.3c-0.1-0.1-0.3-0.2-0.4-0.3
		c-0.2-0.1-0.4-0.3-0.5-0.4c-0.3-0.3-0.6-0.6-0.8-1c-0.2-0.3-0.4-0.7-0.6-1.1c-0.1-0.4-0.2-0.9-0.3-1.3c-0.1-0.4-0.1-0.7-0.1-1.1
		c0-0.3,0-0.5,0-0.7c0-0.4,0.1-0.8,0.2-1.2c0.1-0.3,0.1-0.5,0.2-0.8c0.1-0.4,0.2-0.8,0.4-1.2c0.1-0.4,0.3-0.7,0.5-1
		c0.1-0.2,0.2-0.5,0.3-0.7c0,0,0.1-0.1,0.1-0.1c0.1-0.2,0.1-0.3,0.2-0.4c0.2-0.3,0.3-0.5,0.5-0.8c0.3-0.4,0.7-0.7,1-0.9
		c0.2-0.1,0.4-0.2,0.6-0.3c0.1,0,0.2-0.1,0.3-0.1c0.2,0,0.3,0,0.5-0.1c0.3,0,0.5,0.1,0.7,0.3c0.1,0.1,0.2,0.1,0.3,0.2
		c0,0,0,0.1,0,0.2c0,0-0.1,0-0.1,0c0,0-0.1,0-0.1,0.1c-0.1,0.1-0.2,0.1-0.3,0.1c-0.1,0-0.3,0-0.4,0.1c-0.3,0.1-0.5,0.2-0.7,0.4
		c-0.2,0.1-0.3,0.3-0.5,0.4c-0.1,0.1-0.2,0.2-0.2,0.3c-0.2,0.2-0.3,0.4-0.5,0.7c0,0,0,0.1-0.1,0.1c-0.1,0.2-0.2,0.4-0.3,0.6
		c-0.1,0.2-0.2,0.4-0.3,0.6c-0.2,0.3-0.2,0.7-0.3,1c-0.1,0.4-0.2,0.7-0.3,1.1c0,0.2-0.1,0.3-0.1,0.5c0,0.1-0.1,0.3-0.1,0.4
		c0,0,0,0,0,0c0,0.2-0.1,0.4-0.1,0.6c0,0.2-0.1,0.3-0.1,0.4c0,0.3,0,0.6,0,0.9c0,0.2,0.1,0.3,0.1,0.5c0,0.1,0,0.1,0,0.2
		c0,0.2,0.1,0.4,0.1,0.6c0,0.1,0,0.2,0.1,0.4c0.1,0.1,0.1,0.2,0.2,0.4c0,0.2,0.1,0.3,0.2,0.5c0,0.1,0.1,0.1,0.1,0.2
		c0.1,0.2,0.3,0.3,0.4,0.5c0,0,0,0,0,0c0,0,0,0.1,0,0.1c0,0,0,0,0,0c0.2,0.2,0.3,0.3,0.5,0.5c0.2,0.2,0.4,0.4,0.7,0.5
		c0.2,0,0.4,0,0.6,0c0.2-0.1,0.5-0.2,0.7-0.3c0.1-0.1,0.2-0.2,0.4-0.2c0.1,0,0.2,0,0.4,0c0.1,0,0.2,0,0.2,0c0,0,0.1,0,0.1,0
		C109.9,114,110,114.1,110.1,114.1z"/>
	<path class="st5" d="M112.4,114.9C112.4,114.9,112.4,114.9,112.4,114.9c-0.2-0.1-0.5-0.2-0.7-0.2c-0.3-0.1-0.5-0.2-0.5-0.5
		c0-0.3,0-0.5-0.1-0.8c0-0.1,0-0.3,0-0.4c0-0.1,0-0.1,0-0.2c0-0.3,0-0.7,0-1c0-0.5,0-0.9,0-1.4c0-0.2,0-0.5,0-0.7c0-0.2,0-0.4,0-0.6
		c0-0.3,0-0.6,0-0.8c0-0.3,0-0.6,0-0.8c0-0.2,0-0.5,0-0.8c0-0.3,0-0.6,0-0.9c0,0,0.1,0,0.1,0c0,0,0-0.1,0-0.1c0,0,0,0-0.1,0
		c0-0.9-0.1-1.8,0-2.6c0-0.4,0-0.8,0-1.3c0.2,0,0.4-0.1,0.6,0c0.2,0.1,0.3,0.2,0.5,0.2c0.1,0.1,0.2,0.2,0.2,0.3c0,0.1,0,0.2,0,0.4
		c0,0.1,0,0.2,0,0.3c0,0.1,0,0.2,0,0.3c0,0.2,0,0.4,0,0.6c0,0.2,0,0.4,0,0.6c0,0.2,0,0.4,0,0.6c0,0.3,0.1,0.5,0.1,0.8
		c0,0.1,0,0.3,0,0.4c0,0.1,0,0.3,0,0.4c0.1,0.2,0,0.4,0.1,0.7c0,0.2,0.1,0.3,0.1,0.5c0,0,0,0,0,0c0,0.1,0.1,0.2,0.1,0.3
		c0,0.3,0,0.5,0.1,0.8c0,0.2,0,0.3,0,0.5c0,0.2,0,0.5,0,0.7c0,0.2,0,0.3,0,0.5c0,0.2,0,0.4,0,0.6c0,0.3,0,0.6,0,0.9c0,0,0,0,0,0
		c0,0.1,0,0.1,0,0.2c0,0.2,0,0.5,0,0.7c0,0.3,0,0.6,0,0.9c0,0.1,0,0.3-0.1,0.4c-0.1,0.1,0,0.2,0,0.3c0,0.1,0,0.2,0,0.2
		c0,0.1,0,0.3-0.1,0.4C112.5,114.9,112.4,114.9,112.4,114.9z M111.3,108.7C111.3,108.8,111.3,108.8,111.3,108.7
		c0,0.1,0.1,0.1,0.1,0.1c0,0,0,0,0,0C111.4,108.8,111.4,108.7,111.3,108.7C111.3,108.7,111.3,108.7,111.3,108.7z M111.3,108.1
		c0.1,0.1,0.1,0.1,0.2,0.1c0,0,0.1,0,0.1,0c0,0,0,0,0.1,0.1c0-0.1,0-0.2-0.1-0.4c0,0,0,0.1,0,0.1
		C111.4,108.1,111.4,108.1,111.3,108.1z M111.5,111.4c0-0.1,0-0.1-0.1-0.2c0,0,0,0.1-0.1,0.1C111.4,111.3,111.4,111.3,111.5,111.4
		C111.5,111.4,111.5,111.4,111.5,111.4z M111.5,105.9c0,0.1,0,0.2,0,0.3c0,0,0.1,0,0.1-0.1C111.6,106,111.5,106,111.5,105.9
		C111.5,105.9,111.5,105.9,111.5,105.9z M111.7,111.7C111.7,111.6,111.7,111.6,111.7,111.7c0-0.1,0-0.2-0.1-0.2c0,0,0,0,0,0
		C111.6,111.6,111.6,111.6,111.7,111.7C111.7,111.7,111.7,111.7,111.7,111.7z M111.7,104.9c0,0.1,0,0.1,0,0.2c0,0,0.1,0,0.1,0
		C111.8,105,111.8,104.9,111.7,104.9C111.7,104.9,111.7,104.9,111.7,104.9z M111.7,104.1c0,0,0,0.1,0,0.1c0,0,0,0,0.1,0
		c0,0,0,0,0,0.1c0,0,0.1-0.1,0.1-0.1c0,0,0-0.1,0-0.1C111.8,104.2,111.8,104.2,111.7,104.1z M111.8,114.1c0,0,0,0.1-0.1,0.1
		c0,0,0,0,0.1,0c0,0,0,0.1,0,0.1c0,0,0.1,0,0.1,0c0,0,0,0.1,0.1,0.1c0,0,0.1,0,0.1,0.1c0,0,0,0,0.1-0.1c0-0.1,0-0.1-0.1-0.2
		c0,0,0,0,0-0.1c0,0,0,0,0-0.1c0,0.1-0.1,0.1-0.1,0.1c0,0,0,0,0,0c0,0,0,0,0-0.1C111.9,114.1,111.8,114.1,111.8,114.1z"/>
	<path class="st5" d="M116,113.3c0.1,0,0.2,0.1,0.4,0.1c0.4,0.2,0.8,0,1.1-0.2c0.2-0.1,0.5-0.2,0.7-0.2c0.1,0,0.2,0,0.3,0
		c0,0.1,0,0.1,0,0.1c0,0,0,0,0,0.1c0,0.1,0,0.1-0.1,0.2c0.1,0.1,0.2,0.2,0.3,0.3c0.1,0.1,0.1,0.2,0,0.3c0,0,0,0.1,0,0.1
		c0,0.2-0.1,0.4-0.3,0.5c-0.3,0.1-0.6,0.2-0.9,0.2c-0.1,0-0.3,0-0.4,0.1c-0.1,0-0.2,0-0.3,0c-0.2,0-0.3,0-0.5-0.1
		c-0.4-0.1-0.7-0.1-1-0.4c-0.1,0-0.1-0.1-0.2-0.1c-0.1,0-0.1-0.1-0.2-0.1c0-0.1-0.1-0.1-0.2-0.2c0,0-0.1-0.1-0.1-0.1
		c-0.2-0.2-0.3-0.4-0.5-0.7c-0.1-0.2-0.2-0.5-0.2-0.7c-0.1-0.3-0.1-0.6-0.1-0.9c0-0.3,0-0.7,0.1-1c0-0.1,0-0.2,0-0.3
		c0-0.3,0-0.7,0-1c0-0.6,0-1.1,0-1.7c0-0.4,0-0.8,0.1-1.2c0-0.5,0.1-1,0.1-1.5c0-0.3,0-0.7,0.1-1c0.1-0.5,0.1-1,0.2-1.6
		c0-0.2,0.1-0.3,0.1-0.5c0-0.2,0.3-0.3,0.4-0.4c0.1,0,0.3,0,0.4,0c0.2,0,0.4-0.1,0.5-0.1c0.3,0,0.5,0,0.8,0c0.1,0,0.1,0,0.2,0
		c0.2,0,0.3,0,0.5,0c0.2,0,0.5,0.1,0.7,0.1c0.1,0,0.2,0,0.2,0.1c0,0,0.1,0,0.1,0.1c0.1,0.1,0.2,0.1,0.3,0.1c0.1,0,0.2,0,0.3,0.1
		c0,0.1,0,0.1,0,0.1c0,0,0,0,0,0c-0.1,0.1-0.1,0.1-0.2,0.2c0,0,0,0,0,0c-0.1,0-0.1,0-0.2,0c0,0-0.1,0-0.1,0c0,0,0,0,0,0
		c-0.1,0-0.1,0-0.2,0c-0.2,0-0.4,0.1-0.7,0.1c-0.1,0-0.2,0.1-0.3,0.1c0,0-0.1,0-0.1,0c-0.3,0.1-0.5,0-0.7,0c-0.2,0-0.4,0.1-0.6,0.1
		c-0.1,0-0.1,0.1-0.1,0.2c0,0.3,0,0.5-0.1,0.7c0,0.1,0,0.2,0,0.4c0,0.1,0,0.2,0,0.3c0,0.1,0,0.1,0,0.2c0,0.1,0,0.3,0,0.4
		c0,0.2,0,0.4,0,0.6c0,0.1,0,0.2,0,0.3c0,0.1,0,0.3,0,0.4c0,0,0,0.1,0,0.1c0,0.3,0,0.6,0,0.8c0,0.1,0,0.2,0,0.2
		c-0.1,0.2-0.2,0-0.2,0c0,0.2,0.2,0.2,0.3,0.2c0,0,0.1,0,0.1,0c0.3,0,0.6-0.1,0.9-0.1c0.2,0,0.4,0,0.6,0c0.3,0,0.5,0,0.7,0.1
		c0.2,0,0.4,0.1,0.6,0.1c0,0.1,0,0.2-0.1,0.3c-0.1,0.1-0.1,0.1-0.1,0.2c0,0-0.1,0.1-0.1,0.1c0,0,0,0.1,0,0.1v0
		c-0.1,0.1-0.2,0.3-0.4,0.3c-0.2,0.1-0.4,0-0.6,0.1c-0.4,0.1-0.8,0.1-1.3,0c-0.1,0-0.2,0-0.3,0c0,0-0.1,0.1-0.1,0.1c0,0,0,0.1,0,0.1
		h0c0,0.2,0,0.3,0,0.5c0,0,0,0,0,0.1h0c0,0.6,0,1.1,0.1,1.8c0.1,0.1,0.1,0.2,0,0.4c0,0,0,0,0,0.1c0,0.2,0,0.4,0,0.6c0,0,0,0,0,0
		c0,0,0,0.1,0,0.1c0,0.2,0,0.4,0.1,0.6c0,0.1,0.1,0.2,0.1,0.3C115.9,113.2,115.9,113.2,116,113.3C116,113.3,116,113.3,116,113.3z
		 M115.1,107.4c0-0.1-0.1-0.1-0.1-0.2c0,0,0,0.1,0,0.1C115,107.3,115,107.4,115.1,107.4L115.1,107.4z M115.1,113
		C115.1,113,115.2,113.1,115.1,113l0.1,0.1c0,0,0.1,0,0.1,0.1c0,0,0,0,0-0.1c0,0-0.1,0-0.1,0c0,0,0-0.1-0.1-0.1c0,0,0,0,0-0.1
		C115.2,112.9,115.2,113,115.1,113z M115.8,113.2C115.8,113.2,115.8,113.2,115.8,113.2c0-0.1-0.1-0.1-0.1-0.2c0,0.1,0,0.1-0.1,0.2
		C115.7,113.2,115.8,113.2,115.8,113.2z"/>
	<path class="st5" d="M120.4,101.3c0.1,0,0.3,0,0.4,0.1c0.1,0.1,0.3,0.1,0.4,0.2c0.3,0.2,0.4,0.4,0.4,0.7c0,0.1,0.1,0.2,0.1,0.4
		c0,0,0,0.1,0,0.1c0,0.2,0,0.3,0.1,0.5c0.1,0.2,0.1,0.4,0.2,0.6c0,0.3,0.2,0.6,0.2,0.9c0,0.2,0.1,0.4,0.1,0.6c0,0.1,0.1,0.3,0.1,0.5
		c0.1,0.2,0.2,0.4,0.2,0.7c0.1,0.2,0.1,0.4,0.2,0.6c0,0.2,0.1,0.4,0.1,0.6c0,0.1,0.1,0.2,0.1,0.3c0.1,0.2,0.1,0.4,0.2,0.7
		c0,0.2,0.1,0.4,0.2,0.5c0.2,0.5,0.3,1,0.5,1.5c0,0,0,0,0.1,0.1c0-0.1,0-0.1,0-0.2c-0.1-0.4,0-0.7,0-1c0-0.4,0.1-0.8,0.1-1.2
		c0-0.2,0-0.4,0.1-0.6c0-0.3,0-0.7,0-1c0-0.4,0-0.8,0-1.3c0-0.6,0-1.2,0-1.8c0-0.7,0-1.3,0-2c0-0.1,0-0.2,0-0.3c0,0,0-0.1,0.1-0.1
		c0.2,0,0.4,0.1,0.5,0.2c0.1,0.1,0.2,0.2,0.3,0.3c0,0,0,0,0,0c0,0.3,0.1,0.5,0.1,0.8c0,0.1,0,0.3,0.1,0.4c0,0.3,0,0.5,0,0.8
		c0,0.2,0,0.5,0,0.8c0,0.2,0,0.3,0,0.5c0,0.2,0,0.4,0,0.6c0,0.1,0,0.2,0,0.2c0,0.1,0,0.1,0,0.2c0,0.3,0,0.7,0,1c0,0.3,0,0.5,0,0.7
		c0,0.1,0,0.1,0,0.2c0,0-0.1,0-0.1,0.1c0.1,0.1,0.1,0.2,0.1,0.3c0,0.2,0,0.4,0,0.7c0,0.4,0,0.8,0,1.2c0,0.2,0,0.4,0,0.6
		c0,0.1,0,0.2,0,0.3c0,0.3,0,0.6,0,0.9c0,0.1,0,0.3,0,0.4c0,0.2,0.1,0.4,0.1,0.6c0,0.3,0,0.6,0,0.8c0,0.1,0,0.1,0,0.2
		c0,0.2,0,0.3-0.1,0.5c0,0.2,0,0.3-0.1,0.4c-0.1,0.1-0.3,0.1-0.4,0.2c0,0-0.1,0-0.2,0c-0.1-0.1-0.3-0.1-0.4-0.3c0,0,0,0,0-0.1
		c-0.1-0.1-0.2-0.2-0.3-0.3c-0.1-0.2-0.2-0.4-0.4-0.6c-0.1-0.1-0.1-0.3-0.2-0.4c-0.1-0.3-0.2-0.6-0.3-0.8c-0.1-0.4-0.2-0.7-0.3-1.1
		c-0.2-0.6-0.3-1.2-0.5-1.8c-0.2-0.5-0.3-1-0.5-1.6c-0.1-0.3-0.1-0.5-0.1-0.8c0-0.2-0.1-0.4-0.1-0.6c-0.2-0.5-0.2-1-0.4-1.4
		c0-0.1-0.1-0.2-0.1-0.3c0,0,0,0-0.1,0c0,0.1,0,0.2,0,0.3c0,0.2,0,0.4,0,0.6c0,0.3,0.1,0.6,0.1,0.8c0,0.3,0,0.7,0,1
		c0,0.4,0,0.8,0,1.1c0,0.1,0,0.2,0,0.3c0,0.1,0,0.2,0,0.3c0,0.4,0,0.8,0,1.1c0,0.2,0,0.4,0,0.7c0,0.1,0,0.3,0,0.4c0,0.2,0,0.5,0,0.7
		c0,0.3,0,0.6,0,0.8c0,0.3,0,0.6,0,1c0,0,0.1,0.1,0.1,0.1c0,0,0,0-0.1,0.1c0,0.1,0,0.2,0,0.3c0,0.2-0.2,0.3-0.4,0.3
		c-0.2,0-0.5-0.1-0.6-0.3c-0.1-0.1-0.2-0.3-0.2-0.5c0-0.5-0.1-0.9,0-1.4c0-0.2,0-0.4,0-0.5c0-0.3,0-0.6,0-0.8c0-0.2,0-0.4,0-0.6
		c0-0.3,0-0.5,0-0.8c0-0.3,0-0.6,0-0.9c0-0.3,0-0.6,0-0.9c0-0.4,0-0.8,0-1.2c0-0.3,0-0.6,0-0.9c0-0.4-0.1-0.7-0.1-1.1
		c0-0.5,0-0.9,0-1.4c0-0.5,0-1-0.1-1.5c0-0.2,0-0.3,0-0.5c0-0.1,0-0.1,0.1-0.2C120.2,101.2,120.3,101.2,120.4,101.3z M120.3,114.1
		C120.3,114.2,120.3,114.2,120.3,114.1c0,0.1,0,0.2,0.1,0.2C120.4,114.2,120.4,114.2,120.3,114.1z M120.7,106.1c0,0.1,0,0.2,0,0.2
		c-0.1,0.1,0,0.1,0,0.2c0,0,0,0,0,0c0-0.1,0-0.1,0-0.2C120.8,106.2,120.8,106.2,120.7,106.1z M120.9,104.3c0,0.1,0,0.1,0,0.1
		C120.9,104.4,121,104.4,120.9,104.3C121,104.4,121,104.4,120.9,104.3z M120.9,108.6C120.9,108.6,120.9,108.5,120.9,108.6
		C120.9,108.5,120.9,108.5,120.9,108.6C120.9,108.5,120.9,108.5,120.9,108.6C120.9,108.6,120.9,108.6,120.9,108.6z M121,104.8
		c-0.1,0-0.1,0.1-0.1,0.1C120.9,104.9,121,104.9,121,104.8C121,104.8,121,104.8,121,104.8z M121,106.6
		C120.9,106.6,120.9,106.6,121,106.6C121,106.7,121,106.6,121,106.6z"/>
	<path class="st5" d="M132.5,114.1c0,0.1,0,0.2-0.2,0.2c-0.1,0-0.2,0.1-0.1,0.3c0,0.1-0.1,0.1-0.1,0.2c-0.1,0.1-0.2,0.2-0.5,0.3
		c-0.2,0-0.4,0.1-0.6,0.2c-0.1,0-0.1,0-0.2,0c-0.4-0.1-0.8-0.1-1.2-0.2c-0.2-0.1-0.4-0.2-0.6-0.3c-0.1-0.1-0.3-0.2-0.4-0.3
		c-0.2-0.1-0.4-0.3-0.5-0.4c-0.3-0.3-0.6-0.6-0.8-1c-0.2-0.3-0.4-0.7-0.6-1.1c-0.1-0.4-0.2-0.9-0.3-1.3c-0.1-0.4-0.1-0.7-0.1-1.1
		c0-0.3,0-0.5,0-0.7c0-0.4,0.1-0.8,0.2-1.2c0.1-0.3,0.1-0.5,0.2-0.8c0.1-0.4,0.2-0.8,0.4-1.2c0.1-0.4,0.3-0.7,0.5-1
		c0.1-0.2,0.2-0.5,0.3-0.7c0,0,0.1-0.1,0.1-0.1c0.1-0.2,0.1-0.3,0.2-0.4c0.2-0.3,0.3-0.5,0.5-0.8c0.3-0.4,0.7-0.7,1-0.9
		c0.2-0.1,0.4-0.2,0.6-0.3c0.1,0,0.2-0.1,0.3-0.1c0.2,0,0.3,0,0.5-0.1c0.3,0,0.5,0.1,0.7,0.3c0.1,0.1,0.2,0.1,0.3,0.2
		c0,0,0,0.1,0,0.2c0,0-0.1,0-0.1,0c0,0-0.1,0-0.1,0.1c-0.1,0.1-0.2,0.1-0.3,0.1c-0.1,0-0.3,0-0.4,0.1c-0.3,0.1-0.5,0.2-0.7,0.4
		c-0.2,0.1-0.3,0.3-0.5,0.4c-0.1,0.1-0.2,0.2-0.2,0.3c-0.2,0.2-0.3,0.4-0.5,0.7c0,0,0,0.1-0.1,0.1c-0.1,0.2-0.2,0.4-0.3,0.6
		c-0.1,0.2-0.2,0.4-0.3,0.6c-0.2,0.3-0.2,0.7-0.3,1c-0.1,0.4-0.2,0.7-0.3,1.1c0,0.2-0.1,0.3-0.1,0.5c0,0.1-0.1,0.3-0.1,0.4
		c0,0,0,0,0,0c0,0.2-0.1,0.4-0.1,0.6c0,0.2-0.1,0.3-0.1,0.4c0,0.3,0,0.6,0,0.9c0,0.2,0.1,0.3,0.1,0.5c0,0.1,0,0.1,0,0.2
		c0,0.2,0.1,0.4,0.1,0.6c0,0.1,0,0.2,0.1,0.4c0.1,0.1,0.1,0.2,0.2,0.4c0,0.2,0.1,0.3,0.2,0.5c0,0.1,0.1,0.1,0.1,0.2
		c0.1,0.2,0.3,0.3,0.4,0.5c0,0,0,0,0,0c0,0,0,0.1,0,0.1c0,0,0,0,0,0c0.2,0.2,0.3,0.3,0.5,0.5c0.2,0.2,0.4,0.4,0.7,0.5
		c0.2,0,0.4,0,0.6,0c0.2-0.1,0.5-0.2,0.7-0.3c0.1-0.1,0.2-0.2,0.4-0.2c0.1,0,0.2,0,0.4,0c0.1,0,0.2,0,0.2,0c0,0,0.1,0,0.1,0
		C132.3,114,132.4,114.1,132.5,114.1z"/>
	<path class="st5" d="M135.5,113.3c0.1,0,0.2,0.1,0.4,0.1c0.4,0.2,0.8,0,1.1-0.2c0.2-0.1,0.5-0.2,0.7-0.2c0.1,0,0.2,0,0.3,0
		c0,0.1,0,0.1,0,0.1c0,0,0,0,0,0.1c0,0.1,0,0.1-0.1,0.2c0.1,0.1,0.2,0.2,0.3,0.3c0.1,0.1,0.1,0.2,0,0.3c0,0,0,0.1,0,0.1
		c0,0.2-0.1,0.4-0.3,0.5c-0.3,0.1-0.6,0.2-0.9,0.2c-0.1,0-0.3,0-0.4,0.1c-0.1,0-0.2,0-0.3,0c-0.2,0-0.3,0-0.5-0.1
		c-0.4-0.1-0.7-0.1-1-0.4c-0.1,0-0.1-0.1-0.2-0.1c-0.1,0-0.1-0.1-0.2-0.1c0-0.1-0.1-0.1-0.2-0.2c0,0-0.1-0.1-0.1-0.1
		c-0.2-0.2-0.3-0.4-0.5-0.7c-0.1-0.2-0.2-0.5-0.2-0.7c-0.1-0.3-0.1-0.6-0.1-0.9c0-0.3,0-0.7,0.1-1c0-0.1,0-0.2,0-0.3
		c0-0.3,0-0.7,0-1c0-0.6,0-1.1,0-1.7c0-0.4,0-0.8,0.1-1.2c0-0.5,0.1-1,0.1-1.5c0-0.3,0-0.7,0.1-1c0.1-0.5,0.1-1,0.2-1.6
		c0-0.2,0.1-0.3,0.1-0.5c0-0.2,0.3-0.3,0.4-0.4c0.1,0,0.3,0,0.4,0c0.2,0,0.4-0.1,0.5-0.1c0.3,0,0.5,0,0.8,0c0.1,0,0.1,0,0.2,0
		c0.2,0,0.3,0,0.5,0c0.2,0,0.5,0.1,0.7,0.1c0.1,0,0.2,0,0.2,0.1c0,0,0.1,0,0.1,0.1c0.1,0.1,0.2,0.1,0.3,0.1c0.1,0,0.2,0,0.3,0.1
		c0,0.1,0,0.1,0,0.1c0,0,0,0,0,0c-0.1,0.1-0.1,0.1-0.2,0.2c0,0,0,0,0,0c-0.1,0-0.1,0-0.2,0c0,0-0.1,0-0.1,0c0,0,0,0,0,0
		c-0.1,0-0.1,0-0.2,0c-0.2,0-0.4,0.1-0.7,0.1c-0.1,0-0.2,0.1-0.3,0.1c0,0-0.1,0-0.1,0c-0.3,0.1-0.5,0-0.7,0c-0.2,0-0.4,0.1-0.6,0.1
		c-0.1,0-0.1,0.1-0.1,0.2c0,0.3,0,0.5-0.1,0.7c0,0.1,0,0.2,0,0.4c0,0.1,0,0.2,0,0.3c0,0.1,0,0.1,0,0.2c0,0.1,0,0.3,0,0.4
		c0,0.2,0,0.4,0,0.6c0,0.1,0,0.2,0,0.3c0,0.1,0,0.3,0,0.4c0,0,0,0.1,0,0.1c0,0.3,0,0.6,0,0.8c0,0.1,0,0.2,0,0.2
		c-0.1,0.2-0.2,0-0.2,0c0,0.2,0.2,0.2,0.3,0.2c0,0,0.1,0,0.1,0c0.3,0,0.6-0.1,0.9-0.1c0.2,0,0.4,0,0.6,0c0.3,0,0.5,0,0.7,0.1
		c0.2,0,0.4,0.1,0.6,0.1c0,0.1,0,0.2-0.1,0.3c-0.1,0.1-0.1,0.1-0.1,0.2c0,0-0.1,0.1-0.1,0.1c0,0,0,0.1,0,0.1v0
		c-0.1,0.1-0.2,0.3-0.4,0.3c-0.2,0.1-0.4,0-0.6,0.1c-0.4,0.1-0.8,0.1-1.3,0c-0.1,0-0.2,0-0.3,0c0,0-0.1,0.1-0.1,0.1c0,0,0,0.1,0,0.1
		h0c0,0.2,0,0.3,0,0.5c0,0,0,0,0,0.1h0c0,0.6,0,1.1,0.1,1.8c0.1,0.1,0.1,0.2,0,0.4c0,0,0,0,0,0.1c0,0.2,0,0.4,0,0.6c0,0,0,0,0,0
		c0,0,0,0.1,0,0.1c0,0.2,0,0.4,0.1,0.6c0,0.1,0.1,0.2,0.1,0.3C135.5,113.2,135.4,113.2,135.5,113.3
		C135.5,113.3,135.5,113.3,135.5,113.3z M134.6,107.4c0-0.1-0.1-0.1-0.1-0.2c0,0,0,0.1,0,0.1C134.5,107.3,134.5,107.4,134.6,107.4
		L134.6,107.4z M134.6,113C134.7,113,134.7,113.1,134.6,113l0.1,0.1c0,0,0.1,0,0.1,0.1c0,0,0,0,0-0.1c0,0-0.1,0-0.1,0
		c0,0,0-0.1-0.1-0.1c0,0,0,0,0-0.1C134.7,112.9,134.7,113,134.6,113z M135.4,113.2C135.4,113.2,135.4,113.2,135.4,113.2
		c0-0.1-0.1-0.1-0.1-0.2c0,0.1,0,0.1-0.1,0.2C135.2,113.2,135.3,113.2,135.4,113.2z"/>
	<path class="st5" d="M139.9,107.6c0,0-0.1-0.1,0-0.2c-0.1-0.1,0-0.2,0-0.2c0-0.2,0-0.4,0-0.6c0,0,0.1-0.1,0.1-0.1
		c-0.1,0-0.1-0.1-0.1-0.2c0-0.2,0-0.4,0-0.7c0-0.4-0.1-0.7-0.1-1.1c0-0.4,0-0.8-0.1-1.2c0,0,0-0.1,0-0.1c-0.1,0-0.1-0.1-0.1-0.1
		c0-0.6-0.1-1.2,0.2-1.7c0.1-0.1,0.2-0.2,0.3-0.2c0.1,0,0.3,0,0.4-0.1c0.4-0.1,0.4,0.2,0.4,0.4c0.1,0.8,0.2,1.7,0.2,2.6
		c0,0.1,0,0.3,0,0.4l0,0c0,0.3,0.1,0.6,0.1,0.9c0,0.2,0,0.4,0.1,0.5c0,0,0,0.1,0,0.1c0,0,0,0,0,0.1c0,0,0.1,0,0.1,0c0,0,0,0,0,0.1
		c0,0.5,0,1.1,0.1,1.6l0,0c0.1,0.9,0.2,1.8,0.1,2.8c0,0.4,0,0.8,0,1.1c0,0.3-0.3,0.1-0.4,0.1c-0.2,0-0.4-0.1-0.6-0.2
		c-0.1-0.2-0.3-0.3-0.3-0.6c0-0.2,0-0.4-0.1-0.6c0-0.4,0-0.7,0-1.1c0-0.1-0.1-0.1,0-0.2c-0.1-0.1,0.1-0.2,0-0.3c0,0,0,0,0-0.1
		c0-0.2-0.1-0.3,0.1-0.5c-0.1,0,0-0.1-0.1-0.2C139.8,107.9,139.8,107.8,139.9,107.6z M139.6,102.5
		C139.6,102.5,139.6,102.5,139.6,102.5C139.5,102.5,139.5,102.5,139.6,102.5C139.5,102.5,139.5,102.5,139.6,102.5
		C139.6,102.5,139.6,102.5,139.6,102.5z M139.6,101.8C139.6,101.8,139.6,101.8,139.6,101.8S139.6,101.8,139.6,101.8z M139.6,102.8
		C139.6,102.8,139.6,102.8,139.6,102.8S139.6,102.8,139.6,102.8z M139.7,101.7C139.7,101.7,139.7,101.6,139.7,101.7
		C139.7,101.6,139.7,101.6,139.7,101.7C139.7,101.6,139.7,101.6,139.7,101.7C139.7,101.7,139.7,101.7,139.7,101.7z M139.7,102.7
		L139.7,102.7L139.7,102.7C139.7,102.8,139.7,102.7,139.7,102.7z M139.7,101.9C139.7,101.9,139.7,102,139.7,101.9L139.7,101.9
		C139.7,102,139.7,102,139.7,101.9C139.7,102,139.7,101.9,139.7,101.9z M139.7,104.5C139.7,104.5,139.7,104.5,139.7,104.5
		L139.7,104.5C139.7,104.5,139.7,104.5,139.7,104.5C139.7,104.5,139.7,104.5,139.7,104.5z M139.7,105C139.7,105,139.7,105,139.7,105
		L139.7,105C139.7,105,139.7,105,139.7,105z M139.8,104.3C139.8,104.3,139.8,104.3,139.8,104.3C139.8,104.3,139.7,104.3,139.8,104.3
		C139.8,104.4,139.8,104.4,139.8,104.3C139.8,104.4,139.8,104.3,139.8,104.3z M139.9,105C139.9,105.1,139.9,105.1,139.9,105
		c0,0.1-0.1,0.1-0.1,0.2c0.1,0.1,0.1,0,0.1-0.1c0-0.1,0.1-0.1,0.1-0.2c0-0.1-0.1-0.1-0.1-0.2c0-0.1-0.1-0.1-0.1-0.1c0,0-0.1,0-0.1,0
		c0,0.1,0,0.1,0,0.2c0,0,0,0,0.1-0.1c0,0,0,0,0,0c0.1,0.1-0.2,0.1-0.1,0.2C139.8,104.9,139.8,105,139.9,105z M139.7,102.4
		C139.7,102.4,139.7,102.4,139.7,102.4C139.8,102.4,139.8,102.4,139.7,102.4C139.8,102.4,139.8,102.3,139.7,102.4L139.7,102.4z
		 M139.7,104.3C139.8,104.2,139.8,104.2,139.7,104.3C139.8,104.2,139.8,104.2,139.7,104.3C139.8,104.2,139.8,104.2,139.7,104.3z
		 M139.8,103.7C139.8,103.7,139.8,103.7,139.8,103.7C139.8,103.7,139.7,103.7,139.8,103.7z M139.8,102.2
		C139.8,102.2,139.8,102.1,139.8,102.2L139.8,102.2C139.8,102.1,139.8,102.1,139.8,102.2C139.8,102.2,139.8,102.2,139.8,102.2z
		 M139.8,103.2C139.8,103.2,139.8,103.2,139.8,103.2C139.8,103.2,139.8,103.2,139.8,103.2C139.8,103.2,139.8,103.2,139.8,103.2
		C139.8,103.2,139.8,103.2,139.8,103.2z M139.8,104.6C139.8,104.7,139.8,104.7,139.8,104.6L139.8,104.6
		C139.8,104.7,139.8,104.7,139.8,104.6C139.8,104.7,139.8,104.6,139.8,104.6z M139.8,103.7C139.8,103.7,139.8,103.7,139.8,103.7
		C139.8,103.7,139.8,103.7,139.8,103.7z M139.8,104.1L139.8,104.1C139.8,104.1,139.8,104.1,139.8,104.1L139.8,104.1
		C139.8,104.1,139.8,104.1,139.8,104.1z M139.8,106C139.8,106,139.8,106,139.8,106C139.8,106,139.8,106,139.8,106
		C139.8,106,139.8,106,139.8,106z M139.8,103.3C139.8,103.3,139.8,103.3,139.8,103.3C139.8,103.3,139.8,103.3,139.8,103.3
		C139.8,103.3,139.8,103.4,139.8,103.3C139.8,103.3,139.8,103.3,139.8,103.3z M139.9,104.5L139.9,104.5
		C139.9,104.5,139.8,104.5,139.9,104.5c-0.1,0.1-0.1,0.1,0,0.1C139.9,104.6,139.8,104.5,139.9,104.5z M139.9,106.2L139.9,106.2
		c-0.1,0-0.1,0-0.1,0.1C139.8,106.3,139.8,106.3,139.9,106.2C139.9,106.3,139.9,106.3,139.9,106.2z M139.8,101.3L139.8,101.3
		C139.9,101.3,139.9,101.2,139.8,101.3C139.9,101.2,139.9,101.2,139.8,101.3C139.8,101.2,139.8,101.2,139.8,101.3z M139.9,101.8
		C139.9,101.8,139.9,101.8,139.9,101.8C139.8,101.8,139.8,101.8,139.9,101.8C139.9,101.8,139.9,101.8,139.9,101.8z M139.8,103.5
		C139.8,103.5,139.8,103.5,139.8,103.5C139.9,103.5,139.9,103.5,139.8,103.5L139.8,103.5C139.9,103.4,139.8,103.4,139.8,103.5z
		 M139.8,103.5L139.8,103.5L139.8,103.5z M139.9,103.6C139.9,103.6,139.9,103.7,139.9,103.6c0,0.1,0,0.1,0,0.2
		c0-0.1,0.1-0.1,0.1-0.1C140,103.7,139.9,103.7,139.9,103.6z M139.9,104.4C139.9,104.4,139.9,104.4,139.9,104.4
		C139.9,104.4,139.9,104.4,139.9,104.4C139.9,104.4,139.9,104.4,139.9,104.4z M139.8,105.7C139.8,105.7,139.8,105.8,139.8,105.7
		C139.9,105.7,139.9,105.7,139.8,105.7C139.9,105.7,139.9,105.7,139.8,105.7C139.9,105.7,139.9,105.7,139.8,105.7z M141.4,113.6
		c0,0,0,0.1-0.1,0.1c-0.1,0.1-0.2,0.3-0.3,0.4c-0.1,0.2-0.3,0.2-0.5,0.3c-0.1,0-0.2,0-0.3,0c0,0-0.1-0.1-0.2-0.1
		c-0.2-0.3-0.3-0.7-0.1-1c0.1-0.2,0.3-0.3,0.5-0.3c0.1,0,0.1,0,0.2,0c0.1,0,0.1,0,0.2,0c0,0,0,0,0,0c0,0,0.1-0.1,0.1-0.1
		C141.2,113,141.4,113.3,141.4,113.6z M139.9,101.7C139.9,101.7,139.9,101.7,139.9,101.7L139.9,101.7
		C139.9,101.7,139.9,101.7,139.9,101.7z M140,105.3C139.9,105.3,139.9,105.3,140,105.3C139.9,105.3,139.9,105.3,140,105.3
		C139.9,105.4,139.9,105.3,140,105.3z M139.9,107.7L139.9,107.7C139.9,107.7,139.9,107.7,139.9,107.7
		C139.9,107.7,139.9,107.7,139.9,107.7z M139.9,102.3C139.9,102.3,139.9,102.3,139.9,102.3C139.9,102.3,139.9,102.3,139.9,102.3
		C139.9,102.3,139.9,102.3,139.9,102.3L139.9,102.3z M140,104.2C139.9,104.2,139.9,104.1,140,104.2
		C139.9,104.2,139.9,104.2,140,104.2L140,104.2C139.9,104.2,139.9,104.2,140,104.2z M139.9,106.5L139.9,106.5L139.9,106.5
		C139.9,106.6,139.9,106.6,139.9,106.5C139.9,106.5,139.9,106.5,139.9,106.5z M140,106.7C140,106.7,140,106.6,140,106.7
		C139.9,106.6,139.9,106.6,140,106.7C139.9,106.7,139.9,106.7,140,106.7z M139.9,105.5L139.9,105.5
		C139.9,105.5,139.9,105.5,139.9,105.5C139.9,105.5,139.9,105.5,139.9,105.5C139.9,105.5,139.9,105.5,139.9,105.5z M139.9,107.4
		C139.9,107.4,139.9,107.4,139.9,107.4c0.1,0.1,0.1,0.1,0.1,0C140,107.4,140,107.3,139.9,107.4L139.9,107.4z M139.9,106.3
		L139.9,106.3C139.9,106.3,139.9,106.3,139.9,106.3C139.9,106.3,139.9,106.3,139.9,106.3z M139.9,107.2L139.9,107.2L139.9,107.2
		C140,107.2,140,107.2,139.9,107.2C140,107.2,140,107.2,139.9,107.2z M140,108C140,108,140,107.9,140,108c0.1-0.1,0.1-0.2,0.1-0.2
		c0-0.1-0.1-0.1-0.1-0.1C139.9,107.8,139.9,107.9,140,108C139.9,108,140,108,140,108z M139.9,108.9
		C139.9,108.9,139.9,108.9,139.9,108.9L139.9,108.9C139.9,108.9,139.9,108.9,139.9,108.9z M140,101.5C140,101.5,140,101.5,140,101.5
		L140,101.5C140,101.4,139.9,101.4,140,101.5C139.9,101.5,139.9,101.5,140,101.5z M140,101.7C140,101.7,140,101.7,140,101.7
		L140,101.7C140,101.7,140,101.7,140,101.7z M140,103.9C140,103.9,140,103.9,140,103.9C140,103.9,139.9,103.9,140,103.9L140,103.9
		L140,103.9z M140,108.1C140,108.1,140,108.1,140,108.1C140,108.1,140,108.1,140,108.1L140,108.1C140,108.1,140,108.1,140,108.1z
		 M140,108.7L140,108.7L140,108.7C140,108.7,140,108.7,140,108.7C140,108.7,140,108.7,140,108.7z M140,105.3
		C140,105.4,140,105.4,140,105.3C140,105.4,140.1,105.4,140,105.3c0.1-0.1,0.1-0.1,0.1-0.1C139.9,105.2,140,105.3,140,105.3
		C140,105.3,140,105.3,140,105.3z M140,106.5C140,106.5,140,106.5,140,106.5C140,106.5,140,106.5,140,106.5
		C140,106.4,140,106.4,140,106.5C140,106.5,140,106.5,140,106.5z M140,106.8C140,106.8,140,106.8,140,106.8
		C140,106.8,140,106.8,140,106.8C140,106.8,140,106.8,140,106.8C140,106.8,140,106.8,140,106.8z M140,107.6L140,107.6
		C140,107.6,140,107.6,140,107.6C140,107.6,140,107.6,140,107.6z M140,104.3c0,0,0,0.1,0,0.1C140,104.4,140.1,104.4,140,104.3
		c0.1,0,0.1-0.1,0.1-0.1C140.1,104.2,140.1,104.2,140,104.3c0.1-0.1,0.1-0.2,0.1-0.2c0-0.2,0.2-0.3,0.1-0.4c0,0,0-0.1,0-0.1
		c0,0-0.1,0-0.1,0.1c0,0,0,0,0,0c0,0,0.1,0,0.1,0s0,0,0,0c0,0,0,0,0,0C139.9,103.9,140.1,104.1,140,104.3L140,104.3
		C140,104.3,140,104.3,140,104.3z M140,105.1C140,105.1,140,105.1,140,105.1L140,105.1z M140,108.4L140,108.4
		C140,108.4,140,108.4,140,108.4C140,108.3,140,108.4,140,108.4C140,108.4,140,108.4,140,108.4z M140,105.6
		C140,105.5,140,105.5,140,105.6C140,105.5,140,105.5,140,105.6C140,105.6,140,105.6,140,105.6z M140,106.8
		C140,106.8,140,106.8,140,106.8C140,106.8,140.1,106.8,140,106.8C140.1,106.7,140,106.7,140,106.8C140,106.7,140,106.7,140,106.8z
		 M140,107c0.1,0.1,0.2-0.1,0.3,0.1c0,0,0-0.1,0-0.1C140.2,106.9,140.1,107.1,140,107L140,107z M140,108C140,108,140,108,140,108
		L140,108C140,108,140,108,140,108z M140,109.3C140,109.4,140,109.4,140,109.3c0.1,0,0.1-0.1,0.2-0.1c0-0.1-0.1-0.1-0.1-0.1
		C140.1,109.2,140,109.3,140,109.3z M140,102.3L140,102.3C140,102.3,140,102.3,140,102.3S140,102.3,140,102.3z M140,103.6
		C140,103.6,140,103.6,140,103.6C140,103.6,140,103.6,140,103.6C140,103.6,140,103.6,140,103.6z M140,104.3
		C140,104.2,140.1,104.2,140,104.3C140.1,104.2,140,104.3,140,104.3C140,104.3,140,104.3,140,104.3z M140,104.9
		C140,104.9,140,104.9,140,104.9C140.1,104.9,140.1,104.9,140,104.9C140.1,104.8,140.1,104.8,140,104.9
		C140,104.8,140,104.8,140,104.9z M140,109C140,109,140,109,140,109C140,109.1,140,109.1,140,109C140.1,109,140.1,109,140,109
		C140.1,108.9,140.1,108.9,140,109C140,109,140,109,140,109z M140,109.7C140,109.8,140,109.8,140,109.7
		C140,109.8,140,109.7,140,109.7C140.1,109.7,140,109.7,140,109.7C140,109.7,140,109.7,140,109.7z M140,110.2L140,110.2
		C140,110.2,140,110.2,140,110.2L140,110.2z M140,101.2L140,101.2L140,101.2L140,101.2L140,101.2z M140.1,106.9
		C140.1,106.9,140,106.9,140.1,106.9C140.1,106.9,140.1,107,140.1,106.9C140.1,107,140.1,107,140.1,106.9
		C140.1,106.9,140.1,106.9,140.1,106.9z M140.1,108.1C140.1,108.1,140.1,108.1,140.1,108.1C140.1,108.1,140.1,108.1,140.1,108.1
		C140,108.1,140,108.1,140.1,108.1C140,108.1,140,108.1,140.1,108.1z M140.1,109.4C140.1,109.4,140.1,109.4,140.1,109.4
		C140,109.4,140,109.4,140.1,109.4C140,109.4,140.1,109.4,140.1,109.4z M140.1,110.5C140.1,110.5,140.1,110.5,140.1,110.5
		C140,110.5,140,110.5,140.1,110.5C140,110.5,140,110.5,140.1,110.5C140.1,110.5,140.1,110.5,140.1,110.5z M140.1,102
		C140.1,102,140.1,101.9,140.1,102C140.1,102,140.1,102,140.1,102C140.1,102,140.1,102,140.1,102z M140.1,107.3
		C140.1,107.3,140.1,107.3,140.1,107.3c0.1,0.1,0,0.1,0,0.1C140.1,107.4,140.1,107.4,140.1,107.3
		C140.1,107.3,140.1,107.3,140.1,107.3C140.1,107.2,140.1,107.3,140.1,107.3z M140.1,110.2L140.1,110.2
		C140.1,110.2,140.1,110.2,140.1,110.2C140.1,110.2,140.1,110.2,140.1,110.2z M140.1,110.7C140.2,110.7,140.2,110.7,140.1,110.7
		L140.1,110.7c0-0.1,0-0.1,0-0.1C140.1,110.6,140.1,110.6,140.1,110.7C140.1,110.7,140.1,110.7,140.1,110.7z M140.2,107.5
		C140.1,107.4,140.2,107.5,140.2,107.5c-0.1,0.1-0.1,0.1-0.1,0.1C140.1,107.5,140.2,107.5,140.2,107.5
		C140.2,107.5,140.2,107.5,140.2,107.5z M140.2,108.2C140.2,108.2,140.2,108.2,140.2,108.2c-0.1-0.1-0.1-0.1-0.1,0
		C140.1,108.2,140.2,108.2,140.2,108.2z M140.1,109.5C140.1,109.5,140.1,109.5,140.1,109.5C140.1,109.5,140.1,109.5,140.1,109.5
		C140.1,109.5,140.1,109.5,140.1,109.5L140.1,109.5z M140.1,102.7L140.1,102.7L140.1,102.7C140.1,102.6,140.1,102.7,140.1,102.7z
		 M140.1,106L140.1,106C140.1,106,140.1,106,140.1,106C140.1,106,140.1,106,140.1,106z M140.1,106.5
		C140.1,106.5,140.1,106.5,140.1,106.5C140.1,106.5,140.1,106.5,140.1,106.5C140.1,106.5,140.1,106.5,140.1,106.5z M140.4,108
		c0-0.1,0-0.2-0.1-0.2c-0.1-0.1-0.1-0.2-0.3-0.1c0,0,0,0,0,0c0.1,0,0.1,0,0.2,0c0,0,0,0.1,0,0.1c0,0-0.1,0-0.1,0
		c-0.1-0.1-0.1,0-0.1,0c0,0.1,0,0.2,0.1,0.2C140.3,108,140.3,108,140.4,108C140.4,108.1,140.5,108.1,140.4,108z M140.1,110.3
		L140.1,110.3C140.1,110.3,140.1,110.3,140.1,110.3C140.1,110.3,140.1,110.3,140.1,110.3C140.1,110.3,140.1,110.3,140.1,110.3z
		 M140.1,102.7C140.1,102.7,140.1,102.7,140.1,102.7C140.1,102.7,140.1,102.7,140.1,102.7z M140.1,103.6
		C140.1,103.6,140.1,103.6,140.1,103.6C140.1,103.6,140.1,103.6,140.1,103.6L140.1,103.6C140.1,103.6,140.1,103.6,140.1,103.6z
		 M140.2,104.7C140.2,104.7,140.2,104.7,140.2,104.7C140.2,104.7,140.1,104.7,140.2,104.7C140.1,104.8,140.1,104.8,140.2,104.7
		C140.2,104.8,140.2,104.7,140.2,104.7z M140.1,106.1L140.1,106.1L140.1,106.1z M140.1,110.6L140.1,110.6
		C140.1,110.6,140.1,110.6,140.1,110.6z M140.1,111L140.1,111C140.2,110.9,140.1,110.9,140.1,111L140.1,111
		C140.1,111,140.1,111,140.1,111z M140.1,101.7C140.1,101.7,140.1,101.7,140.1,101.7C140.2,101.8,140.2,101.7,140.1,101.7
		C140.2,101.7,140.2,101.7,140.1,101.7C140.1,101.7,140.1,101.7,140.1,101.7z M140.2,105.5L140.2,105.5
		C140.1,105.5,140.1,105.5,140.2,105.5C140.1,105.6,140.1,105.6,140.2,105.5C140.2,105.6,140.2,105.6,140.2,105.5z M140.1,106.3
		L140.1,106.3C140.2,106.3,140.2,106.3,140.1,106.3C140.2,106.3,140.2,106.3,140.1,106.3C140.2,106.3,140.2,106.3,140.1,106.3z
		 M140.1,109.8C140.1,109.8,140.1,109.8,140.1,109.8C140.2,109.8,140.2,109.8,140.1,109.8C140.2,109.8,140.2,109.8,140.1,109.8
		C140.1,109.8,140.1,109.8,140.1,109.8z M140.2,110.2C140.2,110.2,140.2,110.1,140.2,110.2C140.2,110.1,140.1,110.1,140.2,110.2
		C140.1,110.2,140.2,110.2,140.2,110.2C140.2,110.2,140.2,110.2,140.2,110.2z M140.2,101.6C140.2,101.6,140.2,101.6,140.2,101.6
		C140.2,101.6,140.2,101.6,140.2,101.6z M140.2,106C140.2,106,140.2,106,140.2,106C140.2,106,140.2,106,140.2,106z M140.2,109.1
		L140.2,109.1C140.2,109.1,140.2,109.1,140.2,109.1S140.2,109.1,140.2,109.1z M140.2,110.5C140.2,110.5,140.2,110.5,140.2,110.5
		C140.2,110.5,140.2,110.5,140.2,110.5C140.2,110.5,140.2,110.5,140.2,110.5z M140.3,111.1C140.3,111.1,140.2,111,140.3,111.1
		c-0.1,0-0.1,0-0.1,0L140.3,111.1C140.2,111.1,140.2,111.1,140.3,111.1z M140.2,104.3C140.2,104.3,140.2,104.3,140.2,104.3
		S140.2,104.3,140.2,104.3z M140.2,106C140.2,106,140.2,106,140.2,106C140.2,105.9,140.2,105.9,140.2,106L140.2,106z M140.2,108.3
		C140.2,108.4,140.2,108.4,140.2,108.3c0.1,0,0.1,0,0.2,0c0,0,0,0,0,0C140.3,108.3,140.3,108.3,140.2,108.3
		C140.2,108.3,140.2,108.3,140.2,108.3z M140.2,108.5L140.2,108.5C140.2,108.5,140.2,108.5,140.2,108.5
		C140.2,108.5,140.2,108.4,140.2,108.5L140.2,108.5z M140.2,101.2C140.2,101.2,140.2,101.2,140.2,101.2
		C140.2,101.2,140.2,101.2,140.2,101.2C140.2,101.2,140.2,101.2,140.2,101.2z M140.2,105.1C140.2,105.1,140.2,105.2,140.2,105.1
		L140.2,105.1C140.2,105.2,140.2,105.1,140.2,105.1z M140.2,109.9C140.2,109.9,140.2,109.9,140.2,109.9
		C140.2,109.9,140.2,109.9,140.2,109.9C140.2,109.9,140.2,109.9,140.2,109.9C140.2,109.9,140.2,109.9,140.2,109.9z M140.3,104.5
		c-0.1,0-0.1,0.1-0.1,0.2C140.3,104.6,140.3,104.5,140.3,104.5z M140.3,110.8C140.3,110.8,140.3,110.8,140.3,110.8
		C140.3,110.7,140.3,110.8,140.3,110.8C140.3,110.8,140.2,110.8,140.3,110.8c-0.1,0.1-0.2,0.1-0.1,0.1
		C140.4,111,140.3,110.9,140.3,110.8z M140.2,106.3L140.2,106.3C140.3,106.3,140.3,106.3,140.2,106.3
		C140.3,106.3,140.3,106.3,140.2,106.3C140.3,106.3,140.2,106.3,140.2,106.3z M140.2,108.9L140.2,108.9
		C140.2,108.9,140.2,108.9,140.2,108.9C140.2,109,140.2,109,140.2,108.9z M140.3,110c0,0,0-0.1,0-0.1c0,0,0,0,0-0.1
		C140.3,109.9,140.2,109.9,140.3,110C140.2,110,140.3,110,140.3,110z M140.2,110.1C140.2,110.1,140.2,110.1,140.2,110.1L140.2,110.1
		C140.2,110.1,140.2,110.1,140.2,110.1z M140.3,101.2C140.3,101.2,140.3,101.2,140.3,101.2c0,0.1,0,0.1,0,0.1c0,0,0,0,0,0
		C140.3,101.2,140.3,101.2,140.3,101.2z M140.3,104.9c0,0,0,0.1,0,0.1c0,0,0,0,0,0C140.3,105,140.3,105,140.3,104.9
		C140.3,105,140.3,104.9,140.3,104.9z M140.3,108L140.3,108L140.3,108z M140.3,110.2L140.3,110.2L140.3,110.2L140.3,110.2
		C140.3,110.3,140.3,110.3,140.3,110.2z M140.3,107.5C140.3,107.5,140.2,107.5,140.3,107.5C140.3,107.5,140.3,107.5,140.3,107.5
		C140.3,107.5,140.3,107.5,140.3,107.5C140.3,107.5,140.3,107.5,140.3,107.5z M140.3,104C140.3,104.1,140.3,104.1,140.3,104
		c0.1,0,0.1,0,0.1,0C140.3,104.1,140.3,104,140.3,104z M140.3,109.6C140.3,109.5,140.3,109.5,140.3,109.6
		C140.3,109.5,140.3,109.6,140.3,109.6C140.3,109.6,140.3,109.6,140.3,109.6C140.3,109.6,140.3,109.6,140.3,109.6z M140.3,105.4
		C140.3,105.4,140.3,105.4,140.3,105.4c0.1,0.1,0.3,0.1,0.3,0c0.1-0.1-0.1-0.1-0.1-0.1C140.4,105.3,140.3,105.4,140.3,105.4z
		 M140.3,106C140.3,106,140.3,106,140.3,106C140.4,106,140.4,106,140.3,106C140.4,106,140.4,106,140.3,106
		C140.4,106,140.4,106,140.3,106C140.3,106,140.3,106,140.3,106C140.3,106,140.3,106,140.3,106z M140.3,106.6L140.3,106.6
		C140.3,106.7,140.3,106.7,140.3,106.6C140.3,106.6,140.3,106.6,140.3,106.6z M140.3,108.6C140.3,108.6,140.3,108.6,140.3,108.6
		C140.3,108.6,140.3,108.6,140.3,108.6C140.3,108.7,140.3,108.7,140.3,108.6L140.3,108.6z M140.3,109.2L140.3,109.2
		C140.3,109.1,140.3,109.1,140.3,109.2C140.3,109.1,140.3,109.1,140.3,109.2L140.3,109.2z M140.3,101.4
		C140.3,101.4,140.3,101.4,140.3,101.4C140.3,101.4,140.3,101.4,140.3,101.4z M140.3,103.6C140.3,103.6,140.3,103.6,140.3,103.6
		L140.3,103.6L140.3,103.6z M140.3,104.5C140.3,104.5,140.3,104.5,140.3,104.5C140.3,104.5,140.3,104.5,140.3,104.5
		C140.3,104.5,140.3,104.5,140.3,104.5z M140.3,105.7C140.3,105.7,140.3,105.7,140.3,105.7C140.4,105.6,140.3,105.6,140.3,105.7
		C140.3,105.6,140.3,105.6,140.3,105.7C140.3,105.7,140.3,105.7,140.3,105.7z M140.3,105.9c0,0,0.1,0,0.1,0c0,0,0.1,0,0.1,0
		C140.4,105.9,140.4,105.9,140.3,105.9C140.3,105.9,140.3,105.9,140.3,105.9z M140.3,106.5C140.3,106.5,140.3,106.5,140.3,106.5
		C140.3,106.5,140.3,106.5,140.3,106.5C140.3,106.5,140.3,106.5,140.3,106.5z M140.4,109.3C140.4,109.3,140.4,109.3,140.4,109.3
		C140.3,109.3,140.3,109.3,140.4,109.3C140.3,109.4,140.3,109.4,140.4,109.3C140.3,109.4,140.4,109.3,140.4,109.3z M140.3,104.8
		L140.3,104.8C140.3,104.8,140.3,104.8,140.3,104.8z M140.4,108C140.4,108,140.4,108,140.4,108C140.3,108,140.3,108,140.4,108
		C140.3,107.9,140.3,107.9,140.4,108C140.4,107.9,140.4,107.9,140.4,108z M140.3,110.4C140.3,110.5,140.3,110.5,140.3,110.4
		C140.3,110.5,140.3,110.5,140.3,110.4C140.3,110.4,140.3,110.4,140.3,110.4C140.3,110.4,140.3,110.4,140.3,110.4z M140.3,102.6
		L140.3,102.6L140.3,102.6L140.3,102.6C140.4,102.6,140.4,102.6,140.3,102.6z M140.4,104.1C140.4,104.1,140.4,104.1,140.4,104.1
		S140.4,104.1,140.4,104.1z M140.3,104.6C140.4,104.6,140.4,104.6,140.3,104.6C140.4,104.6,140.4,104.6,140.3,104.6
		C140.4,104.6,140.4,104.6,140.3,104.6z M140.4,101.3L140.4,101.3L140.4,101.3z M140.4,102.7C140.4,102.7,140.4,102.7,140.4,102.7
		C140.4,102.7,140.4,102.7,140.4,102.7L140.4,102.7C140.4,102.7,140.4,102.7,140.4,102.7z M140.4,104.4
		C140.4,104.4,140.4,104.4,140.4,104.4L140.4,104.4L140.4,104.4z M140.5,104.9c-0.1,0-0.1,0-0.1,0.1
		C140.4,105,140.5,105.1,140.5,104.9C140.5,105,140.5,105,140.5,104.9z M140.4,105.5C140.4,105.5,140.4,105.5,140.4,105.5
		C140.4,105.5,140.4,105.5,140.4,105.5C140.4,105.5,140.4,105.5,140.4,105.5z M140.4,105.6C140.4,105.6,140.4,105.6,140.4,105.6
		C140.4,105.6,140.4,105.6,140.4,105.6z M140.4,110.3C140.4,110.3,140.4,110.3,140.4,110.3C140.4,110.3,140.4,110.3,140.4,110.3
		C140.4,110.3,140.4,110.3,140.4,110.3C140.4,110.3,140.4,110.3,140.4,110.3z M140.4,110.7L140.4,110.7
		C140.4,110.7,140.4,110.7,140.4,110.7C140.4,110.7,140.4,110.7,140.4,110.7C140.4,110.7,140.4,110.7,140.4,110.7z M140.4,104.7
		C140.4,104.7,140.4,104.7,140.4,104.7L140.4,104.7c0,0.1,0,0.1,0,0.2c0,0,0,0.1,0,0.1C140.4,104.9,140.4,104.8,140.4,104.7
		C140.5,104.7,140.4,104.7,140.4,104.7z M140.4,105.2C140.4,105.2,140.4,105.3,140.4,105.2C140.4,105.3,140.4,105.3,140.4,105.2
		C140.4,105.2,140.4,105.2,140.4,105.2z M140.4,101.7C140.4,101.7,140.4,101.7,140.4,101.7C140.4,101.7,140.4,101.7,140.4,101.7
		C140.4,101.7,140.4,101.7,140.4,101.7C140.4,101.7,140.4,101.7,140.4,101.7z M140.4,103.6C140.4,103.6,140.4,103.6,140.4,103.6
		L140.4,103.6C140.4,103.6,140.4,103.6,140.4,103.6z M140.4,106.4C140.4,106.4,140.4,106.4,140.4,106.4
		C140.4,106.4,140.4,106.4,140.4,106.4C140.4,106.4,140.4,106.4,140.4,106.4z M140.6,106.1C140.6,106.1,140.6,106,140.6,106.1
		C140.6,106,140.5,106.1,140.6,106.1c-0.1,0-0.1,0-0.2,0c0,0,0,0,0,0.1C140.5,106.1,140.5,106.1,140.6,106.1z M140.5,106.8
		C140.4,106.8,140.4,106.8,140.5,106.8C140.4,106.8,140.4,106.8,140.5,106.8L140.5,106.8L140.5,106.8z M140.4,108.3L140.4,108.3
		L140.4,108.3L140.4,108.3z M140.4,109.4L140.4,109.4C140.4,109.4,140.4,109.4,140.4,109.4L140.4,109.4L140.4,109.4z M140.5,111.4
		C140.5,111.4,140.4,111.4,140.5,111.4C140.4,111.4,140.4,111.4,140.5,111.4C140.5,111.4,140.5,111.4,140.5,111.4z M140.5,103.6
		C140.5,103.6,140.4,103.6,140.5,103.6C140.4,103.6,140.4,103.6,140.5,103.6C140.5,103.7,140.5,103.6,140.5,103.6z M140.5,105.1
		C140.5,105.1,140.5,105.1,140.5,105.1c0,0.1,0,0.2,0.1,0.2C140.6,105.2,140.6,105.1,140.5,105.1z M140.4,105.2
		C140.4,105.1,140.4,105.1,140.4,105.2C140.4,105.1,140.4,105.1,140.4,105.2z M140.5,106.9C140.5,106.9,140.5,106.9,140.5,106.9
		C140.4,107,140.4,107,140.5,106.9L140.5,106.9C140.5,107,140.5,107,140.5,106.9C140.5,106.9,140.5,106.9,140.5,106.9z M140.4,110.2
		L140.4,110.2L140.4,110.2z M140.4,111.1L140.4,111.1L140.4,111.1z M140.5,108.3C140.5,108.3,140.5,108.3,140.5,108.3
		C140.5,108.3,140.5,108.3,140.5,108.3L140.5,108.3C140.5,108.4,140.5,108.4,140.5,108.3z M140.5,108.8L140.5,108.8
		C140.5,108.7,140.5,108.7,140.5,108.8C140.5,108.7,140.5,108.7,140.5,108.8L140.5,108.8z M140.5,109L140.5,109
		C140.5,109,140.5,109,140.5,109C140.5,109,140.5,108.9,140.5,109L140.5,109z M140.5,111.2L140.5,111.2
		C140.5,111.2,140.5,111.2,140.5,111.2L140.5,111.2C140.5,111.2,140.5,111.2,140.5,111.2z M140.5,102.5
		C140.5,102.5,140.5,102.5,140.5,102.5C140.5,102.5,140.5,102.4,140.5,102.5C140.5,102.4,140.5,102.4,140.5,102.5z M140.5,102.6
		C140.5,102.6,140.5,102.6,140.5,102.6L140.5,102.6z M140.5,111.2L140.5,111.2C140.5,111.2,140.5,111.3,140.5,111.2
		C140.5,111.3,140.5,111.2,140.5,111.2z M140.5,102.4C140.5,102.4,140.5,102.4,140.5,102.4L140.5,102.4L140.5,102.4z M140.5,103.1
		C140.5,103.1,140.5,103.1,140.5,103.1L140.5,103.1C140.5,103.1,140.5,103.1,140.5,103.1z M140.5,109.2
		C140.5,109.2,140.5,109.2,140.5,109.2C140.5,109.2,140.5,109.2,140.5,109.2C140.5,109.2,140.5,109.2,140.5,109.2z M140.5,109.3
		C140.5,109.3,140.5,109.3,140.5,109.3L140.5,109.3L140.5,109.3C140.5,109.3,140.5,109.3,140.5,109.3z M140.5,103.1
		C140.5,103.1,140.5,103.1,140.5,103.1S140.5,103.1,140.5,103.1z M140.6,104.6C140.5,104.7,140.5,104.7,140.6,104.6
		C140.6,104.7,140.6,104.6,140.6,104.6C140.6,104.6,140.6,104.6,140.6,104.6z M140.6,111.3C140.6,111.3,140.5,111.3,140.6,111.3
		C140.5,111.3,140.6,111.3,140.6,111.3L140.6,111.3z M140.6,107.2C140.6,107.1,140.6,107.1,140.6,107.2
		C140.6,107.1,140.5,107.1,140.6,107.2C140.5,107.2,140.5,107.2,140.6,107.2C140.6,107.2,140.6,107.2,140.6,107.2z M140.6,105
		C140.5,105,140.5,105,140.6,105C140.5,105,140.6,105,140.6,105z M140.5,107.8L140.5,107.8C140.6,107.8,140.6,107.8,140.5,107.8
		C140.6,107.8,140.5,107.8,140.5,107.8z M140.6,108.9C140.6,108.9,140.6,108.9,140.6,108.9C140.6,108.9,140.5,108.9,140.6,108.9
		C140.5,108.9,140.6,108.9,140.6,108.9z M140.6,105.6C140.6,105.6,140.6,105.6,140.6,105.6C140.6,105.6,140.6,105.5,140.6,105.6
		C140.6,105.5,140.6,105.5,140.6,105.6z M140.6,106.5C140.6,106.5,140.6,106.5,140.6,106.5C140.6,106.5,140.6,106.5,140.6,106.5z
		 M140.6,106.6C140.6,106.6,140.6,106.6,140.6,106.6L140.6,106.6C140.6,106.6,140.6,106.6,140.6,106.6L140.6,106.6z M140.6,107.3
		C140.6,107.3,140.6,107.3,140.6,107.3C140.6,107.3,140.6,107.3,140.6,107.3z M140.6,106.8C140.6,106.8,140.6,106.8,140.6,106.8
		C140.6,106.8,140.6,106.8,140.6,106.8C140.6,106.8,140.6,106.8,140.6,106.8C140.6,106.8,140.6,106.8,140.6,106.8z M140.6,106.3
		C140.6,106.3,140.6,106.3,140.6,106.3C140.6,106.3,140.6,106.3,140.6,106.3C140.7,106.3,140.7,106.3,140.6,106.3
		C140.7,106.3,140.7,106.3,140.6,106.3z M140.6,108.1C140.6,108.1,140.6,108.1,140.6,108.1L140.6,108.1
		C140.6,108.1,140.6,108.1,140.6,108.1C140.6,108.1,140.6,108.1,140.6,108.1z M140.7,106.4C140.7,106.4,140.7,106.4,140.7,106.4
		C140.7,106.4,140.7,106.4,140.7,106.4C140.7,106.4,140.7,106.4,140.7,106.4C140.7,106.4,140.7,106.4,140.7,106.4z M140.7,102.1
		C140.7,102.1,140.7,102.1,140.7,102.1C140.7,102.1,140.7,102.1,140.7,102.1z M140.7,104.4L140.7,104.4L140.7,104.4z M140.7,107.8
		C140.7,107.9,140.7,107.9,140.7,107.8L140.7,107.8C140.7,107.9,140.7,107.9,140.7,107.8C140.8,107.8,140.7,107.8,140.7,107.8z
		 M140.7,108.3C140.8,108.3,140.8,108.3,140.7,108.3c0-0.1,0-0.1,0-0.1C140.7,108.2,140.7,108.2,140.7,108.3
		C140.7,108.2,140.7,108.3,140.7,108.3z M140.7,106.7C140.7,106.7,140.7,106.7,140.7,106.7C140.7,106.7,140.7,106.7,140.7,106.7
		C140.7,106.7,140.7,106.7,140.7,106.7C140.7,106.7,140.7,106.7,140.7,106.7z M140.7,106.8L140.7,106.8
		C140.7,106.8,140.7,106.8,140.7,106.8C140.7,106.8,140.7,106.8,140.7,106.8C140.7,106.8,140.7,106.8,140.7,106.8z M140.7,101.7
		C140.7,101.7,140.7,101.7,140.7,101.7L140.7,101.7L140.7,101.7z M140.7,105.1C140.7,105.1,140.7,105.1,140.7,105.1
		C140.7,105.1,140.7,105.1,140.7,105.1C140.7,105,140.7,105,140.7,105.1C140.7,105,140.7,105,140.7,105.1z M140.7,109
		C140.7,109,140.7,109,140.7,109C140.7,109,140.7,109,140.7,109L140.7,109z M140.7,105.2C140.8,105.2,140.8,105.2,140.7,105.2
		C140.8,105.2,140.8,105.2,140.7,105.2L140.7,105.2C140.8,105.2,140.8,105.2,140.7,105.2z M140.8,106.9
		C140.8,106.9,140.8,106.9,140.8,106.9C140.8,106.9,140.8,106.9,140.8,106.9L140.8,106.9L140.8,106.9z M140.8,108L140.8,108
		C140.8,108,140.8,108,140.8,108L140.8,108C140.8,108,140.8,108,140.8,108z M140.8,105.8C140.8,105.9,140.8,105.9,140.8,105.8
		C140.8,105.9,140.8,105.9,140.8,105.8C140.8,105.9,140.8,105.9,140.8,105.8C140.8,105.9,140.8,105.9,140.8,105.8z M140.9,108.3
		C140.9,108.3,140.8,108.3,140.9,108.3C140.8,108.3,140.8,108.3,140.9,108.3C140.8,108.4,140.8,108.3,140.9,108.3
		C140.9,108.3,140.9,108.3,140.9,108.3C140.9,108.3,140.9,108.3,140.9,108.3z M140.8,108.8C140.8,108.8,140.9,108.8,140.8,108.8
		C140.9,108.8,140.8,108.8,140.8,108.8C140.8,108.8,140.8,108.8,140.8,108.8C140.8,108.8,140.8,108.8,140.8,108.8z M140.9,111.5
		L140.9,111.5C140.8,111.5,140.8,111.5,140.9,111.5c-0.1,0.1,0,0.1,0,0.1C141,111.5,140.8,111.5,140.9,111.5z M140.8,103.9
		C140.8,103.9,140.8,103.9,140.8,103.9L140.8,103.9z M140.9,109.9C140.9,109.9,140.9,109.9,140.9,109.9
		C140.9,109.8,140.9,109.8,140.9,109.9C140.9,109.8,140.9,109.8,140.9,109.9z M140.9,106.2C140.9,106.2,140.9,106.2,140.9,106.2
		C140.9,106.2,140.9,106.2,140.9,106.2C140.9,106.2,140.9,106.2,140.9,106.2L140.9,106.2z M140.9,107C140.9,107,140.9,107,140.9,107
		L140.9,107C140.9,107,140.9,107,140.9,107z M140.9,108.5C140.9,108.5,140.9,108.5,140.9,108.5L140.9,108.5
		C140.9,108.5,140.9,108.5,140.9,108.5C140.9,108.5,140.9,108.5,140.9,108.5z M140.9,106.8C140.9,106.8,140.9,106.8,140.9,106.8
		L140.9,106.8z M140.9,106.9C140.9,106.9,140.9,106.9,140.9,106.9C140.9,106.9,140.9,106.9,140.9,106.9
		C140.9,106.9,140.9,106.9,140.9,106.9C140.9,106.9,140.9,106.9,140.9,106.9z M140.9,108.4C140.9,108.4,140.9,108.4,140.9,108.4
		C140.9,108.4,140.9,108.4,140.9,108.4z M140.9,110.7C140.9,110.7,140.9,110.7,140.9,110.7L140.9,110.7z M140.9,106
		C140.9,106,140.9,106,140.9,106C140.9,106,140.9,106,140.9,106L140.9,106L140.9,106z M140.9,106.3L140.9,106.3
		C140.9,106.3,140.9,106.3,140.9,106.3C140.9,106.3,140.9,106.3,140.9,106.3z M140.9,106.3C140.9,106.3,140.9,106.3,140.9,106.3
		L140.9,106.3L140.9,106.3L140.9,106.3z M141,108.2C141,108.2,141,108.2,141,108.2C141,108.2,141,108.2,141,108.2
		C141,108.2,141,108.2,141,108.2C141,108.2,141,108.2,141,108.2z M141,105.6L141,105.6L141,105.6C141,105.6,141,105.6,141,105.6
		C141,105.6,141,105.6,141,105.6z M141,106.3C141,106.3,141,106.3,141,106.3L141,106.3C141,106.2,141,106.2,141,106.3z M141,108.7
		L141,108.7C141,108.7,141,108.7,141,108.7S141,108.7,141,108.7z M141,107.8c0,0.1,0,0.1,0,0.1c0,0,0,0,0,0
		C141.1,107.9,141.1,107.9,141,107.8C141.1,107.8,141.1,107.8,141,107.8z M141.1,108.2L141.1,108.2L141.1,108.2z M141.1,107.7
		C141.1,107.7,141.1,107.7,141.1,107.7C141.1,107.7,141.2,107.7,141.1,107.7C141.1,107.7,141.1,107.6,141.1,107.7L141.1,107.7z
		 M141.2,110C141.2,110,141.2,110,141.2,110L141.2,110z"/>
</g>
<path class="st6" d="M150.2,3.1"/>
<path class="st6" d="M132.8,2.3"/>
<circle class="st7" cx="136.4" cy="66.6" r="10.2"/>
<g>
	<path class="st8" d="M46.1,18.5c0,1.9-1.5,3.4-3.4,3.4c-1.9,0-3.4-1.5-3.4-3.4c0-1.9,1.5-3.4,3.4-3.4C44.6,15,46.1,16.6,46.1,18.5z
		"/>
	<circle class="st8" cx="55.4" cy="6.4" r="3.4"/>
	<path class="st8" d="M98.9,21.9c0,1.9-1.5,3.4-3.4,3.4S92,23.8,92,21.9c0-1.9,1.5-3.4,3.4-3.4S98.9,20,98.9,21.9z"/>
	<g>
		<g>
			<path class="st9" d="M58.9,38.2L41.1,38c-1.7,0-3.1-1.4-3.1-3.2l0-0.4c0-1.7,1.4-3.1,3.2-3.1L59,31.5c1.7,0,3.1,1.4,3.1,3.2
				l0,0.4C62.1,36.8,60.6,38.2,58.9,38.2z"/>
		</g>
		<path class="st9" d="M58.1,58.8V38.2H42v20.7l-8.4,30.5c0,4.3,3.5,7.8,7.8,7.8h17.3c4.3,0,7.8-3.5,7.8-7.8L58.1,58.8z"/>
		<path class="st9" d="M38.2,72.6c0,0,4.8-3.1,11.8,0.6c7,3.7,11.4-2.3,11.4-2.3"/>
	</g>
	<g>
		<g>
			<path class="st9" d="M100.1,38.2L82.3,38c-1.7,0-3.1-1.4-3.1-3.2l0-0.4c0-1.7,1.4-3.1,3.2-3.1l17.8,0.2c1.7,0,3.1,1.4,3.1,3.2
				l0,0.4C103.3,36.8,101.9,38.2,100.1,38.2z"/>
		</g>
		<path class="st9" d="M83.2,89.3c0,4.4,3.6,8,8,8s8-3.6,8-8V38.2H83.2V89.3z"/>
		<path class="st9" d="M83.2,89.3c0,4.4,3.6,8,8,8s8-3.6,8-8V38.2H83.2V89.3z"/>
		<path class="st9" d="M83.2,71.5c2.1-0.2,4.9,0,8.3,1.7c3.2,1.7,5.9,1.4,7.8,0.5"/>
	</g>
</g>
</svg>
