<svg width="107" height="48" viewBox="0 0 107 48" fill="none" xmlns="http://www.w3.org/2000/svg">
<g clip-path="url(#clip0_9_258)">
<path d="M0.394531 33.0718H4.317C5.5005 33.0718 6.34586 33.454 6.85308 34.2184C7.3603 34.9828 7.60827 36.0957 7.60827 37.5683C7.60827 39.0409 7.38284 40.1425 6.93198 40.8957C6.48112 41.6376 5.68085 42.0198 4.51989 42.0198H3.31384V47.8765H0.394531V33.0718ZM3.48291 39.3444C3.8436 39.3444 4.10284 39.2769 4.27192 39.142C4.44099 39.0071 4.5537 38.816 4.59879 38.5687C4.65514 38.3214 4.67769 37.9729 4.67769 37.5121C4.67769 36.8938 4.61006 36.4441 4.4748 36.1744C4.33954 35.9046 4.05776 35.7584 3.65198 35.7584H3.32511V39.3444H3.48291Z" fill="#8E8B8B"/>
<path d="M8.53247 33.0718H13.0861C13.8075 33.0718 14.3711 33.2404 14.7656 33.5664C15.1601 33.8924 15.4306 34.3533 15.5659 34.9378C15.7011 35.5336 15.7688 36.2868 15.7688 37.1973C15.7688 38.0404 15.656 38.6924 15.4419 39.1645C15.2277 39.6366 14.8445 39.9626 14.3035 40.1425C14.7543 40.2324 15.0812 40.4573 15.2841 40.817C15.487 41.1767 15.5884 41.6601 15.5884 42.2671L15.5546 47.8652H12.6578V42.0872C12.6578 41.6713 12.5789 41.4128 12.4211 41.3003C12.2633 41.1879 11.9703 41.1317 11.542 41.1317V47.8765H8.53247V33.0718ZM12.2633 38.5462C12.6804 38.5462 12.8833 38.0966 12.8833 37.2085C12.8833 36.8151 12.8607 36.5228 12.8269 36.3317C12.7931 36.1406 12.7255 36.0057 12.6353 35.927C12.5451 35.8484 12.4099 35.8146 12.2408 35.8146H11.5532V38.5462H12.2633Z" fill="#8E8B8B"/>
<path d="M17.5835 46.9096C16.9636 46.1789 16.6479 45.156 16.6479 43.8407V36.8037C16.6479 35.5335 16.9636 34.5667 17.5835 33.926C18.2034 33.274 19.1164 32.948 20.3112 32.948C21.5059 32.948 22.4189 33.274 23.0389 33.926C23.6588 34.578 23.9744 35.5335 23.9744 36.8037V43.8407C23.9744 45.1672 23.6588 46.2014 23.0389 46.9208C22.4189 47.6403 21.5059 48 20.3112 48C19.1164 48 18.2034 47.6403 17.5835 46.9096ZM20.8409 44.9311C20.9311 44.7063 20.9762 44.3803 20.9762 43.9644V36.7363C20.9762 36.4103 20.9311 36.1517 20.8522 35.9494C20.762 35.7471 20.593 35.6459 20.3224 35.6459C19.8265 35.6459 19.5785 36.0168 19.5785 36.77V43.9869C19.5785 44.414 19.6349 44.7288 19.7363 44.9536C19.8378 45.1672 20.0294 45.2796 20.3112 45.2796C20.5704 45.2796 20.7508 45.1672 20.8409 44.9311Z" fill="#8E8B8B"/>
<path d="M25.158 33.0718H29.0804C30.2639 33.0718 31.1093 33.454 31.6165 34.2184C32.1237 34.9828 32.3717 36.0957 32.3717 37.5683C32.3717 39.0409 32.1463 40.1425 31.6954 40.8957C31.2446 41.6376 30.4443 42.0198 29.2833 42.0198H28.0773V47.8765H25.158V33.0718V33.0718ZM28.2463 39.3444C28.607 39.3444 28.8663 39.2769 29.0353 39.142C29.2044 39.0071 29.3171 38.816 29.3622 38.5687C29.4186 38.3214 29.4411 37.9729 29.4411 37.5121C29.4411 36.8938 29.3735 36.4441 29.2382 36.1744C29.103 35.9046 28.8212 35.7584 28.4154 35.7584H28.0885V39.3444H28.2463Z" fill="#8E8B8B"/>
<path d="M33.3073 47.8652V33.0718H39.2473V35.927H36.328V38.8048H39.1233V41.5926H36.328V44.9875H39.4389V47.8652H33.3073Z" fill="#8E8B8B"/>
<path d="M40.4196 33.0718H44.9732C45.6946 33.0718 46.2582 33.2404 46.6527 33.5664C47.0472 33.8924 47.3177 34.3533 47.453 34.9378C47.5882 35.5336 47.6558 36.2868 47.6558 37.1973C47.6558 38.0404 47.5431 38.6924 47.329 39.1645C47.1148 39.6366 46.7316 39.9626 46.1905 40.1425C46.6414 40.2324 46.9683 40.4573 47.1712 40.817C47.3741 41.1767 47.4755 41.6601 47.4755 42.2671L47.4417 47.8652H44.5449V42.0872C44.5449 41.6713 44.466 41.4128 44.3082 41.3003C44.1504 41.1879 43.8574 41.1317 43.429 41.1317V47.8765H40.4308V33.0718H40.4196ZM44.1391 38.5462C44.5562 38.5462 44.7591 38.0966 44.7591 37.2085C44.7591 36.8151 44.7365 36.5228 44.7027 36.3317C44.6689 36.1406 44.6013 36.0057 44.5111 35.927C44.4209 35.8484 44.2857 35.8146 44.1166 35.8146H43.429V38.5462H44.1391Z" fill="#8E8B8B"/>
<path d="M49.9213 47.8652V35.9158H48.163V33.0718H54.6553V35.9158H52.897V47.8652H49.9213Z" fill="#8E8B8B"/>
<path d="M57.2703 47.8652V42.9978L54.9033 33.083H57.8339L58.6567 38.0966L59.4908 33.083H62.4214L60.0544 42.9978V47.8652H57.2703Z" fill="#8E8B8B"/>
<path d="M69.0152 47.8652V42.9978L66.6482 33.083H69.5788L70.4016 38.0966L71.2357 33.083H74.1663L71.7993 42.9978V47.8652H69.0152Z" fill="#8E8B8B"/>
<path d="M74.5156 47.8652L75.9471 33.083H80.9742L82.3944 47.8652H79.5765L79.3736 45.4708H77.5815L77.4124 47.8652H74.5156ZM77.7956 43.1102H79.1369L78.4832 35.5898H78.3479L77.7956 43.1102Z" fill="#8E8B8B"/>
<path d="M83.2849 33.0718H87.8386C88.56 33.0718 89.1235 33.2404 89.518 33.5664C89.9125 33.8924 90.183 34.3533 90.3183 34.9378C90.4536 35.5336 90.5212 36.2868 90.5212 37.1973C90.5212 38.0404 90.4085 38.6924 90.1943 39.1645C89.9802 39.6366 89.5969 39.9626 89.0559 40.1425C89.5068 40.2324 89.8336 40.4573 90.0365 40.817C90.2394 41.1767 90.3408 41.6601 90.3408 42.2671L90.307 47.8652H87.4103V42.0872C87.4103 41.6713 87.3314 41.4128 87.1736 41.3003C87.0158 41.1879 86.7227 41.1317 86.2944 41.1317V47.8765H83.2962V33.0718H83.2849ZM87.0158 38.5462C87.4328 38.5462 87.6357 38.0966 87.6357 37.2085C87.6357 36.8151 87.6132 36.5228 87.5793 36.3317C87.5455 36.1406 87.4779 36.0057 87.3877 35.927C87.2975 35.8484 87.1623 35.8146 86.9932 35.8146H86.3057V38.5462H87.0158Z" fill="#8E8B8B"/>
<path d="M91.5131 33.0718H95.6046C96.6641 33.0718 97.4531 33.364 97.9829 33.9486C98.5126 34.5331 98.7832 35.3987 98.7944 36.5453L98.8282 43.4699C98.8395 44.9313 98.5915 46.0217 98.073 46.7523C97.5546 47.483 96.6979 47.854 95.5032 47.854H91.5131V33.0718ZM95.0185 45.246C95.5595 45.246 95.83 44.9875 95.83 44.4591V36.8376C95.83 36.5003 95.8075 36.253 95.7511 36.0844C95.6948 35.9158 95.6046 35.8034 95.4693 35.7472C95.3341 35.691 95.1199 35.6573 94.8269 35.6573H94.5V45.246H95.0185Z" fill="#8E8B8B"/>
<path d="M100.632 46.9995C100.034 46.3363 99.73 45.2571 99.73 43.7845V42.3344H102.649V44.178C102.649 44.9087 102.886 45.2796 103.359 45.2796C103.619 45.2796 103.81 45.2009 103.912 45.0435C104.013 44.8862 104.069 44.6276 104.069 44.2567C104.069 43.7733 104.013 43.3798 103.9 43.0651C103.788 42.7503 103.641 42.4806 103.461 42.2782C103.28 42.0646 102.965 41.7386 102.503 41.289L101.218 40.0075C100.226 39.0407 99.73 37.9728 99.73 36.8037C99.73 35.5447 100.023 34.578 100.598 33.926C101.184 33.2628 102.029 32.9368 103.145 32.9368C104.475 32.9368 105.445 33.2852 106.031 33.9934C106.617 34.7016 106.91 35.8033 106.91 37.3096H103.889L103.867 36.2979C103.867 36.1068 103.81 35.9494 103.698 35.837C103.585 35.7246 103.438 35.6684 103.235 35.6684C103.01 35.6684 102.83 35.7358 102.717 35.8595C102.604 35.9831 102.548 36.163 102.548 36.3766C102.548 36.8599 102.83 37.3546 103.371 37.8717L105.095 39.5241C105.501 39.9176 105.828 40.2885 106.098 40.637C106.358 40.9855 106.572 41.4014 106.741 41.8735C106.899 42.3457 106.978 42.919 106.978 43.5709C106.978 45.0323 106.707 46.1339 106.177 46.8871C105.648 47.6403 104.757 48.0112 103.528 48.0112C102.198 48 101.229 47.6627 100.632 46.9995Z" fill="#8E8B8B"/>
<path fill-rule="evenodd" clip-rule="evenodd" d="M52.7955 22.089L53.562 22.8534H100.902V22.089H52.7955ZM33.2621 2.60796L50.8456 20.1443H101.24L105.738 25.3602L101.24 30.5761H96.3034L94.8945 27.8445H93.3052H91.7159L90.307 30.5761H87.1284L85.7195 27.8445H84.1302H82.5409L81.132 30.5761H77.9647L76.5558 27.8445H74.9665H73.3772L71.9683 30.5761H61.3168H52.1643H50.8794L30.6471 10.4094L10.4374 30.5649H0L10.8995 19.6834V9.2178H18.2147V12.3878C22.3626 8.26229 26.5105 4.12553 30.6471 0L33.2621 2.60796Z" fill="#4F46E5"/>
<path fill-rule="evenodd" clip-rule="evenodd" d="M30.0497 30.565H26.1498V26.6755H30.0497V30.565ZM35.1444 26.6755V30.565H31.2445V26.6755H35.1444ZM31.2445 21.5945H35.1444V25.4839H31.2445V21.5945ZM26.1498 21.5945H30.0497V25.4839H26.1498V21.5945Z" fill="#4F46E5"/>
</g>
<defs>
<clipPath id="clip0_9_258">
<rect width="107" height="48" fill="white"/>
</clipPath>
</defs>
</svg>
