<svg width="16" height="12" viewBox="0 0 16 12" fill="none" xmlns="http://www.w3.org/2000/svg">
<path fill-rule="evenodd" clip-rule="evenodd" d="M2.74996 1.5C2.33574 1.5 1.99996 1.83579 1.99996 2.25V9.75C1.99996 10.1642 2.33574 10.5 2.74996 10.5H13.25C13.6642 10.5 14 10.1642 14 9.75V2.25C14 1.83579 13.6642 1.5 13.25 1.5H2.74996ZM0.499958 2.25C0.499958 1.00736 1.50732 0 2.74996 0H13.25C14.4926 0 15.5 1.00736 15.5 2.25V9.75C15.5 10.9926 14.4926 12 13.25 12H2.74996C1.50732 12 0.499958 10.9926 0.499958 9.75V2.25Z" fill="#4F46E5"/>
<path fill-rule="evenodd" clip-rule="evenodd" d="M0.62592 1.83395C0.855684 1.4893 1.32134 1.39617 1.66598 1.62593L7.99996 5.84858L14.3339 1.62593C14.6786 1.39617 15.1442 1.4893 15.374 1.83395C15.6038 2.17859 15.5106 2.64425 15.166 2.87401L8.41598 7.37401C8.16406 7.54196 7.83586 7.54196 7.58393 7.37401L0.833932 2.87401C0.489286 2.64425 0.396156 2.17859 0.62592 1.83395Z" fill="#4F46E5"/>
</svg>
