<svg width="450" height="96" viewBox="0 0 450 96" fill="none" xmlns="http://www.w3.org/2000/svg">
<g filter="url(#filter0_dd_41_1211)">
<rect x="16" y="8" width="201" height="64" rx="8" fill="url(#paint0_linear_41_1211)" fill-opacity="0.9"/>
<path d="M64.019 38.6448C63.9833 34.3528 67.5068 32.2668 67.6616 32.1708C65.6617 29.2456 62.5667 28.838 61.4834 28.802C58.8884 28.5263 56.3648 30.3725 55.0434 30.3725C53.6983 30.3725 51.6508 28.838 49.4605 28.8739C46.6392 28.9219 43.9847 30.5643 42.5443 33.1299C39.5564 38.3451 41.7824 46.0179 44.6513 50.2379C46.0917 52.3 47.7582 54.6138 49.9604 54.5299C52.1031 54.446 52.9126 53.1512 55.4958 53.1512C58.067 53.1512 58.817 54.5299 61.0549 54.4819C63.3643 54.446 64.8046 52.4079 66.1974 50.3218C67.852 47.96 68.5187 45.6222 68.5425 45.5024C68.483 45.4784 64.0666 43.776 64.019 38.6448Z" fill="white"/>
<path d="M59.7945 26.0327C60.9492 24.5821 61.7349 22.604 61.5206 20.5898C59.854 20.6618 57.7589 21.7528 56.5567 23.1794C55.4972 24.4382 54.5449 26.4883 54.783 28.4185C56.6638 28.5624 58.5922 27.4594 59.7945 26.0327Z" fill="white"/>
<path d="M100.348 54.2303H97.3481L95.7054 49.0272H89.9915L88.4321 54.2303H85.5156L91.17 36.5229H94.6697L100.348 54.2303ZM95.2173 46.8453L93.7293 42.2296C93.5746 41.75 93.277 40.6471 92.8484 38.8967H92.7889C92.6104 39.652 92.3366 40.767 91.9556 42.2296L90.4915 46.8453H95.2173Z" fill="white"/>
<path d="M114.881 47.6966C114.881 49.8666 114.298 51.581 113.12 52.8398C112.072 53.9668 110.763 54.5183 109.215 54.5183C107.537 54.5183 106.334 53.9188 105.596 52.7079V59.4097H102.775V45.6586C102.775 44.2918 102.739 42.9011 102.668 41.4625H105.144L105.299 43.4886H105.346C106.287 41.966 107.715 41.1987 109.62 41.1987C111.12 41.1987 112.358 41.7982 113.358 42.9851C114.381 44.1839 114.881 45.7425 114.881 47.6966ZM112.013 47.7926C112.013 46.5457 111.739 45.5267 111.179 44.7234C110.572 43.8842 109.751 43.4646 108.727 43.4646C108.037 43.4646 107.406 43.7044 106.834 44.16C106.275 44.6275 105.894 45.227 105.727 45.9822C105.644 46.3299 105.596 46.6177 105.596 46.8454V48.9794C105.596 49.9026 105.882 50.6938 106.442 51.3292C107.001 51.9646 107.739 52.2883 108.644 52.2883C109.703 52.2883 110.525 51.8687 111.12 51.0535C111.715 50.2263 112.013 49.1473 112.013 47.7926Z" fill="white"/>
<path d="M129.452 47.6966C129.452 49.8666 128.868 51.581 127.69 52.8398C126.642 53.9668 125.333 54.5183 123.785 54.5183C122.107 54.5183 120.905 53.9188 120.167 52.7079V59.4097H117.345V45.6586C117.345 44.2918 117.31 42.9011 117.238 41.4625H119.714L119.869 43.4886H119.917C120.857 41.966 122.286 41.1987 124.19 41.1987C125.69 41.1987 126.928 41.7982 127.928 42.9851C128.952 44.1839 129.452 45.7425 129.452 47.6966ZM126.583 47.7926C126.583 46.5457 126.309 45.5267 125.75 44.7234C125.142 43.8842 124.321 43.4646 123.297 43.4646C122.607 43.4646 121.976 43.7044 121.405 44.16C120.845 44.6275 120.476 45.227 120.298 45.9822C120.214 46.3299 120.167 46.6177 120.167 46.8454V48.9794C120.167 49.9026 120.452 50.6938 121.012 51.3292C121.571 51.9646 122.309 52.2883 123.214 52.2883C124.274 52.2883 125.107 51.8687 125.69 51.0535C126.297 50.2263 126.583 49.1473 126.583 47.7926Z" fill="white"/>
<path d="M145.763 49.2673C145.763 50.7779 145.239 52.0007 144.204 52.9478C143.061 53.9789 141.466 54.4944 139.418 54.4944C137.526 54.4944 136.014 54.1227 134.871 53.3914L135.526 51.0296C136.764 51.761 138.121 52.1326 139.597 52.1326C140.656 52.1326 141.49 51.8928 142.073 51.4133C142.668 50.9337 142.966 50.2863 142.966 49.4831C142.966 48.7638 142.716 48.1643 142.24 47.6728C141.752 47.1813 140.942 46.7257 139.811 46.3061C136.704 45.1432 135.169 43.4527 135.169 41.2348C135.169 39.7842 135.716 38.5973 136.8 37.6622C137.883 36.739 139.323 36.2715 141.121 36.2715C142.716 36.2715 144.049 36.5472 145.108 37.1107L144.394 39.4125C143.394 38.873 142.275 38.5973 141.014 38.5973C140.025 38.5973 139.24 38.8491 138.68 39.3286C138.216 39.7722 137.978 40.2997 137.978 40.9351C137.978 41.6305 138.252 42.2179 138.787 42.6615C139.252 43.0811 140.109 43.5367 141.347 44.0282C142.859 44.6396 143.966 45.359 144.68 46.1862C145.406 47.0134 145.763 48.0444 145.763 49.2673Z" fill="white"/>
<path d="M155.093 43.5967H151.986V49.7949C151.986 51.3654 152.533 52.1566 153.628 52.1566C154.128 52.1566 154.545 52.1087 154.878 52.0248L154.962 54.1827C154.402 54.3866 153.676 54.4945 152.771 54.4945C151.652 54.4945 150.795 54.1468 150.164 53.4634C149.534 52.7801 149.224 51.6291 149.224 50.0226V43.5847H147.379V41.4627H149.224V39.1249L151.986 38.2856V41.4627H155.093V43.5967Z" fill="white"/>
<path d="M169.068 47.7448C169.068 49.711 168.509 51.3175 167.402 52.5763C166.235 53.8711 164.687 54.5185 162.759 54.5185C160.902 54.5185 159.414 53.8951 158.307 52.6602C157.2 51.4254 156.652 49.8548 156.652 47.9606C156.652 45.9825 157.224 44.364 158.355 43.1052C159.497 41.8463 161.033 41.2109 162.961 41.2109C164.818 41.2109 166.318 41.8344 167.449 43.0812C168.532 44.2801 169.068 45.8386 169.068 47.7448ZM166.152 47.8048C166.152 46.6299 165.902 45.6348 165.402 44.7956C164.807 43.7765 163.961 43.273 162.866 43.273C161.735 43.273 160.866 43.7765 160.283 44.7956C159.771 45.6348 159.533 46.6538 159.533 47.8647C159.533 49.0396 159.783 50.0467 160.283 50.8739C160.89 51.8929 161.747 52.3965 162.842 52.3965C163.914 52.3965 164.759 51.8809 165.378 50.8499C165.89 49.9867 166.152 48.9797 166.152 47.8048Z" fill="white"/>
<path d="M178.235 43.9561C177.961 43.9082 177.664 43.8842 177.342 43.8842C176.354 43.8842 175.581 44.2559 175.045 45.0112C174.581 45.6705 174.343 46.5217 174.343 47.5288V54.2305H171.521V45.4787C171.521 44.0041 171.498 42.6614 171.438 41.4625H173.89L173.997 43.9082H174.081C174.378 43.069 174.843 42.3856 175.485 41.8821C176.116 41.4265 176.795 41.1987 177.521 41.1987C177.783 41.1987 178.021 41.2227 178.223 41.2467L178.235 43.9561Z" fill="white"/>
<path d="M190.828 47.2414C190.828 47.7449 190.792 48.1765 190.721 48.5242H182.269C182.305 49.783 182.709 50.7541 183.495 51.4135C184.209 52.0009 185.126 52.3006 186.257 52.3006C187.507 52.3006 188.649 52.0968 189.673 51.7012L190.114 53.6674C188.911 54.1949 187.495 54.4586 185.864 54.4586C183.9 54.4586 182.352 53.8712 181.233 52.7083C180.114 51.5454 179.555 49.9748 179.555 48.0207C179.555 46.1025 180.078 44.496 181.126 43.2132C182.221 41.8464 183.697 41.1631 185.554 41.1631C187.376 41.1631 188.768 41.8464 189.697 43.2132C190.447 44.3161 190.828 45.6469 190.828 47.2414ZM188.137 46.5101C188.161 45.6709 187.971 44.9395 187.59 44.3281C187.102 43.5369 186.352 43.1412 185.352 43.1412C184.435 43.1412 183.685 43.5249 183.114 44.2922C182.65 44.9036 182.364 45.6469 182.281 46.4981L188.137 46.5101Z" fill="white"/>
<path d="M93.859 30.1931H92.3829L91.5734 27.6395H88.7641L87.9904 30.1931H86.5619L89.3355 21.4893H91.0497L93.859 30.1931ZM91.3235 26.5605L90.5973 24.2826C90.5259 24.0549 90.383 23.5034 90.1569 22.6402H90.1331C90.0378 23.0118 89.9188 23.5513 89.7164 24.2826L89.0022 26.5605H91.3235Z" fill="white"/>
<path d="M100.811 23.9111L98.4538 30.1932H97.1087L94.8231 23.9111H96.3111L97.3705 27.232C97.5491 27.7835 97.7039 28.311 97.8229 28.8145H97.8586C97.9657 28.359 98.1205 27.8315 98.311 27.232L99.3585 23.9111H100.811Z" fill="white"/>
<path d="M105.833 30.1932L105.726 29.4739H105.69C105.262 30.0494 104.655 30.3371 103.869 30.3371C102.75 30.3371 101.964 29.5458 101.964 28.4908C101.964 26.9443 103.297 26.141 105.607 26.141V26.0211C105.607 25.1939 105.166 24.7863 104.309 24.7863C103.69 24.7863 103.155 24.9422 102.678 25.2539L102.393 24.3427C102.964 23.9831 103.69 23.8032 104.535 23.8032C106.166 23.8032 106.988 24.6664 106.988 26.4048V28.7186C106.988 29.354 107.012 29.8456 107.083 30.2172L105.833 30.1932ZM105.643 27.0642C104.107 27.0642 103.333 27.4358 103.333 28.335C103.333 28.9944 103.726 29.3181 104.286 29.3181C104.988 29.3181 105.643 28.7786 105.643 28.0353V27.0642Z" fill="white"/>
<path d="M110.071 22.8798C109.607 22.8798 109.249 22.5202 109.249 22.0406C109.249 21.5611 109.619 21.2134 110.095 21.2134C110.571 21.2134 110.953 21.5611 110.941 22.0406C110.941 22.5441 110.583 22.8798 110.071 22.8798ZM109.404 23.9109H110.786V30.181H109.404V23.9109Z" fill="white"/>
<path d="M113.249 21.0337H114.631V30.1811H113.249V21.0337Z" fill="white"/>
<path d="M120.512 30.1925L120.405 29.4732H120.369C119.94 30.0487 119.333 30.3364 118.548 30.3364C117.429 30.3364 116.643 29.5451 116.643 28.4901C116.643 26.9436 117.976 26.1403 120.286 26.1403V26.0204C120.286 25.1932 119.845 24.7856 118.988 24.7856C118.369 24.7856 117.833 24.9414 117.357 25.2532L117.072 24.33C117.643 23.9704 118.369 23.7905 119.214 23.7905C120.845 23.7905 121.667 24.6537 121.667 26.3921V28.7059C121.667 29.3413 121.69 29.8329 121.75 30.2045H120.512V30.1925ZM120.321 27.0635C118.786 27.0635 118.012 27.4351 118.012 28.3343C118.012 28.9936 118.405 29.3173 118.964 29.3173C119.667 29.3173 120.321 28.7779 120.321 28.0345V27.0635Z" fill="white"/>
<path d="M127.285 30.337C126.404 30.337 125.75 29.9653 125.321 29.222H125.297L125.214 30.1931H124.036C124.071 29.6896 124.083 29.1261 124.083 28.5027V21.0337H125.476V24.8341H125.5C125.916 24.1388 126.571 23.7911 127.488 23.7911C128.988 23.7911 130.035 25.0859 130.035 26.9681C130.035 28.9103 128.868 30.337 127.285 30.337ZM127 24.8821C126.202 24.8821 125.476 25.5774 125.476 26.5485V27.6515C125.476 28.5147 126.131 29.222 126.976 29.222C128.011 29.222 128.63 28.3708 128.63 27.0161C128.63 25.7453 127.988 24.8821 127 24.8821Z" fill="white"/>
<path d="M132.082 21.0337H133.464V30.1811H132.082V21.0337Z" fill="white"/>
<path d="M140.998 27.3877H136.844C136.868 28.5746 137.653 29.246 138.808 29.246C139.427 29.246 139.987 29.1381 140.487 28.9462L140.701 29.9173C140.118 30.1811 139.427 30.301 138.618 30.301C136.665 30.301 135.511 29.0661 135.511 27.1359C135.511 25.2177 136.689 23.7671 138.463 23.7671C140.046 23.7671 141.058 24.954 141.058 26.7523C141.058 27.0041 141.046 27.2199 140.998 27.3877ZM139.737 26.3926C139.737 25.4215 139.249 24.7382 138.368 24.7382C137.57 24.7382 136.951 25.4335 136.856 26.3926H139.737Z" fill="white"/>
<path d="M149.391 30.3364C147.569 30.3364 146.391 28.9697 146.391 27.1114C146.391 25.1692 147.593 23.7905 149.498 23.7905C151.295 23.7905 152.498 25.0973 152.498 27.0035C152.498 28.9577 151.26 30.3364 149.391 30.3364ZM149.45 24.8096C148.45 24.8096 147.808 25.7567 147.808 27.0635C147.808 28.3582 148.462 29.2934 149.438 29.2934C150.415 29.2934 151.069 28.2863 151.069 27.0275C151.057 25.7567 150.426 24.8096 149.45 24.8096Z" fill="white"/>
<path d="M159.936 30.1928H158.555V26.5842C158.555 25.4692 158.126 24.9177 157.293 24.9177C156.472 24.9177 155.912 25.6251 155.912 26.4523V30.1808H154.531V25.709C154.531 25.1575 154.519 24.5581 154.484 23.9107H155.698L155.757 24.8818H155.793C156.162 24.2104 156.924 23.7788 157.769 23.7788C159.079 23.7788 159.936 24.7859 159.936 26.4283V30.1928Z" fill="white"/>
<path d="M168.996 24.9661H167.473V28.0112C167.473 28.7905 167.747 29.1741 168.282 29.1741C168.52 29.1741 168.735 29.1502 168.901 29.1142L168.937 30.1692C168.663 30.2771 168.306 30.3251 167.866 30.3251C166.77 30.3251 166.128 29.7136 166.128 28.1311V24.9661H165.223V23.9231H166.128V22.7721L167.485 22.3525V23.9111H169.008V24.9661" fill="white"/>
<path d="M176.329 30.1931H174.949V26.6085C174.949 25.4815 174.52 24.9181 173.687 24.9181C172.973 24.9181 172.306 25.4096 172.306 26.4047V30.1811H170.925V21.0337H172.306V24.7982H172.33C172.77 24.1148 173.389 23.7791 174.199 23.7791C175.52 23.7791 176.329 24.8102 176.329 26.4526V30.1931Z" fill="white"/>
<path d="M183.4 27.3877H179.246C179.27 28.5746 180.055 29.246 181.21 29.246C181.829 29.246 182.388 29.1381 182.888 28.9462L183.103 29.9173C182.519 30.1811 181.829 30.301 181.019 30.301C179.067 30.301 177.912 29.0661 177.912 27.1359C177.912 25.2177 179.091 23.7671 180.865 23.7671C182.448 23.7671 183.46 24.954 183.46 26.7523C183.46 27.0041 183.448 27.2199 183.4 27.3877ZM182.138 26.3926C182.138 25.4215 181.65 24.7382 180.769 24.7382C179.972 24.7382 179.341 25.4335 179.258 26.3926H182.138Z" fill="white"/>
<rect x="16.5" y="8.5" width="200" height="63" rx="7.5" stroke="#454056"/>
</g>
<g filter="url(#filter1_dd_41_1211)">
<rect x="233" y="8" width="201" height="64" rx="8" fill="url(#paint1_linear_41_1211)" fill-opacity="0.9"/>
<path d="M305.373 25.317C305.373 26.4629 305.098 27.4657 304.41 28.1819C303.585 29.0414 302.622 29.4711 301.385 29.4711C300.147 29.4711 299.184 29.0414 298.359 28.1819C297.534 27.3224 297.121 26.3197 297.121 25.0305C297.121 23.7413 297.534 22.7385 298.359 21.8791C299.184 21.0196 300.147 20.5898 301.385 20.5898C301.935 20.5898 302.485 20.7331 303.035 21.0196C303.585 21.3061 303.998 21.5926 304.273 22.0223L303.585 22.7385C303.035 22.0223 302.347 21.7358 301.385 21.7358C300.559 21.7358 299.734 22.0223 299.184 22.7385C298.496 23.3115 298.221 24.171 298.221 25.1737C298.221 26.1764 298.496 27.0359 299.184 27.6089C299.872 28.1819 300.559 28.6116 301.385 28.6116C302.347 28.6116 303.035 28.3251 303.723 27.6089C304.135 27.1792 304.41 26.6062 304.41 25.89H301.385V24.744H305.373V25.317ZM311.7 21.7358H307.986V24.4575H311.424V25.4602H307.986V28.1819H311.7V29.3279H306.886V20.7331H311.7V21.7358ZM316.238 29.3279H315.138V21.7358H312.8V20.7331H318.576V21.7358H316.238V29.3279ZM322.565 29.3279V20.7331H323.665V29.3279H322.565ZM328.341 29.3279H327.241V21.7358H324.903V20.7331H330.541V21.7358H328.203V29.3279H328.341ZM341.407 28.1819C340.581 29.0414 339.619 29.4711 338.381 29.4711C337.143 29.4711 336.18 29.0414 335.355 28.1819C334.53 27.3224 334.117 26.3197 334.117 25.0305C334.117 23.7413 334.53 22.7385 335.355 21.8791C336.18 21.0196 337.143 20.5898 338.381 20.5898C339.619 20.5898 340.581 21.0196 341.407 21.8791C342.232 22.7385 342.644 23.7413 342.644 25.0305C342.644 26.3197 342.232 27.3224 341.407 28.1819ZM336.18 27.4657C336.73 28.0386 337.556 28.4684 338.381 28.4684C339.206 28.4684 340.031 28.1819 340.581 27.4657C341.131 26.8927 341.544 26.0332 341.544 25.0305C341.544 24.0278 341.269 23.1683 340.581 22.5953C340.031 22.0223 339.206 21.5926 338.381 21.5926C337.556 21.5926 336.73 21.8791 336.18 22.5953C335.63 23.1683 335.218 24.0278 335.218 25.0305C335.218 26.0332 335.493 26.8927 336.18 27.4657ZM344.157 29.3279V20.7331H345.395L349.383 27.4657V20.7331H350.484V29.3279H349.383L345.12 22.3088V29.3279H344.157Z" fill="white"/>
<path d="M333.844 41.9342C330.543 41.9342 327.93 44.5127 327.93 48.0938C327.93 51.5317 330.543 54.2534 333.844 54.2534C337.145 54.2534 339.758 51.675 339.758 48.0938C339.758 44.3694 337.145 41.9342 333.844 41.9342ZM333.844 51.675C332.056 51.675 330.543 50.0993 330.543 47.9506C330.543 45.8019 332.056 44.2262 333.844 44.2262C335.632 44.2262 337.145 45.6586 337.145 47.9506C337.145 50.0993 335.632 51.675 333.844 51.675ZM321.053 41.9342C317.752 41.9342 315.139 44.5127 315.139 48.0938C315.139 51.5317 317.752 54.2534 321.053 54.2534C324.354 54.2534 326.967 51.675 326.967 48.0938C326.967 44.3694 324.354 41.9342 321.053 41.9342ZM321.053 51.675C319.265 51.675 317.752 50.0993 317.752 47.9506C317.752 45.8019 319.265 44.2262 321.053 44.2262C322.841 44.2262 324.354 45.6586 324.354 47.9506C324.354 50.0993 322.841 51.675 321.053 51.675ZM305.787 43.7964V46.3749H311.701C311.563 47.8073 311.013 48.9533 310.326 49.6695C309.5 50.529 308.125 51.5317 305.787 51.5317C302.074 51.5317 299.323 48.5236 299.323 44.6559C299.323 40.7883 302.211 37.7801 305.787 37.7801C307.713 37.7801 309.225 38.6396 310.326 39.6423L312.114 37.7801C310.601 36.3476 308.675 35.2017 305.925 35.2017C300.973 35.2017 296.71 39.499 296.71 44.6559C296.71 49.8128 300.973 54.1102 305.925 54.1102C308.675 54.1102 310.601 53.2507 312.251 51.3885C313.902 49.6695 314.452 47.2343 314.452 45.3721C314.452 44.7992 314.452 44.2262 314.314 43.7964H305.787ZM368.227 45.8019C367.677 44.3694 366.301 41.9342 363.276 41.9342C360.25 41.9342 357.774 44.3694 357.774 48.0938C357.774 51.5317 360.25 54.2534 363.551 54.2534C366.164 54.2534 367.814 52.5345 368.364 51.5317L366.439 50.0993C365.751 51.102 364.926 51.8182 363.551 51.8182C362.175 51.8182 361.35 51.2452 360.663 49.956L368.502 46.5181L368.227 45.8019ZM360.25 47.8073C360.25 45.5154 362.038 44.2262 363.276 44.2262C364.238 44.2262 365.201 44.7992 365.476 45.5154L360.25 47.8073ZM353.786 53.6804H356.399V35.7746H353.786V53.6804ZM349.66 43.2234C348.972 42.5072 347.872 41.791 346.497 41.791C343.609 41.791 340.858 44.5127 340.858 47.9506C340.858 51.3885 343.471 53.9669 346.497 53.9669C347.872 53.9669 348.972 53.2507 349.522 52.5345H349.66V53.3939C349.66 55.6859 348.422 56.9751 346.497 56.9751C344.984 56.9751 343.884 55.8291 343.609 54.8264L341.408 55.8291C342.096 57.4048 343.746 59.4103 346.634 59.4103C349.66 59.4103 352.136 57.5481 352.136 53.1074V42.2207H349.66V43.2234ZM346.634 51.675C344.846 51.675 343.333 50.0993 343.333 47.9506C343.333 45.8019 344.846 44.2262 346.634 44.2262C348.422 44.2262 349.798 45.8019 349.798 47.9506C349.798 50.0993 348.422 51.675 346.634 51.675ZM380.192 35.7746H374.003V53.6804H376.616V46.9478H380.192C383.08 46.9478 385.831 44.7992 385.831 41.3612C385.831 37.9233 383.08 35.7746 380.192 35.7746ZM380.33 44.3694H376.616V38.2098H380.33C382.255 38.2098 383.355 39.9288 383.355 41.218C383.218 42.7937 382.118 44.3694 380.33 44.3694ZM396.146 41.791C394.221 41.791 392.295 42.6505 391.607 44.5127L393.945 45.5154C394.496 44.5127 395.321 44.2262 396.284 44.2262C397.659 44.2262 398.897 45.0856 399.034 46.5181V46.6614C398.622 46.3749 397.521 45.9451 396.421 45.9451C393.945 45.9451 391.47 47.3776 391.47 49.956C391.47 52.3912 393.533 53.9669 395.733 53.9669C397.521 53.9669 398.346 53.1074 399.034 52.248H399.172V53.6804H401.647V46.8046C401.372 43.6532 399.034 41.791 396.146 41.791ZM395.871 51.675C395.046 51.675 393.808 51.2452 393.808 50.0993C393.808 48.6668 395.321 48.2371 396.559 48.2371C397.659 48.2371 398.209 48.5236 398.897 48.8101C398.622 50.529 397.246 51.675 395.871 51.675ZM410.312 42.2207L407.424 49.956H407.286L404.26 42.2207H401.51L406.048 53.1074L403.435 59.1238H406.048L413.062 42.2207H410.312ZM387.206 53.6804H389.819V35.7746H387.206V53.6804Z" fill="white"/>
<path d="M270.652 39.5217L254.722 55.7573C254.41 55.4086 254.188 54.8333 254.188 54.1205V24.7282C254.188 24.0831 254.276 23.5815 254.482 23.2432L270.652 39.4612V39.5217Z" fill="white" stroke="#454056" stroke-width="0.5"/>
<path d="M276.126 34.2559L282.519 37.9787C283.386 38.4838 283.765 39.1124 283.765 39.6911C283.765 40.2693 283.387 40.8972 282.521 41.402L276.165 44.9L271.02 39.6555V39.4608L276.126 34.2559Z" fill="white" stroke="#454056" stroke-width="0.5"/>
<path d="M254.824 56.1027L270.772 39.8482L275.85 45.0235L257.086 56.0265C256.523 56.2802 256.045 56.396 255.644 56.3814C255.333 56.3701 255.062 56.2802 254.824 56.1027Z" fill="white" stroke="#454056" stroke-width="0.5"/>
<path d="M257.077 23.0843C257.077 23.0845 257.077 23.0847 257.078 23.0849L275.849 33.9609L270.771 39.1358L254.822 23.0107C255.068 22.818 255.344 22.707 255.653 22.6845C256.046 22.6558 256.519 22.7687 257.077 23.0843Z" fill="white" stroke="#454056" stroke-width="0.5"/>
<g opacity="0.2">
<mask id="path-35-inside-1_41_1211" fill="white">
<path d="M276.122 44.9438L257.201 55.8496C256.157 56.5146 255.243 56.3816 254.591 55.8496L254.46 55.9826L254.591 56.1156C255.243 56.6476 256.157 56.7806 257.201 56.1156L276.122 44.9438Z"/>
</mask>
<path d="M276.122 44.9438L257.201 55.8496C256.157 56.5146 255.243 56.3816 254.591 55.8496L254.46 55.9826L254.591 56.1156C255.243 56.6476 256.157 56.7806 257.201 56.1156L276.122 44.9438Z" fill="white"/>
<path d="M276.122 44.9438L276.376 45.3744L275.873 44.5107L276.122 44.9438ZM257.201 55.8496L256.951 55.4164L256.942 55.4219L256.932 55.4279L257.201 55.8496ZM254.591 55.8496L254.907 55.4621L254.553 55.1739L254.234 55.4994L254.591 55.8496ZM254.46 55.9826L254.104 55.6324L253.76 55.9826L254.104 56.3328L254.46 55.9826ZM254.591 56.1156L254.234 56.4658L254.253 56.4856L254.275 56.5031L254.591 56.1156ZM257.201 56.1156L256.947 55.685L256.939 55.6893L256.932 55.6939L257.201 56.1156ZM275.873 44.5107L256.951 55.4164L257.45 56.2828L276.372 45.377L275.873 44.5107ZM256.932 55.4279C256.48 55.7162 256.089 55.8109 255.768 55.7988C255.448 55.7867 255.158 55.6671 254.907 55.4621L254.275 56.2371C254.676 56.564 255.17 56.7769 255.73 56.7981C256.29 56.8192 256.878 56.648 257.469 56.2713L256.932 55.4279ZM254.234 55.4994L254.104 55.6324L254.817 56.3328L254.948 56.1998L254.234 55.4994ZM254.104 56.3328L254.234 56.4658L254.948 55.7654L254.817 55.6324L254.104 56.3328ZM254.275 56.5031C254.676 56.83 255.17 57.0429 255.73 57.0641C256.29 57.0852 256.878 56.914 257.469 56.5373L256.932 55.6939C256.48 55.9821 256.089 56.0769 255.768 56.0648C255.448 56.0527 255.158 55.9331 254.907 55.7281L254.275 56.5031ZM257.455 56.5461L276.376 45.3744L275.868 44.5133L256.947 55.685L257.455 56.5461Z" fill="#454056" mask="url(#path-35-inside-1_41_1211)"/>
</g>
<g opacity="0.2">
<mask id="path-37-inside-2_41_1211" fill="white">
<path d="M254.459 55.8498C254.068 55.4508 253.938 54.7859 253.938 53.9879V54.1209C253.938 54.9189 254.198 55.5838 254.59 55.9828V55.8498H254.459ZM282.646 41.2202L276.121 44.9441L276.252 45.0771L282.646 41.3532C283.559 40.8212 283.951 40.1562 283.951 39.4912C283.951 40.1562 283.429 40.6882 282.646 41.2202Z"/>
</mask>
<path d="M254.459 55.8498C254.068 55.4508 253.938 54.7859 253.938 53.9879V54.1209C253.938 54.9189 254.198 55.5838 254.59 55.9828V55.8498H254.459ZM282.646 41.2202L276.121 44.9441L276.252 45.0771L282.646 41.3532C283.559 40.8212 283.951 40.1562 283.951 39.4912C283.951 40.1562 283.429 40.6882 282.646 41.2202Z" fill="white"/>
<path d="M254.459 55.8498L254.103 56.2L254.25 56.3498H254.459V55.8498ZM254.59 55.9828L254.233 56.333L255.09 57.2064V55.9828H254.59ZM254.59 55.8498H255.09V55.3498H254.59V55.8498ZM276.121 44.9441L275.873 44.5098L275.31 44.8313L275.764 45.2943L276.121 44.9441ZM276.252 45.0771L275.895 45.4273L276.167 45.7049L276.503 45.5092L276.252 45.0771ZM282.646 41.3532L282.394 40.9211L282.646 41.3532ZM254.816 55.4997C254.573 55.252 254.438 54.7681 254.438 53.9879H253.438C253.438 54.8036 253.563 55.6497 254.103 56.2L254.816 55.4997ZM253.438 53.9879V54.1209H254.438V53.9879H253.438ZM253.438 54.1209C253.438 55.0188 253.73 55.8205 254.233 56.333L254.947 55.6327C254.667 55.3472 254.438 54.819 254.438 54.1209H253.438ZM255.09 55.9828V55.8498H254.09V55.9828H255.09ZM254.59 55.3498H254.459V56.3498H254.59V55.3498ZM282.398 40.7859L275.873 44.5098L276.369 45.3783L282.894 41.6544L282.398 40.7859ZM275.764 45.2943L275.895 45.4273L276.609 44.7269L276.478 44.5939L275.764 45.2943ZM276.503 45.5092L282.897 41.7852L282.394 40.9211L276 44.645L276.503 45.5092ZM282.897 41.7852C283.916 41.1922 284.451 40.3843 284.451 39.4912H283.451C283.451 39.9281 283.203 40.4502 282.394 40.9211L282.897 41.7852ZM283.451 39.4912C283.451 39.8725 283.152 40.2717 282.365 40.8066L282.927 41.6337C283.706 41.1046 284.451 40.4399 284.451 39.4912H283.451Z" fill="#454056" mask="url(#path-37-inside-2_41_1211)"/>
</g>
<g opacity="0.2">
<mask id="path-39-inside-3_41_1211" fill="white">
<path d="M257.2 22.9997L282.646 37.7623C283.429 38.2943 283.951 38.8263 283.951 39.4913C283.951 38.8263 283.559 38.1613 282.646 37.6293L257.2 22.8667C255.373 21.8027 253.938 22.6007 253.938 24.7286V24.8616C253.938 22.8667 255.373 21.9357 257.2 22.9997Z"/>
</mask>
<path d="M257.2 22.9997L282.646 37.7623C283.429 38.2943 283.951 38.8263 283.951 39.4913C283.951 38.8263 283.559 38.1613 282.646 37.6293L257.2 22.8667C255.373 21.8027 253.938 22.6007 253.938 24.7286V24.8616C253.938 22.8667 255.373 21.9357 257.2 22.9997Z" fill="white"/>
<path d="M257.2 22.9997L256.948 23.4317L256.949 23.4322L257.2 22.9997ZM282.646 37.7623L282.927 37.3488L282.912 37.3388L282.897 37.3299L282.646 37.7623ZM282.646 37.6293L282.897 37.1973L282.897 37.1969L282.646 37.6293ZM257.2 22.8667L256.948 23.2988L256.949 23.2992L257.2 22.8667ZM256.949 23.4322L282.395 38.1948L282.897 37.3299L257.451 22.5672L256.949 23.4322ZM282.365 38.1759C283.152 38.7108 283.451 39.11 283.451 39.4913H284.451C284.451 38.5426 283.706 37.8779 282.927 37.3488L282.365 38.1759ZM284.451 39.4913C284.451 38.5982 283.916 37.7903 282.897 37.1973L282.394 38.0614C283.203 38.5323 283.451 39.0545 283.451 39.4913H284.451ZM282.897 37.1969L257.451 22.4342L256.949 23.2992L282.395 38.0618L282.897 37.1969ZM257.451 22.4346C256.456 21.855 255.44 21.7111 254.637 22.1656C253.832 22.6214 253.438 23.5679 253.438 24.7286H254.438C254.438 23.7614 254.761 23.2449 255.13 23.0358C255.502 22.8253 256.117 22.8144 256.948 23.2988L257.451 22.4346ZM253.438 24.7286V24.8616H254.438V24.7286H253.438ZM254.438 24.8616C254.438 23.9728 254.754 23.4424 255.139 23.2133C255.518 22.9878 256.132 22.9562 256.948 23.4317L257.451 22.5676C256.441 21.9792 255.423 21.8811 254.628 22.3538C253.839 22.8229 253.438 23.7555 253.438 24.8616H254.438Z" fill="#454056" mask="url(#path-39-inside-3_41_1211)"/>
</g>
<rect x="233.5" y="8.5" width="200" height="63" rx="7.5" stroke="#454056"/>
</g>
<defs>
<filter id="filter0_dd_41_1211" x="0" y="0" width="233" height="96" filterUnits="userSpaceOnUse" color-interpolation-filters="sRGB">
<feFlood flood-opacity="0" result="BackgroundImageFix"/>
<feColorMatrix in="SourceAlpha" type="matrix" values="0 0 0 0 0 0 0 0 0 0 0 0 0 0 0 0 0 0 127 0" result="hardAlpha"/>
<feOffset dy="8"/>
<feGaussianBlur stdDeviation="8"/>
<feColorMatrix type="matrix" values="0 0 0 0 0.121569 0 0 0 0 0.105882 0 0 0 0 0.176471 0 0 0 0.16 0"/>
<feBlend mode="normal" in2="BackgroundImageFix" result="effect1_dropShadow_41_1211"/>
<feColorMatrix in="SourceAlpha" type="matrix" values="0 0 0 0 0 0 0 0 0 0 0 0 0 0 0 0 0 0 127 0" result="hardAlpha"/>
<feMorphology radius="6" operator="erode" in="SourceAlpha" result="effect2_dropShadow_41_1211"/>
<feOffset dy="4"/>
<feGaussianBlur stdDeviation="6"/>
<feColorMatrix type="matrix" values="0 0 0 0 0.121569 0 0 0 0 0.105882 0 0 0 0 0.176471 0 0 0 0.2 0"/>
<feBlend mode="normal" in2="effect1_dropShadow_41_1211" result="effect2_dropShadow_41_1211"/>
<feBlend mode="normal" in="SourceGraphic" in2="effect2_dropShadow_41_1211" result="shape"/>
</filter>
<filter id="filter1_dd_41_1211" x="217" y="0" width="233" height="96" filterUnits="userSpaceOnUse" color-interpolation-filters="sRGB">
<feFlood flood-opacity="0" result="BackgroundImageFix"/>
<feColorMatrix in="SourceAlpha" type="matrix" values="0 0 0 0 0 0 0 0 0 0 0 0 0 0 0 0 0 0 127 0" result="hardAlpha"/>
<feOffset dy="8"/>
<feGaussianBlur stdDeviation="8"/>
<feColorMatrix type="matrix" values="0 0 0 0 0.121569 0 0 0 0 0.105882 0 0 0 0 0.176471 0 0 0 0.16 0"/>
<feBlend mode="normal" in2="BackgroundImageFix" result="effect1_dropShadow_41_1211"/>
<feColorMatrix in="SourceAlpha" type="matrix" values="0 0 0 0 0 0 0 0 0 0 0 0 0 0 0 0 0 0 127 0" result="hardAlpha"/>
<feMorphology radius="6" operator="erode" in="SourceAlpha" result="effect2_dropShadow_41_1211"/>
<feOffset dy="4"/>
<feGaussianBlur stdDeviation="6"/>
<feColorMatrix type="matrix" values="0 0 0 0 0.121569 0 0 0 0 0.105882 0 0 0 0 0.176471 0 0 0 0.2 0"/>
<feBlend mode="normal" in2="effect1_dropShadow_41_1211" result="effect2_dropShadow_41_1211"/>
<feBlend mode="normal" in="SourceGraphic" in2="effect2_dropShadow_41_1211" result="shape"/>
</filter>
<linearGradient id="paint0_linear_41_1211" x1="116.5" y1="8" x2="116.5" y2="72" gradientUnits="userSpaceOnUse">
<stop stop-color="#454056" stop-opacity="0.85"/>
<stop offset="1" stop-color="#454056"/>
</linearGradient>
<linearGradient id="paint1_linear_41_1211" x1="333.5" y1="8" x2="333.5" y2="72" gradientUnits="userSpaceOnUse">
<stop stop-color="#454056" stop-opacity="0.85"/>
<stop offset="1" stop-color="#454056"/>
</linearGradient>
</defs>
</svg>
